0
SECTION
2
HEADER
9
$INSUNITS
70
4
9
$ACADVER
1
AC1014
9
$HANDSEED
5
FFFF
0
ENDSEC
0
SECTION
2
TABLES
0
TABLE
2
VPORT
5
8
100
AcDbSymbolTable
0
ENDTAB
0
TABLE
2
LTYPE
5
5
100
AcDbSymbolTable
0
LTYPE
5
14
100
AcDbSymbolTableRecord
100
AcDbLinetypeTableRecord
2
BYBLOCK
70
0
0
LTYPE
5
15
100
AcDbSymbolTableRecord
100
AcDbLinetypeTableRecord
2
BYLAYER
70
0
0
ENDTAB
0
TABLE
2
LAYER
5
2
100
AcDbSymbolTable
70
2
0
LAYER
5
50
100
AcDbSymbolTableRecord
100
AcDbLayerTableRecord
2
0
70
0
6
CONTINUOUS
0
ENDTAB
0
TABLE
2
STYLE
5
3
100
AcDbSymbolTable
70
1
0
STYLE
5
11
100
AcDbSymbolTableRecord
100
AcDbTextStyleTableRecord
2
STANDARD
70
0
0
ENDTAB
0
TABLE
2
VIEW
5
6
100
AcDbSymbolTable
70
0
0
ENDTAB
0
TABLE
2
UCS
5
7
100
AcDbSymbolTable
70
0
0
ENDTAB
0
TABLE
2
APPID
5
9
100
AcDbSymbolTable
70
2
0
APPID
5
12
100
AcDbSymbolTableRecord
100
AcDbRegAppTableRecord
2
ACAD
70
0
0
ENDTAB
0
TABLE
2
DIMSTYLE
5
A
100
AcDbSymbolTable
70
1
0
ENDTAB
0
TABLE
2
BLOCK_RECORD
5
1
100
AcDbSymbolTable
70
1
0
BLOCK_RECORD
5
1F
100
AcDbSymbolTableRecord
100
AcDbBlockTableRecord
2
*MODEL_SPACE
0
BLOCK_RECORD
5
1B
100
AcDbSymbolTableRecord
100
AcDbBlockTableRecord
2
*PAPER_SPACE
0
ENDTAB
0
ENDSEC
0
SECTION
2
BLOCKS
0
BLOCK
5
20
100
AcDbEntity
100
AcDbBlockBegin
2
*MODEL_SPACE
0
ENDBLK
5
21
100
AcDbEntity
100
AcDbBlockEnd
0
BLOCK
5
1C
100
AcDbEntity
100
AcDbBlockBegin
2
*PAPER_SPACE
0
ENDBLK
5
1D
100
AcDbEntity
100
AcDbBlockEnd
0
ENDSEC
0
SECTION
2
ENTITIES
0
LWPOLYLINE
5
100
100
AcDbEntity
8
0
100
AcDbPolyline
90
4
70
1
43
0.0
10
39.012106056366576
20
73.440298282793066
10
29.012106056366584
20
73.440298282793066
10
29.012106056366584
20
76.44029828279308
10
39.012106056366576
20
76.44029828279308
0
LWPOLYLINE
5
101
100
AcDbEntity
8
0
100
AcDbPolyline
90
4
70
1
43
0.0
10
45.321867977163095
20
79.546871036937318
10
45.32186797716308
20
102.54687103693732
10
42.32186797716308
20
102.54687103693732
10
42.321867977163095
20
79.546871036937318
0
LWPOLYLINE
5
102
100
AcDbEntity
8
0
100
AcDbPolyline
90
4
70
1
43
0.0
10
28.94686797716308
20
79.541516261832882
10
28.94686797716308
20
102.54151626183288
10
25.946867977163073
20
102.54151626183288
10
25.946867977163073
20
79.541516261832882
0
LINE
5
103
100
AcDbEntity
8
0
100
AcDbLine
10
50.800000000000011
20
77.469999999999999
30
0
11
50.800000000000011
21
109.22
31
0
0
LWPOLYLINE
5
104
100
AcDbEntity
8
0
100
AcDbPolyline
90
4
70
1
43
0.0
10
29.960838211429227
20
79.641516261832891
10
32.779916073786922
20
78.615455831855883
10
41.308469565988176
20
102.04746397228952
10
38.489391703630488
20
103.07352440226651
0
LINE
5
105
100
AcDbEntity
8
0
100
AcDbLine
10
50.800000000000011
20
77.469999999999999
30
0
11
48.260000000000005
21
74.930000000000007
31
0
0
CIRCLE
5
106
100
AcDbEntity
8
0
100
AcDbCircle
10
45.719999999999999
20
74.930000000000007
30
0
40
1.269999999999996
0
LWPOLYLINE
5
107
100
AcDbEntity
8
0
100
AcDbPolyline
90
4
70
1
43
0.0
10
39.012106056366576
20
108.19029828279309
10
16.012106056366573
20
108.19029828279309
10
16.012106056366573
20
105.19029828279308
10
39.012106056366576
20
105.19029828279308
0
LINE
5
108
100
AcDbEntity
8
0
100
AcDbLine
10
48.260000000000005
20
111.76000000000002
30
0
11
50.800000000000011
21
109.22
31
0
0
LINE
5
109
100
AcDbEntity
8
0
100
AcDbLine
10
48.260000000000005
20
111.76000000000002
30
0
11
7.6200000000000045
21
111.76000000000002
31
0
0
LINE
5
110
100
AcDbEntity
8
0
100
AcDbLine
10
48.260000000000005
20
74.930000000000007
30
0
11
50.800000000000011
21
72.390000000000015
31
0
0
LWPOLYLINE
5
111
100
AcDbEntity
8
0
100
AcDbPolyline
90
4
70
1
43
0.0
10
42.32186797716308
20
70.796871036937304
10
42.321867977163095
20
47.796871036937311
10
45.321867977163095
20
47.796871036937311
10
45.32186797716308
20
70.796871036937304
0
LWPOLYLINE
5
112
100
AcDbEntity
8
0
100
AcDbPolyline
90
4
70
1
43
0.0
10
28.946867977163091
20
47.496871036937307
10
28.946867977163073
20
70.496871036937307
10
25.946867977163073
20
70.496871036937293
10
25.946867977163084
20
47.496871036937307
0
LINE
5
113
100
AcDbEntity
8
0
100
AcDbLine
10
50.800000000000011
20
72.390000000000015
30
0
11
50.800000000000011
21
39.369999999999997
31
0
0
LWPOLYLINE
5
114
100
AcDbEntity
8
0
100
AcDbPolyline
90
4
70
1
43
0.0
10
49.381648483239317
20
44.709460045683478
10
46.281648483239323
20
44.709460045683478
10
46.281648483239323
20
41.709460045683485
10
49.381648483239317
20
41.709460045683464
0
LWPOLYLINE
5
115
100
AcDbEntity
8
0
100
AcDbPolyline
90
4
70
1
43
0.0
10
39.012106056366576
20
41.690298282793066
10
39.012106056366576
20
44.690298282793073
10
16.012106056366573
20
44.690298282793073
10
16.012106056366573
20
41.690298282793066
0
LINE
5
116
100
AcDbEntity
8
0
100
AcDbLine
10
50.800000000000011
20
39.369999999999997
30
0
11
48.260000000000005
21
36.829999999999998
31
0
0
LINE
5
117
100
AcDbEntity
8
0
100
AcDbLine
10
7.6200000000000001
20
36.829999999999998
30
0
11
48.260000000000005
21
36.829999999999998
31
0
0
CIRCLE
5
118
100
AcDbEntity
8
0
100
AcDbCircle
10
10.16
20
74.930000000000007
30
0
40
1.27
0
LWPOLYLINE
5
119
100
AcDbEntity
8
0
100
AcDbPolyline
90
4
70
1
43
0.0
10
16.012106056366576
20
73.440298282793066
10
26.012106056366573
20
73.440298282793066
10
26.012106056366573
20
76.44029828279308
10
16.012106056366576
20
76.44029828279308
0
LINE
5
120
100
AcDbEntity
8
0
100
AcDbLine
10
5.0800000000000001
20
72.390000000000015
30
0
11
7.6200000000000001
21
74.930000000000007
31
0
0
LINE
5
121
100
AcDbEntity
8
0
100
AcDbLine
10
7.6200000000000001
20
74.930000000000007
30
0
11
5.0800000000000001
21
77.469999999999999
31
0
0
LWPOLYLINE
5
122
100
AcDbEntity
8
0
100
AcDbPolyline
90
4
70
1
43
0.0
10
12.696867977163077
20
70.796871036937304
10
9.696867977163075
20
70.796871036937304
10
9.6968679771630875
20
47.796871036937311
10
12.696867977163091
20
47.796871036937311
0
LINE
5
123
100
AcDbEntity
8
0
100
AcDbLine
10
22.113819880539261
20
71.422931466914306
30
0
11
24.932897742896948
21
70.396871036937299
31
0
0
LINE
5
124
100
AcDbEntity
8
0
100
AcDbLine
10
7.6200000000000001
20
36.829999999999998
30
0
11
5.0800000000000001
21
39.369999999999997
31
0
0
LINE
5
125
100
AcDbEntity
8
0
100
AcDbLine
10
5.0800000000000001
20
39.369999999999997
30
0
11
5.0800000000000001
21
72.390000000000015
31
0
0
LWPOLYLINE
5
126
100
AcDbEntity
8
0
100
AcDbPolyline
90
4
70
1
43
0.0
10
9.6968679771630875
20
79.546871036937318
10
12.696867977163091
20
79.546871036937318
10
12.696867977163077
20
102.54687103693732
10
9.696867977163075
20
102.54687103693732
0
LINE
5
127
100
AcDbEntity
8
0
100
AcDbLine
10
24.955501012522717
20
79.641516261832891
30
0
11
22.116367714399715
21
78.672329945643284
31
0
0
LINE
5
128
100
AcDbEntity
8
0
100
AcDbLine
10
7.6200000000000045
20
111.76000000000002
30
0
11
5.0800000000000001
21
109.22
31
0
0
LINE
5
129
100
AcDbEntity
8
0
100
AcDbLine
10
5.0800000000000001
20
77.469999999999999
30
0
11
5.0800000000000001
21
109.22
31
0
0
LINE
5
130
100
AcDbEntity
8
0
100
AcDbLine
10
13.585266388337976
20
47.990923326480733
30
0
11
16.404344250695672
21
46.964862896503746
31
0
0
LINE
5
131
100
AcDbEntity
8
0
100
AcDbLine
10
16.897253236853121
20
103.24733817889891
30
0
11
14.058119938730107
21
102.27815186270932
31
0
0
LINE
5
132
100
AcDbEntity
8
0
100
AcDbLine
10
24.932897742896948
20
70.396871036937299
30
0
11
16.40434425069564
21
46.964862896503767
31
0
0
LINE
5
133
100
AcDbEntity
8
0
100
AcDbLine
10
13.585266388337951
20
47.990923326480782
30
0
11
22.113819880539261
21
71.422931466914306
31
0
0
LWPOLYLINE
5
134
100
AcDbEntity
8
0
100
AcDbPolyline
90
4
70
1
43
0.0
10
32.777368239926453
20
71.366057353126919
10
29.93823494180344
20
70.396871036937313
10
37.99648271747305
20
46.791049119871239
10
40.835616015596059
20
47.760235436060853
0
LINE
5
135
100
AcDbEntity
8
0
100
AcDbLine
10
24.955501012522717
20
79.641516261832891
30
0
11
16.897253236853167
21
103.24733817889893
31
0
0
LINE
5
136
100
AcDbEntity
8
0
100
AcDbLine
10
14.058119938730167
20
102.27815186270932
30
0
11
22.116367714399715
21
78.672329945643284
31
0
0
ENDSEC
0
SECTION
2
OBJECTS
0
DICTIONARY
5
C
100
AcDbDictionary
3
ACAD_GROUP
350
D
3
ACAD_MLINESTYLE
350
17
0
DICTIONARY
5
D
100
AcDbDictionary
0
DICTIONARY
5
1A
330
C
100
AcDbDictionary
0
DICTIONARY
5
17
100
AcDbDictionary
0
ENDSEC
0
EOF
