0
SECTION
2
HEADER
9
$INSUNITS
70
4
9
$ACADVER
1
AC1014
9
$HANDSEED
5
FFFF
0
ENDSEC
0
SECTION
2
TABLES
0
TABLE
2
VPORT
5
8
100
AcDbSymbolTable
0
ENDTAB
0
TABLE
2
LTYPE
5
5
100
AcDbSymbolTable
0
LTYPE
5
14
100
AcDbSymbolTableRecord
100
AcDbLinetypeTableRecord
2
BYBLOCK
70
0
0
LTYPE
5
15
100
AcDbSymbolTableRecord
100
AcDbLinetypeTableRecord
2
BYLAYER
70
0
0
ENDTAB
0
TABLE
2
LAYER
5
2
100
AcDbSymbolTable
70
2
0
LAYER
5
50
100
AcDbSymbolTableRecord
100
AcDbLayerTableRecord
2
0
70
0
6
CONTINUOUS
0
ENDTAB
0
TABLE
2
STYLE
5
3
100
AcDbSymbolTable
70
1
0
STYLE
5
11
100
AcDbSymbolTableRecord
100
AcDbTextStyleTableRecord
2
STANDARD
70
0
0
ENDTAB
0
TABLE
2
VIEW
5
6
100
AcDbSymbolTable
70
0
0
ENDTAB
0
TABLE
2
UCS
5
7
100
AcDbSymbolTable
70
0
0
ENDTAB
0
TABLE
2
APPID
5
9
100
AcDbSymbolTable
70
2
0
APPID
5
12
100
AcDbSymbolTableRecord
100
AcDbRegAppTableRecord
2
ACAD
70
0
0
ENDTAB
0
TABLE
2
DIMSTYLE
5
A
100
AcDbSymbolTable
70
1
0
ENDTAB
0
TABLE
2
BLOCK_RECORD
5
1
100
AcDbSymbolTable
70
1
0
BLOCK_RECORD
5
1F
100
AcDbSymbolTableRecord
100
AcDbBlockTableRecord
2
*MODEL_SPACE
0
BLOCK_RECORD
5
1B
100
AcDbSymbolTableRecord
100
AcDbBlockTableRecord
2
*PAPER_SPACE
0
ENDTAB
0
ENDSEC
0
SECTION
2
BLOCKS
0
BLOCK
5
20
100
AcDbEntity
100
AcDbBlockBegin
2
*MODEL_SPACE
0
ENDBLK
5
21
100
AcDbEntity
100
AcDbBlockEnd
0
BLOCK
5
1C
100
AcDbEntity
100
AcDbBlockBegin
2
*PAPER_SPACE
0
ENDBLK
5
1D
100
AcDbEntity
100
AcDbBlockEnd
0
ENDSEC
0
SECTION
2
ENTITIES
0
LINE
5
100
100
AcDbEntity
8
0
100
AcDbLine
10
58.200000312924374
20
13.473438322000174
30
0
11
58.200000312924374
21
7.0000001043081284
31
0
0
LINE
5
101
100
AcDbEntity
8
0
100
AcDbLine
10
56.200000312924374
20
7.000100104308129
30
0
11
56.200000312924374
21
7.0000001043081284
31
0
0
LINE
5
102
100
AcDbEntity
8
0
100
AcDbLine
10
56.200000312924374
20
7.0000001043081284
30
0
11
56.200000312924374
21
3.3000004470348356
31
0
0
LINE
5
103
100
AcDbEntity
8
0
100
AcDbLine
10
58.200000312924374
20
7.0000001043081284
30
0
11
58.200000312924374
21
3.3000004470348356
31
0
0
LINE
5
104
100
AcDbEntity
8
0
100
AcDbLine
10
56.200000312924374
20
3.3000004470348356
30
0
11
58.200000312924374
21
3.3000004470348356
31
0
0
LINE
5
105
100
AcDbEntity
8
0
100
AcDbLine
10
57.765842809836784
20
14.297951674643976
30
0
11
54.231685306749199
21
16.723353882645252
31
0
0
ARC
5
106
100
AcDbEntity
8
0
100
AcDbCircle
10
57.200000312924416
20
13.473438322000193
30
0
40
0.99999999999996092
100
AcDbArc
50
0
51
55.539183728629759
0
LINE
5
107
100
AcDbEntity
8
0
100
AcDbLine
10
70.000000312924371
20
21.300000447034833
30
0
11
69.000000312924371
21
21.300000447034833
31
0
0
LINE
5
108
100
AcDbEntity
8
0
100
AcDbLine
10
70.000000312924371
20
29.367428489414817
30
0
11
70.000000312924371
21
25.000000447034836
31
0
0
LINE
5
109
100
AcDbEntity
8
0
100
AcDbLine
10
69.000000312924371
20
21.300000447034833
30
0
11
69.000000312924371
21
25.000000447034836
31
0
0
LINE
5
110
100
AcDbEntity
8
0
100
AcDbLine
10
69.000000312924371
20
25.000000447034836
30
0
11
70.000000312924371
21
25.000000447034836
31
0
0
LINE
5
111
100
AcDbEntity
8
0
100
AcDbLine
10
72.000000312924371
20
25.000000447034836
30
0
11
72.000000312924371
21
21.300000447034833
31
0
0
LINE
5
112
100
AcDbEntity
8
0
100
AcDbLine
10
72.000000312924371
20
21.300000447034833
30
0
11
70.000000312924371
21
21.300000447034833
31
0
0
LINE
5
113
100
AcDbEntity
8
0
100
AcDbLine
10
48.000000312924378
20
13.473438322000161
30
0
11
48.000000312924378
21
7.0000004470348376
31
0
0
LINE
5
114
100
AcDbEntity
8
0
100
AcDbLine
10
48.434157816011961
20
14.297951674643963
30
0
11
51.968315319099545
21
16.723353882645252
31
0
0
ARC
5
115
100
AcDbEntity
8
0
100
AcDbCircle
10
53.100000312924379
20
15.074327177357658
30
0
40
1.9999999999999858
100
AcDbArc
50
55.539183728628231
51
124.46081627137211
0
ARC
5
116
100
AcDbEntity
8
0
100
AcDbCircle
10
49.000000312924342
20
13.473438322000179
30
0
40
0.99999999999996092
100
AcDbArc
50
124.46081627137086
51
180
0
LINE
5
117
100
AcDbEntity
8
0
100
AcDbLine
10
47.000000312924385
20
7.0000004470348376
30
0
11
48.000000312924378
21
7.0000004470348376
31
0
0
LINE
5
118
100
AcDbEntity
8
0
100
AcDbLine
10
50.000000310441486
20
3.3000004470348356
30
0
11
48.000000312924378
21
3.3000004470348356
31
0
0
LINE
5
119
100
AcDbEntity
8
0
100
AcDbLine
10
47.000000312924385
20
3.3000004470348365
30
0
11
47.000000312924385
21
7.0000004470348376
31
0
0
LINE
5
120
100
AcDbEntity
8
0
100
AcDbLine
10
50.000000310441486
20
7.000100104308129
30
0
11
50.000000310441486
21
3.3000004470348356
31
0
0
LINE
5
121
100
AcDbEntity
8
0
100
AcDbLine
10
48.000000312924378
20
3.3000004470348365
30
0
11
47.000000312924385
21
3.3000004470348365
31
0
0
LINE
5
122
100
AcDbEntity
8
0
100
AcDbLine
10
50.000000310441486
20
7.000100104308129
30
0
11
56.200000312924374
21
7.000100104308129
31
0
0
LINE
5
123
100
AcDbEntity
8
0
100
AcDbLine
10
50.000000310441493
20
7.0000001043081284
30
0
11
50.000000310441486
21
7.000100104308129
31
0
0
LWPOLYLINE
5
124
100
AcDbEntity
8
0
100
AcDbPolyline
90
8
70
1
43
0.0
10
98.117322014215759
20
12.582729586582246
10
98.117322014215759
20
19.082717090648792
42
-0.41421356237309509
10
99.617322014215759
20
20.582717090648792
10
99.800222169574795
20
20.582717090648792
42
-0.41421356237309509
10
101.30022216957479
20
19.082717090648789
10
101.30022216957479
20
9.3827295865822649
10
97.117322014215759
20
9.3827295865822649
10
97.117322014215759
20
12.582729586582246
0
LINE
5
125
100
AcDbEntity
8
0
100
AcDbLine
10
93.200000312924374
20
29.367428489414845
30
0
11
93.200000312924374
21
25.000000447034836
31
0
0
LINE
5
126
100
AcDbEntity
8
0
100
AcDbLine
10
91.200000312924374
20
21.300000447034833
30
0
11
93.200000312924374
21
21.300000447034833
31
0
0
LINE
5
127
100
AcDbEntity
8
0
100
AcDbLine
10
91.200000312924374
20
25.000000447034836
30
0
11
91.200000312924374
21
21.300000447034833
31
0
0
LINE
5
128
100
AcDbEntity
8
0
100
AcDbLine
10
94.200000312924374
20
25.000000447034836
30
0
11
93.200000312924374
21
25.000000447034836
31
0
0
LINE
5
129
100
AcDbEntity
8
0
100
AcDbLine
10
94.200000312924374
20
21.300000447034833
30
0
11
94.200000312924374
21
25.000000447034836
31
0
0
LINE
5
130
100
AcDbEntity
8
0
100
AcDbLine
10
93.200000312924374
20
21.300000447034833
30
0
11
94.200000312924374
21
21.300000447034833
31
0
0
LINE
5
131
100
AcDbEntity
8
0
100
AcDbLine
10
72.000000312924371
20
25.000000447034836
30
0
11
91.200000312924374
21
25.000000447034836
31
0
0
LINE
5
132
100
AcDbEntity
8
0
100
AcDbLine
10
70.571579155857705
20
30.271007657046329
30
0
11
80.314736841724383
21
34.890608283965882
31
0
0
LINE
5
133
100
AcDbEntity
8
0
100
AcDbLine
10
82.885263784124362
20
34.890608283965882
30
0
11
92.628421469991039
21
30.271007657046354
31
0
0
ARC
5
134
100
AcDbEntity
8
0
100
AcDbCircle
10
81.600000312924379
20
32.179870781071344
30
0
40
3.0000000000000009
100
AcDbArc
50
64.632595537530662
51
115.36740446246962
0
ARC
5
135
100
AcDbEntity
8
0
100
AcDbCircle
10
92.200000312924445
20
29.367428489414888
30
0
40
0.99999999999992539
100
AcDbArc
50
0
51
64.63259553753295
0
ARC
5
136
100
AcDbEntity
8
0
100
AcDbCircle
10
71.000000312924357
20
29.367428489414831
30
0
40
0.99999999999997935
100
AcDbArc
50
115.36740446246921
51
180
0
ARC
5
137
100
AcDbEntity
8
0
100
AcDbCircle
10
93.568070857751664
20
52.686053879861923
30
0
40
0.99999999999997868
100
AcDbArc
50
0
51
66.418348855150469
0
ARC
5
138
100
AcDbEntity
8
0
100
AcDbCircle
10
81.968070857751641
20
55.567309312156979
30
0
40
3.0000000000000608
100
AcDbArc
50
66.418348855150583
51
113.58165114484942
0
LINE
5
139
100
AcDbEntity
8
0
100
AcDbLine
10
83.168237504029193
20
58.316781992720159
30
0
11
93.968126406510834
21
53.602544773382945
31
0
0
LINE
5
140
100
AcDbEntity
8
0
100
AcDbLine
10
94.56807085775165
20
52.686053879861916
30
0
11
94.56807085775165
21
48.34066425895243
31
0
0
LINE
5
141
100
AcDbEntity
8
0
100
AcDbLine
10
92.56807085775165
20
44.640664258952434
30
0
11
92.56807085775165
21
48.34066425895243
31
0
0
LINE
5
142
100
AcDbEntity
8
0
100
AcDbLine
10
94.56807085775165
20
44.640664258952434
30
0
11
92.56807085775165
21
44.640664258952434
31
0
0
LINE
5
143
100
AcDbEntity
8
0
100
AcDbLine
10
95.568070857751636
20
48.34066425895243
30
0
11
94.56807085775165
21
48.34066425895243
31
0
0
LINE
5
144
100
AcDbEntity
8
0
100
AcDbLine
10
94.56807085775165
20
44.640664258952434
30
0
11
95.568070857751636
21
44.640664258952434
31
0
0
LINE
5
145
100
AcDbEntity
8
0
100
AcDbLine
10
95.568070857751636
20
44.640664258952434
30
0
11
95.568070857751636
21
48.34066425895243
31
0
0
ARC
5
146
100
AcDbEntity
8
0
100
AcDbCircle
10
70.368070857751633
20
52.686053879861909
30
0
40
0.9999999999999778
100
AcDbArc
50
113.58165114484953
51
180
0
LINE
5
147
100
AcDbEntity
8
0
100
AcDbLine
10
69.968015308992463
20
53.602544773382931
30
0
11
80.767904211474089
21
58.316781992720159
31
0
0
LINE
5
148
100
AcDbEntity
8
0
100
AcDbLine
10
69.368070857751647
20
44.640664258952434
30
0
11
71.368070857751647
21
44.640664258952434
31
0
0
LINE
5
149
100
AcDbEntity
8
0
100
AcDbLine
10
71.368070857751647
20
44.640664258952434
30
0
11
71.368070857751647
21
48.340664258952437
31
0
0
LINE
5
150
100
AcDbEntity
8
0
100
AcDbLine
10
68.368070857751647
20
48.340664258952437
30
0
11
69.368070857751647
21
48.340664258952437
31
0
0
LINE
5
151
100
AcDbEntity
8
0
100
AcDbLine
10
69.368070857751647
20
52.686053879861902
30
0
11
69.368070857751647
21
48.340664258952437
31
0
0
LINE
5
152
100
AcDbEntity
8
0
100
AcDbLine
10
68.368070857751647
20
44.640664258952434
30
0
11
68.368070857751647
21
48.340664258952437
31
0
0
LINE
5
153
100
AcDbEntity
8
0
100
AcDbLine
10
69.368070857751647
20
44.640664258952434
30
0
11
68.368070857751647
21
44.640664258952434
31
0
0
LINE
5
154
100
AcDbEntity
8
0
100
AcDbLine
10
71.368070857751647
20
48.340664258952437
30
0
11
92.56807085775165
21
48.34066425895243
31
0
0
ENDSEC
0
SECTION
2
OBJECTS
0
DICTIONARY
5
C
100
AcDbDictionary
3
ACAD_GROUP
350
D
3
ACAD_MLINESTYLE
350
17
0
DICTIONARY
5
D
100
AcDbDictionary
0
DICTIONARY
5
1A
330
C
100
AcDbDictionary
0
DICTIONARY
5
17
100
AcDbDictionary
0
ENDSEC
0
EOF
