G75*
%MOIN*%
%OFA0B0*%
%FSLAX25Y25*%
%IPPOS*%
%LPD*%
%AMOC8*
5,1,8,0,0,1.08239X$1,22.5*
%
%ADD10R,0.05906X0.03543*%
%ADD11R,0.05118X0.05906*%
%ADD12R,0.05906X0.05118*%
%ADD13R,0.03346X0.03937*%
D10*
X0030704Y0102604D03*
X0030704Y0115596D03*
X0049996Y0115596D03*
X0049996Y0102604D03*
G36*
X0058145Y0108969D02*
X0063694Y0106949D01*
X0062483Y0103621D01*
X0056934Y0105641D01*
X0058145Y0108969D01*
G37*
G36*
X0062589Y0121177D02*
X0068138Y0119157D01*
X0066927Y0115829D01*
X0061378Y0117849D01*
X0062589Y0121177D01*
G37*
G36*
X0076273Y0102371D02*
X0081822Y0100351D01*
X0080611Y0097023D01*
X0075062Y0099043D01*
X0076273Y0102371D01*
G37*
G36*
X0080717Y0114579D02*
X0086266Y0112559D01*
X0085055Y0109231D01*
X0079506Y0111251D01*
X0080717Y0114579D01*
G37*
X0095079Y0115596D03*
X0095079Y0102604D03*
X0114371Y0102604D03*
X0114371Y0115596D03*
G36*
X0121309Y0112559D02*
X0126858Y0114579D01*
X0128069Y0111251D01*
X0122520Y0109231D01*
X0121309Y0112559D01*
G37*
G36*
X0125753Y0100351D02*
X0131302Y0102371D01*
X0132513Y0099043D01*
X0126964Y0097023D01*
X0125753Y0100351D01*
G37*
G36*
X0139437Y0119157D02*
X0144986Y0121177D01*
X0146197Y0117849D01*
X0140648Y0115829D01*
X0139437Y0119157D01*
G37*
G36*
X0143881Y0106949D02*
X0149430Y0108969D01*
X0150641Y0105641D01*
X0145092Y0103621D01*
X0143881Y0106949D01*
G37*
X0159454Y0102604D03*
X0159454Y0115596D03*
X0178746Y0115596D03*
X0178746Y0102604D03*
X0140046Y0165104D03*
X0140046Y0178096D03*
X0120754Y0178096D03*
X0120754Y0165104D03*
X0088946Y0165104D03*
X0088946Y0178096D03*
X0069654Y0178096D03*
X0069654Y0165104D03*
G36*
X0063253Y0225351D02*
X0068802Y0227371D01*
X0070013Y0224043D01*
X0064464Y0222023D01*
X0063253Y0225351D01*
G37*
G36*
X0058809Y0237559D02*
X0064358Y0239579D01*
X0065569Y0236251D01*
X0060020Y0234231D01*
X0058809Y0237559D01*
G37*
X0049996Y0240596D03*
X0049996Y0227604D03*
X0030704Y0227604D03*
X0030704Y0240596D03*
G36*
X0076937Y0244157D02*
X0082486Y0246177D01*
X0083697Y0242849D01*
X0078148Y0240829D01*
X0076937Y0244157D01*
G37*
G36*
X0081381Y0231949D02*
X0086930Y0233969D01*
X0088141Y0230641D01*
X0082592Y0228621D01*
X0081381Y0231949D01*
G37*
X0095079Y0227604D03*
X0095079Y0240596D03*
X0114371Y0240596D03*
X0114371Y0227604D03*
G36*
X0123145Y0233969D02*
X0128694Y0231949D01*
X0127483Y0228621D01*
X0121934Y0230641D01*
X0123145Y0233969D01*
G37*
G36*
X0127589Y0246177D02*
X0133138Y0244157D01*
X0131927Y0240829D01*
X0126378Y0242849D01*
X0127589Y0246177D01*
G37*
G36*
X0141273Y0227371D02*
X0146822Y0225351D01*
X0145611Y0222023D01*
X0140062Y0224043D01*
X0141273Y0227371D01*
G37*
G36*
X0145717Y0239579D02*
X0151266Y0237559D01*
X0150055Y0234231D01*
X0144506Y0236251D01*
X0145717Y0239579D01*
G37*
X0159454Y0240596D03*
X0159454Y0227604D03*
X0178746Y0227604D03*
X0178746Y0240596D03*
X0114346Y0290104D03*
X0114346Y0303096D03*
X0095054Y0303096D03*
X0095054Y0290104D03*
X0095054Y0053096D03*
X0095054Y0040104D03*
X0114346Y0040104D03*
X0114346Y0053096D03*
D11*
X0041610Y0094100D03*
X0049090Y0094100D03*
X0070360Y0089100D03*
X0077840Y0089100D03*
X0107860Y0089100D03*
X0115340Y0089100D03*
X0139110Y0089100D03*
X0146590Y0089100D03*
X0170360Y0094100D03*
X0177840Y0094100D03*
X0131590Y0040350D03*
X0124110Y0040350D03*
X0107840Y0166600D03*
X0100360Y0166600D03*
X0106610Y0215350D03*
X0114090Y0215350D03*
X0135360Y0215350D03*
X0142840Y0215350D03*
X0170360Y0217850D03*
X0177840Y0217850D03*
X0156590Y0166600D03*
X0149110Y0166600D03*
X0085340Y0215350D03*
X0077860Y0215350D03*
X0049090Y0217850D03*
X0041610Y0217850D03*
X0122060Y0289750D03*
X0129540Y0289750D03*
D12*
X0049100Y0290360D03*
X0049100Y0297840D03*
D13*
X0180655Y0053490D03*
X0187545Y0053490D03*
X0187545Y0039710D03*
X0180655Y0039710D03*
M02*
