%
M48
M72
T01C0.02165
T02C0.02362
T03C0.04400
T04C0.10000
%
T01
X49800Y34400
X49602Y59100
X72850Y70350
X157850Y195350
X179100Y197850
X161600Y289100
X72850Y276600
X189100Y64100
X169100Y46600
X159100Y55350
X185350Y30350
T02
X34100Y30350
X30350Y64100
X59100Y124100
X104100Y109100
X120350Y105350
X142850Y139100
X179100Y64100
X164100Y40350
X95350Y209100
X89100Y239100
X71600Y219100
T03
X34100Y289100
X34100Y299100
X34100Y309100
X179100Y309100
X179100Y299100
X179100Y289100
T04
X176600Y171600
X36600Y171600
M30
