G75*
%MOIN*%
%OFA0B0*%
%FSLAX25Y25*%
%IPPOS*%
%LPD*%
%AMOC8*
5,1,8,0,0,1.08239X$1,22.5*
%
%ADD10C,0.00300*%
%ADD11C,0.00500*%
%ADD12C,0.00200*%
%ADD13C,0.00800*%
D10*
X0053851Y0092650D02*
X0053368Y0093134D01*
X0053368Y0095069D01*
X0053851Y0095552D01*
X0054819Y0095552D01*
X0055303Y0095069D01*
X0056314Y0094101D02*
X0056314Y0093134D01*
X0056798Y0092650D01*
X0057765Y0092650D01*
X0058249Y0093134D01*
X0058249Y0093617D01*
X0057765Y0094101D01*
X0056314Y0094101D01*
X0057282Y0095069D01*
X0058249Y0095552D01*
X0055303Y0093134D02*
X0054819Y0092650D01*
X0053851Y0092650D01*
X0041951Y0109225D02*
X0040984Y0109225D01*
X0040500Y0109709D01*
X0040500Y0110676D02*
X0041467Y0111160D01*
X0041951Y0111160D01*
X0042435Y0110676D01*
X0042435Y0109709D01*
X0041951Y0109225D01*
X0040500Y0110676D02*
X0040500Y0112127D01*
X0042435Y0112127D01*
X0039488Y0109225D02*
X0037553Y0109225D01*
X0037553Y0112127D01*
X0067330Y0111494D02*
X0067330Y0108591D01*
X0069265Y0108591D01*
X0070277Y0108591D02*
X0072212Y0108591D01*
X0071244Y0108591D02*
X0071244Y0111494D01*
X0070277Y0110526D01*
X0073223Y0110526D02*
X0074191Y0111494D01*
X0074191Y0108591D01*
X0075158Y0108591D02*
X0073223Y0108591D01*
X0082601Y0090552D02*
X0082118Y0090069D01*
X0082118Y0088134D01*
X0082601Y0087650D01*
X0083569Y0087650D01*
X0084053Y0088134D01*
X0085064Y0087650D02*
X0086999Y0087650D01*
X0086032Y0087650D02*
X0086032Y0090552D01*
X0085064Y0089585D01*
X0084053Y0090069D02*
X0083569Y0090552D01*
X0082601Y0090552D01*
X0088011Y0089585D02*
X0088978Y0090552D01*
X0088978Y0087650D01*
X0088011Y0087650D02*
X0089946Y0087650D01*
X0100455Y0109225D02*
X0102390Y0109225D01*
X0103402Y0109225D02*
X0105337Y0109225D01*
X0104369Y0109225D02*
X0104369Y0112127D01*
X0103402Y0111160D01*
X0106348Y0110676D02*
X0108283Y0110676D01*
X0107799Y0109225D02*
X0107799Y0112127D01*
X0106348Y0110676D01*
X0100455Y0112127D02*
X0100455Y0109225D01*
X0119618Y0090069D02*
X0119618Y0088134D01*
X0120101Y0087650D01*
X0121069Y0087650D01*
X0121553Y0088134D01*
X0122564Y0087650D02*
X0124499Y0087650D01*
X0123532Y0087650D02*
X0123532Y0090552D01*
X0122564Y0089585D01*
X0121553Y0090069D02*
X0121069Y0090552D01*
X0120101Y0090552D01*
X0119618Y0090069D01*
X0125511Y0089101D02*
X0127446Y0089101D01*
X0126962Y0087650D02*
X0126962Y0090552D01*
X0125511Y0089101D01*
X0131705Y0107650D02*
X0133640Y0107650D01*
X0134652Y0107650D02*
X0136587Y0107650D01*
X0135619Y0107650D02*
X0135619Y0110552D01*
X0134652Y0109585D01*
X0131705Y0110552D02*
X0131705Y0107650D01*
X0137598Y0107650D02*
X0139533Y0109585D01*
X0139533Y0110069D01*
X0139049Y0110552D01*
X0138082Y0110552D01*
X0137598Y0110069D01*
X0137598Y0107650D02*
X0139533Y0107650D01*
X0151351Y0090552D02*
X0150868Y0090069D01*
X0150868Y0088134D01*
X0151351Y0087650D01*
X0152319Y0087650D01*
X0152803Y0088134D01*
X0153814Y0087650D02*
X0155749Y0087650D01*
X0154782Y0087650D02*
X0154782Y0090552D01*
X0153814Y0089585D01*
X0152803Y0090069D02*
X0152319Y0090552D01*
X0151351Y0090552D01*
X0156761Y0090069D02*
X0157244Y0090552D01*
X0158212Y0090552D01*
X0158696Y0090069D01*
X0158696Y0089585D01*
X0156761Y0087650D01*
X0158696Y0087650D01*
X0166303Y0109225D02*
X0168238Y0109225D01*
X0169250Y0109709D02*
X0169734Y0109225D01*
X0170701Y0109225D01*
X0171185Y0109709D01*
X0171185Y0110192D01*
X0170701Y0110676D01*
X0170217Y0110676D01*
X0170701Y0110676D02*
X0171185Y0111160D01*
X0171185Y0111644D01*
X0170701Y0112127D01*
X0169734Y0112127D01*
X0169250Y0111644D01*
X0166303Y0112127D02*
X0166303Y0109225D01*
X0182118Y0095069D02*
X0182118Y0093134D01*
X0182601Y0092650D01*
X0183569Y0092650D01*
X0184053Y0093134D01*
X0185064Y0093134D02*
X0185548Y0092650D01*
X0186515Y0092650D01*
X0186999Y0093134D01*
X0186999Y0093617D01*
X0186515Y0094101D01*
X0186032Y0094101D01*
X0186515Y0094101D02*
X0186999Y0094585D01*
X0186999Y0095069D01*
X0186515Y0095552D01*
X0185548Y0095552D01*
X0185064Y0095069D01*
X0184053Y0095069D02*
X0183569Y0095552D01*
X0182601Y0095552D01*
X0182118Y0095069D01*
X0140749Y0041802D02*
X0140749Y0041319D01*
X0138814Y0039384D01*
X0138814Y0038900D01*
X0137803Y0039384D02*
X0137319Y0038900D01*
X0136351Y0038900D01*
X0135868Y0039384D01*
X0135868Y0041319D01*
X0136351Y0041802D01*
X0137319Y0041802D01*
X0137803Y0041319D01*
X0138814Y0041802D02*
X0140749Y0041802D01*
X0106785Y0048176D02*
X0104850Y0048176D01*
X0106301Y0049627D01*
X0106301Y0046725D01*
X0103838Y0046725D02*
X0101903Y0046725D01*
X0101903Y0049627D01*
X0112601Y0165150D02*
X0113569Y0165150D01*
X0114053Y0165634D01*
X0115064Y0165150D02*
X0116999Y0165150D01*
X0116032Y0165150D02*
X0116032Y0168052D01*
X0115064Y0167085D01*
X0114053Y0167569D02*
X0113569Y0168052D01*
X0112601Y0168052D01*
X0112118Y0167569D01*
X0112118Y0165634D01*
X0112601Y0165150D01*
X0127603Y0171725D02*
X0129538Y0171725D01*
X0130550Y0172209D02*
X0130550Y0172692D01*
X0131034Y0173176D01*
X0132001Y0173176D01*
X0132485Y0172692D01*
X0132485Y0172209D01*
X0132001Y0171725D01*
X0131034Y0171725D01*
X0130550Y0172209D01*
X0131034Y0173176D02*
X0130550Y0173660D01*
X0130550Y0174144D01*
X0131034Y0174627D01*
X0132001Y0174627D01*
X0132485Y0174144D01*
X0132485Y0173660D01*
X0132001Y0173176D01*
X0127603Y0174627D02*
X0127603Y0171725D01*
X0125712Y0213900D02*
X0124744Y0213900D01*
X0124261Y0214384D01*
X0123249Y0213900D02*
X0121314Y0213900D01*
X0122282Y0213900D02*
X0122282Y0216802D01*
X0121314Y0215835D01*
X0120303Y0216319D02*
X0119819Y0216802D01*
X0118851Y0216802D01*
X0118368Y0216319D01*
X0118368Y0214384D01*
X0118851Y0213900D01*
X0119819Y0213900D01*
X0120303Y0214384D01*
X0124261Y0216319D02*
X0124744Y0216802D01*
X0125712Y0216802D01*
X0126196Y0216319D01*
X0126196Y0215835D01*
X0125712Y0215351D01*
X0126196Y0214867D01*
X0126196Y0214384D01*
X0125712Y0213900D01*
X0125712Y0215351D02*
X0125228Y0215351D01*
X0133803Y0233591D02*
X0135738Y0233591D01*
X0136750Y0234075D02*
X0137234Y0233591D01*
X0138201Y0233591D01*
X0138685Y0234075D01*
X0138685Y0236010D01*
X0138201Y0236494D01*
X0137234Y0236494D01*
X0136750Y0236010D01*
X0136750Y0235526D01*
X0137234Y0235042D01*
X0138685Y0235042D01*
X0133803Y0236494D02*
X0133803Y0233591D01*
X0147601Y0216802D02*
X0147118Y0216319D01*
X0147118Y0214384D01*
X0147601Y0213900D01*
X0148569Y0213900D01*
X0149053Y0214384D01*
X0150064Y0214384D02*
X0150548Y0213900D01*
X0151515Y0213900D01*
X0151999Y0214384D01*
X0151999Y0216319D01*
X0151515Y0216802D01*
X0150548Y0216802D01*
X0150064Y0216319D01*
X0150064Y0215835D01*
X0150548Y0215351D01*
X0151999Y0215351D01*
X0149053Y0216319D02*
X0148569Y0216802D01*
X0147601Y0216802D01*
X0166303Y0234225D02*
X0168238Y0234225D01*
X0169250Y0234225D02*
X0171185Y0236160D01*
X0171185Y0236644D01*
X0170701Y0237127D01*
X0169734Y0237127D01*
X0169250Y0236644D01*
X0169250Y0234225D02*
X0171185Y0234225D01*
X0166303Y0234225D02*
X0166303Y0237127D01*
X0182601Y0219302D02*
X0182118Y0218819D01*
X0182118Y0216884D01*
X0182601Y0216400D01*
X0183569Y0216400D01*
X0184053Y0216884D01*
X0185064Y0216884D02*
X0185548Y0216400D01*
X0186515Y0216400D01*
X0186999Y0216884D01*
X0186999Y0217851D01*
X0186515Y0218335D01*
X0186032Y0218335D01*
X0185064Y0217851D01*
X0185064Y0219302D01*
X0186999Y0219302D01*
X0184053Y0218819D02*
X0183569Y0219302D01*
X0182601Y0219302D01*
X0165265Y0168052D02*
X0164298Y0168052D01*
X0163814Y0167569D01*
X0163814Y0167085D01*
X0164298Y0166601D01*
X0165265Y0166601D01*
X0165749Y0166117D01*
X0165749Y0165634D01*
X0165265Y0165150D01*
X0164298Y0165150D01*
X0163814Y0165634D01*
X0163814Y0166117D01*
X0164298Y0166601D01*
X0165265Y0166601D02*
X0165749Y0167085D01*
X0165749Y0167569D01*
X0165265Y0168052D01*
X0162803Y0167569D02*
X0162319Y0168052D01*
X0161351Y0168052D01*
X0160868Y0167569D01*
X0160868Y0165634D01*
X0161351Y0165150D01*
X0162319Y0165150D01*
X0162803Y0165634D01*
X0107799Y0234028D02*
X0106832Y0234028D01*
X0106348Y0234512D01*
X0105337Y0234028D02*
X0103402Y0234028D01*
X0104369Y0234028D02*
X0104369Y0236930D01*
X0103402Y0235963D01*
X0102390Y0234028D02*
X0100455Y0234028D01*
X0100455Y0236930D01*
X0106348Y0236447D02*
X0106832Y0236930D01*
X0107799Y0236930D01*
X0108283Y0236447D01*
X0108283Y0235963D01*
X0107799Y0235479D01*
X0108283Y0234995D01*
X0108283Y0234512D01*
X0107799Y0234028D01*
X0107799Y0235479D02*
X0107316Y0235479D01*
X0096962Y0216802D02*
X0097446Y0216319D01*
X0095511Y0214384D01*
X0095994Y0213900D01*
X0096962Y0213900D01*
X0097446Y0214384D01*
X0097446Y0216319D01*
X0096962Y0216802D02*
X0095994Y0216802D01*
X0095511Y0216319D01*
X0095511Y0214384D01*
X0094499Y0213900D02*
X0092564Y0213900D01*
X0093532Y0213900D02*
X0093532Y0216802D01*
X0092564Y0215835D01*
X0091553Y0216319D02*
X0091069Y0216802D01*
X0090101Y0216802D01*
X0089618Y0216319D01*
X0089618Y0214384D01*
X0090101Y0213900D01*
X0091069Y0213900D01*
X0091553Y0214384D01*
X0076549Y0232650D02*
X0075582Y0232650D01*
X0075098Y0233134D01*
X0077033Y0235069D01*
X0077033Y0233134D01*
X0076549Y0232650D01*
X0075098Y0233134D02*
X0075098Y0235069D01*
X0075582Y0235552D01*
X0076549Y0235552D01*
X0077033Y0235069D01*
X0074087Y0232650D02*
X0072152Y0232650D01*
X0073119Y0232650D02*
X0073119Y0235552D01*
X0072152Y0234585D01*
X0071140Y0232650D02*
X0069205Y0232650D01*
X0069205Y0235552D01*
X0058249Y0217851D02*
X0056314Y0217851D01*
X0057765Y0219302D01*
X0057765Y0216400D01*
X0055303Y0216884D02*
X0054819Y0216400D01*
X0053851Y0216400D01*
X0053368Y0216884D01*
X0053368Y0218819D01*
X0053851Y0219302D01*
X0054819Y0219302D01*
X0055303Y0218819D01*
X0041951Y0234225D02*
X0042435Y0234709D01*
X0042435Y0235192D01*
X0041951Y0235676D01*
X0040500Y0235676D01*
X0040500Y0234709D01*
X0040984Y0234225D01*
X0041951Y0234225D01*
X0040500Y0235676D02*
X0041467Y0236644D01*
X0042435Y0237127D01*
X0039488Y0234225D02*
X0037553Y0234225D01*
X0037553Y0237127D01*
X0046054Y0282446D02*
X0045571Y0282929D01*
X0046054Y0282446D02*
X0047022Y0282446D01*
X0047506Y0282929D01*
X0047506Y0283413D01*
X0047022Y0283897D01*
X0046538Y0283897D01*
X0047022Y0283897D02*
X0047506Y0284381D01*
X0047506Y0284864D01*
X0047022Y0285348D01*
X0046054Y0285348D01*
X0045571Y0284864D01*
X0048517Y0284864D02*
X0049001Y0285348D01*
X0049968Y0285348D01*
X0050452Y0284864D01*
X0050452Y0284381D01*
X0049968Y0283897D01*
X0050452Y0283413D01*
X0050452Y0282929D01*
X0049968Y0282446D01*
X0049001Y0282446D01*
X0048517Y0282929D01*
X0049485Y0283897D02*
X0049968Y0283897D01*
X0051464Y0284864D02*
X0051947Y0285348D01*
X0052915Y0285348D01*
X0053399Y0284864D01*
X0051464Y0282929D01*
X0051947Y0282446D01*
X0052915Y0282446D01*
X0053399Y0282929D01*
X0053399Y0284864D01*
X0051464Y0284864D02*
X0051464Y0282929D01*
X0051574Y0303446D02*
X0049639Y0303446D01*
X0050606Y0303446D02*
X0050606Y0306348D01*
X0049639Y0305381D01*
X0048627Y0305865D02*
X0048627Y0304897D01*
X0048144Y0304413D01*
X0046692Y0304413D01*
X0046692Y0303446D02*
X0046692Y0306348D01*
X0048144Y0306348D01*
X0048627Y0305865D01*
X0049430Y0307025D02*
X0049430Y0310928D01*
X0046828Y0310928D02*
X0049430Y0307025D01*
X0047660Y0304413D02*
X0048627Y0303446D01*
X0046828Y0307025D02*
X0046828Y0310928D01*
X0045551Y0310928D02*
X0044250Y0310928D01*
X0044901Y0310928D02*
X0044901Y0307025D01*
X0045551Y0307025D02*
X0044250Y0307025D01*
X0025738Y0308434D02*
X0025738Y0309401D01*
X0024771Y0309401D01*
X0025738Y0308434D02*
X0025255Y0307950D01*
X0024287Y0307950D01*
X0023803Y0308434D01*
X0023803Y0310369D01*
X0024287Y0310852D01*
X0025255Y0310852D01*
X0025738Y0310369D01*
X0024955Y0300477D02*
X0023503Y0300477D01*
X0023503Y0297575D01*
X0024955Y0297575D01*
X0025438Y0298059D01*
X0025438Y0299994D01*
X0024955Y0300477D01*
X0025288Y0290677D02*
X0025288Y0288742D01*
X0024321Y0287775D01*
X0023353Y0288742D01*
X0023353Y0290677D01*
X0076503Y0174627D02*
X0076503Y0171725D01*
X0078438Y0171725D01*
X0079450Y0171725D02*
X0079450Y0172209D01*
X0081385Y0174144D01*
X0081385Y0174627D01*
X0079450Y0174627D01*
X0134301Y0288300D02*
X0135269Y0288300D01*
X0135753Y0288784D01*
X0136764Y0288300D02*
X0138699Y0290235D01*
X0138699Y0290719D01*
X0138215Y0291202D01*
X0137248Y0291202D01*
X0136764Y0290719D01*
X0135753Y0290719D02*
X0135269Y0291202D01*
X0134301Y0291202D01*
X0133818Y0290719D01*
X0133818Y0288784D01*
X0134301Y0288300D01*
X0136764Y0288300D02*
X0138699Y0288300D01*
X0157648Y0307676D02*
X0158299Y0307025D01*
X0159600Y0307025D01*
X0160250Y0307676D01*
X0160250Y0310278D01*
X0159600Y0310928D01*
X0158299Y0310928D01*
X0157648Y0310278D01*
X0157648Y0307676D01*
X0161515Y0307676D02*
X0162166Y0307025D01*
X0163467Y0307025D01*
X0164118Y0307676D01*
X0164118Y0310928D01*
X0165383Y0310928D02*
X0167985Y0310928D01*
X0166684Y0310928D02*
X0166684Y0307025D01*
X0161515Y0307676D02*
X0161515Y0310928D01*
X0187700Y0310369D02*
X0187700Y0308434D01*
X0188184Y0307950D01*
X0189151Y0307950D01*
X0189635Y0308434D01*
X0189635Y0309401D01*
X0188667Y0309401D01*
X0187700Y0310369D02*
X0188184Y0310852D01*
X0189151Y0310852D01*
X0189635Y0310369D01*
X0189776Y0300477D02*
X0188325Y0300477D01*
X0188325Y0297575D01*
X0189776Y0297575D01*
X0190260Y0298059D01*
X0190260Y0299994D01*
X0189776Y0300477D01*
X0190110Y0290677D02*
X0190110Y0288742D01*
X0189142Y0287775D01*
X0188175Y0288742D01*
X0188175Y0290677D01*
X0106785Y0296225D02*
X0104850Y0296225D01*
X0105817Y0296225D02*
X0105817Y0299127D01*
X0104850Y0298160D01*
X0103838Y0296225D02*
X0101903Y0296225D01*
X0101903Y0299127D01*
D11*
X0097927Y0296600D02*
X0097929Y0296766D01*
X0097935Y0296932D01*
X0097945Y0297098D01*
X0097960Y0297264D01*
X0097978Y0297429D01*
X0098000Y0297594D01*
X0098027Y0297758D01*
X0098057Y0297921D01*
X0098092Y0298084D01*
X0098130Y0298246D01*
X0098172Y0298406D01*
X0098219Y0298566D01*
X0098269Y0298725D01*
X0098323Y0298882D01*
X0098381Y0299038D01*
X0098443Y0299192D01*
X0098508Y0299345D01*
X0098577Y0299496D01*
X0098650Y0299645D01*
X0098727Y0299793D01*
X0098807Y0299938D01*
X0098891Y0300082D01*
X0098978Y0300224D01*
X0099068Y0300363D01*
X0099162Y0300500D01*
X0099260Y0300635D01*
X0099361Y0300767D01*
X0099464Y0300897D01*
X0099571Y0301024D01*
X0099682Y0301148D01*
X0099795Y0301270D01*
X0099911Y0301389D01*
X0100030Y0301505D01*
X0100152Y0301618D01*
X0100276Y0301729D01*
X0100403Y0301836D01*
X0100533Y0301939D01*
X0100665Y0302040D01*
X0100800Y0302138D01*
X0100937Y0302232D01*
X0101076Y0302322D01*
X0101218Y0302409D01*
X0101362Y0302493D01*
X0101507Y0302573D01*
X0101655Y0302650D01*
X0101804Y0302723D01*
X0101955Y0302792D01*
X0102108Y0302857D01*
X0102262Y0302919D01*
X0102418Y0302977D01*
X0102575Y0303031D01*
X0102734Y0303081D01*
X0102894Y0303128D01*
X0103054Y0303170D01*
X0103216Y0303208D01*
X0103379Y0303243D01*
X0103542Y0303273D01*
X0103706Y0303300D01*
X0103871Y0303322D01*
X0104036Y0303340D01*
X0104202Y0303355D01*
X0104368Y0303365D01*
X0104534Y0303371D01*
X0104700Y0303373D01*
X0104866Y0303371D01*
X0105032Y0303365D01*
X0105198Y0303355D01*
X0105364Y0303340D01*
X0105529Y0303322D01*
X0105694Y0303300D01*
X0105858Y0303273D01*
X0106021Y0303243D01*
X0106184Y0303208D01*
X0106346Y0303170D01*
X0106506Y0303128D01*
X0106666Y0303081D01*
X0106825Y0303031D01*
X0106982Y0302977D01*
X0107138Y0302919D01*
X0107292Y0302857D01*
X0107445Y0302792D01*
X0107596Y0302723D01*
X0107745Y0302650D01*
X0107893Y0302573D01*
X0108038Y0302493D01*
X0108182Y0302409D01*
X0108324Y0302322D01*
X0108463Y0302232D01*
X0108600Y0302138D01*
X0108735Y0302040D01*
X0108867Y0301939D01*
X0108997Y0301836D01*
X0109124Y0301729D01*
X0109248Y0301618D01*
X0109370Y0301505D01*
X0109489Y0301389D01*
X0109605Y0301270D01*
X0109718Y0301148D01*
X0109829Y0301024D01*
X0109936Y0300897D01*
X0110039Y0300767D01*
X0110140Y0300635D01*
X0110238Y0300500D01*
X0110332Y0300363D01*
X0110422Y0300224D01*
X0110509Y0300082D01*
X0110593Y0299938D01*
X0110673Y0299793D01*
X0110750Y0299645D01*
X0110823Y0299496D01*
X0110892Y0299345D01*
X0110957Y0299192D01*
X0111019Y0299038D01*
X0111077Y0298882D01*
X0111131Y0298725D01*
X0111181Y0298566D01*
X0111228Y0298406D01*
X0111270Y0298246D01*
X0111308Y0298084D01*
X0111343Y0297921D01*
X0111373Y0297758D01*
X0111400Y0297594D01*
X0111422Y0297429D01*
X0111440Y0297264D01*
X0111455Y0297098D01*
X0111465Y0296932D01*
X0111471Y0296766D01*
X0111473Y0296600D01*
X0111471Y0296434D01*
X0111465Y0296268D01*
X0111455Y0296102D01*
X0111440Y0295936D01*
X0111422Y0295771D01*
X0111400Y0295606D01*
X0111373Y0295442D01*
X0111343Y0295279D01*
X0111308Y0295116D01*
X0111270Y0294954D01*
X0111228Y0294794D01*
X0111181Y0294634D01*
X0111131Y0294475D01*
X0111077Y0294318D01*
X0111019Y0294162D01*
X0110957Y0294008D01*
X0110892Y0293855D01*
X0110823Y0293704D01*
X0110750Y0293555D01*
X0110673Y0293407D01*
X0110593Y0293262D01*
X0110509Y0293118D01*
X0110422Y0292976D01*
X0110332Y0292837D01*
X0110238Y0292700D01*
X0110140Y0292565D01*
X0110039Y0292433D01*
X0109936Y0292303D01*
X0109829Y0292176D01*
X0109718Y0292052D01*
X0109605Y0291930D01*
X0109489Y0291811D01*
X0109370Y0291695D01*
X0109248Y0291582D01*
X0109124Y0291471D01*
X0108997Y0291364D01*
X0108867Y0291261D01*
X0108735Y0291160D01*
X0108600Y0291062D01*
X0108463Y0290968D01*
X0108324Y0290878D01*
X0108182Y0290791D01*
X0108038Y0290707D01*
X0107893Y0290627D01*
X0107745Y0290550D01*
X0107596Y0290477D01*
X0107445Y0290408D01*
X0107292Y0290343D01*
X0107138Y0290281D01*
X0106982Y0290223D01*
X0106825Y0290169D01*
X0106666Y0290119D01*
X0106506Y0290072D01*
X0106346Y0290030D01*
X0106184Y0289992D01*
X0106021Y0289957D01*
X0105858Y0289927D01*
X0105694Y0289900D01*
X0105529Y0289878D01*
X0105364Y0289860D01*
X0105198Y0289845D01*
X0105032Y0289835D01*
X0104866Y0289829D01*
X0104700Y0289827D01*
X0104534Y0289829D01*
X0104368Y0289835D01*
X0104202Y0289845D01*
X0104036Y0289860D01*
X0103871Y0289878D01*
X0103706Y0289900D01*
X0103542Y0289927D01*
X0103379Y0289957D01*
X0103216Y0289992D01*
X0103054Y0290030D01*
X0102894Y0290072D01*
X0102734Y0290119D01*
X0102575Y0290169D01*
X0102418Y0290223D01*
X0102262Y0290281D01*
X0102108Y0290343D01*
X0101955Y0290408D01*
X0101804Y0290477D01*
X0101655Y0290550D01*
X0101507Y0290627D01*
X0101362Y0290707D01*
X0101218Y0290791D01*
X0101076Y0290878D01*
X0100937Y0290968D01*
X0100800Y0291062D01*
X0100665Y0291160D01*
X0100533Y0291261D01*
X0100403Y0291364D01*
X0100276Y0291471D01*
X0100152Y0291582D01*
X0100030Y0291695D01*
X0099911Y0291811D01*
X0099795Y0291930D01*
X0099682Y0292052D01*
X0099571Y0292176D01*
X0099464Y0292303D01*
X0099361Y0292433D01*
X0099260Y0292565D01*
X0099162Y0292700D01*
X0099068Y0292837D01*
X0098978Y0292976D01*
X0098891Y0293118D01*
X0098807Y0293262D01*
X0098727Y0293407D01*
X0098650Y0293555D01*
X0098577Y0293704D01*
X0098508Y0293855D01*
X0098443Y0294008D01*
X0098381Y0294162D01*
X0098323Y0294318D01*
X0098269Y0294475D01*
X0098219Y0294634D01*
X0098172Y0294794D01*
X0098130Y0294954D01*
X0098092Y0295116D01*
X0098057Y0295279D01*
X0098027Y0295442D01*
X0098000Y0295606D01*
X0097978Y0295771D01*
X0097960Y0295936D01*
X0097945Y0296102D01*
X0097935Y0296268D01*
X0097929Y0296434D01*
X0097927Y0296600D01*
X0094857Y0302899D02*
X0098401Y0306443D01*
X0099582Y0307624D01*
X0098007Y0309198D01*
X0094857Y0306443D01*
X0098401Y0306443D01*
X0114543Y0306443D01*
X0114543Y0286757D01*
X0094857Y0286757D01*
X0094857Y0302899D01*
X0094857Y0306443D01*
X0098032Y0246698D02*
X0094882Y0243943D01*
X0098426Y0243943D01*
X0099607Y0245124D01*
X0098032Y0246698D01*
X0098426Y0243943D02*
X0094882Y0240399D01*
X0094882Y0243943D01*
X0094882Y0240399D02*
X0094882Y0224257D01*
X0114568Y0224257D01*
X0114568Y0243943D01*
X0098426Y0243943D01*
X0097952Y0234100D02*
X0097954Y0234266D01*
X0097960Y0234432D01*
X0097970Y0234598D01*
X0097985Y0234764D01*
X0098003Y0234929D01*
X0098025Y0235094D01*
X0098052Y0235258D01*
X0098082Y0235421D01*
X0098117Y0235584D01*
X0098155Y0235746D01*
X0098197Y0235906D01*
X0098244Y0236066D01*
X0098294Y0236225D01*
X0098348Y0236382D01*
X0098406Y0236538D01*
X0098468Y0236692D01*
X0098533Y0236845D01*
X0098602Y0236996D01*
X0098675Y0237145D01*
X0098752Y0237293D01*
X0098832Y0237438D01*
X0098916Y0237582D01*
X0099003Y0237724D01*
X0099093Y0237863D01*
X0099187Y0238000D01*
X0099285Y0238135D01*
X0099386Y0238267D01*
X0099489Y0238397D01*
X0099596Y0238524D01*
X0099707Y0238648D01*
X0099820Y0238770D01*
X0099936Y0238889D01*
X0100055Y0239005D01*
X0100177Y0239118D01*
X0100301Y0239229D01*
X0100428Y0239336D01*
X0100558Y0239439D01*
X0100690Y0239540D01*
X0100825Y0239638D01*
X0100962Y0239732D01*
X0101101Y0239822D01*
X0101243Y0239909D01*
X0101387Y0239993D01*
X0101532Y0240073D01*
X0101680Y0240150D01*
X0101829Y0240223D01*
X0101980Y0240292D01*
X0102133Y0240357D01*
X0102287Y0240419D01*
X0102443Y0240477D01*
X0102600Y0240531D01*
X0102759Y0240581D01*
X0102919Y0240628D01*
X0103079Y0240670D01*
X0103241Y0240708D01*
X0103404Y0240743D01*
X0103567Y0240773D01*
X0103731Y0240800D01*
X0103896Y0240822D01*
X0104061Y0240840D01*
X0104227Y0240855D01*
X0104393Y0240865D01*
X0104559Y0240871D01*
X0104725Y0240873D01*
X0104891Y0240871D01*
X0105057Y0240865D01*
X0105223Y0240855D01*
X0105389Y0240840D01*
X0105554Y0240822D01*
X0105719Y0240800D01*
X0105883Y0240773D01*
X0106046Y0240743D01*
X0106209Y0240708D01*
X0106371Y0240670D01*
X0106531Y0240628D01*
X0106691Y0240581D01*
X0106850Y0240531D01*
X0107007Y0240477D01*
X0107163Y0240419D01*
X0107317Y0240357D01*
X0107470Y0240292D01*
X0107621Y0240223D01*
X0107770Y0240150D01*
X0107918Y0240073D01*
X0108063Y0239993D01*
X0108207Y0239909D01*
X0108349Y0239822D01*
X0108488Y0239732D01*
X0108625Y0239638D01*
X0108760Y0239540D01*
X0108892Y0239439D01*
X0109022Y0239336D01*
X0109149Y0239229D01*
X0109273Y0239118D01*
X0109395Y0239005D01*
X0109514Y0238889D01*
X0109630Y0238770D01*
X0109743Y0238648D01*
X0109854Y0238524D01*
X0109961Y0238397D01*
X0110064Y0238267D01*
X0110165Y0238135D01*
X0110263Y0238000D01*
X0110357Y0237863D01*
X0110447Y0237724D01*
X0110534Y0237582D01*
X0110618Y0237438D01*
X0110698Y0237293D01*
X0110775Y0237145D01*
X0110848Y0236996D01*
X0110917Y0236845D01*
X0110982Y0236692D01*
X0111044Y0236538D01*
X0111102Y0236382D01*
X0111156Y0236225D01*
X0111206Y0236066D01*
X0111253Y0235906D01*
X0111295Y0235746D01*
X0111333Y0235584D01*
X0111368Y0235421D01*
X0111398Y0235258D01*
X0111425Y0235094D01*
X0111447Y0234929D01*
X0111465Y0234764D01*
X0111480Y0234598D01*
X0111490Y0234432D01*
X0111496Y0234266D01*
X0111498Y0234100D01*
X0111496Y0233934D01*
X0111490Y0233768D01*
X0111480Y0233602D01*
X0111465Y0233436D01*
X0111447Y0233271D01*
X0111425Y0233106D01*
X0111398Y0232942D01*
X0111368Y0232779D01*
X0111333Y0232616D01*
X0111295Y0232454D01*
X0111253Y0232294D01*
X0111206Y0232134D01*
X0111156Y0231975D01*
X0111102Y0231818D01*
X0111044Y0231662D01*
X0110982Y0231508D01*
X0110917Y0231355D01*
X0110848Y0231204D01*
X0110775Y0231055D01*
X0110698Y0230907D01*
X0110618Y0230762D01*
X0110534Y0230618D01*
X0110447Y0230476D01*
X0110357Y0230337D01*
X0110263Y0230200D01*
X0110165Y0230065D01*
X0110064Y0229933D01*
X0109961Y0229803D01*
X0109854Y0229676D01*
X0109743Y0229552D01*
X0109630Y0229430D01*
X0109514Y0229311D01*
X0109395Y0229195D01*
X0109273Y0229082D01*
X0109149Y0228971D01*
X0109022Y0228864D01*
X0108892Y0228761D01*
X0108760Y0228660D01*
X0108625Y0228562D01*
X0108488Y0228468D01*
X0108349Y0228378D01*
X0108207Y0228291D01*
X0108063Y0228207D01*
X0107918Y0228127D01*
X0107770Y0228050D01*
X0107621Y0227977D01*
X0107470Y0227908D01*
X0107317Y0227843D01*
X0107163Y0227781D01*
X0107007Y0227723D01*
X0106850Y0227669D01*
X0106691Y0227619D01*
X0106531Y0227572D01*
X0106371Y0227530D01*
X0106209Y0227492D01*
X0106046Y0227457D01*
X0105883Y0227427D01*
X0105719Y0227400D01*
X0105554Y0227378D01*
X0105389Y0227360D01*
X0105223Y0227345D01*
X0105057Y0227335D01*
X0104891Y0227329D01*
X0104725Y0227327D01*
X0104559Y0227329D01*
X0104393Y0227335D01*
X0104227Y0227345D01*
X0104061Y0227360D01*
X0103896Y0227378D01*
X0103731Y0227400D01*
X0103567Y0227427D01*
X0103404Y0227457D01*
X0103241Y0227492D01*
X0103079Y0227530D01*
X0102919Y0227572D01*
X0102759Y0227619D01*
X0102600Y0227669D01*
X0102443Y0227723D01*
X0102287Y0227781D01*
X0102133Y0227843D01*
X0101980Y0227908D01*
X0101829Y0227977D01*
X0101680Y0228050D01*
X0101532Y0228127D01*
X0101387Y0228207D01*
X0101243Y0228291D01*
X0101101Y0228378D01*
X0100962Y0228468D01*
X0100825Y0228562D01*
X0100690Y0228660D01*
X0100558Y0228761D01*
X0100428Y0228864D01*
X0100301Y0228971D01*
X0100177Y0229082D01*
X0100055Y0229195D01*
X0099936Y0229311D01*
X0099820Y0229430D01*
X0099707Y0229552D01*
X0099596Y0229676D01*
X0099489Y0229803D01*
X0099386Y0229933D01*
X0099285Y0230065D01*
X0099187Y0230200D01*
X0099093Y0230337D01*
X0099003Y0230476D01*
X0098916Y0230618D01*
X0098832Y0230762D01*
X0098752Y0230907D01*
X0098675Y0231055D01*
X0098602Y0231204D01*
X0098533Y0231355D01*
X0098468Y0231508D01*
X0098406Y0231662D01*
X0098348Y0231818D01*
X0098294Y0231975D01*
X0098244Y0232134D01*
X0098197Y0232294D01*
X0098155Y0232454D01*
X0098117Y0232616D01*
X0098082Y0232779D01*
X0098052Y0232942D01*
X0098025Y0233106D01*
X0098003Y0233271D01*
X0097985Y0233436D01*
X0097970Y0233602D01*
X0097960Y0233768D01*
X0097954Y0233934D01*
X0097952Y0234100D01*
X0086090Y0228217D02*
X0079358Y0246715D01*
X0064189Y0241194D01*
X0064895Y0242708D01*
X0062877Y0243650D01*
X0060860Y0239983D01*
X0064189Y0241194D01*
X0062072Y0236653D01*
X0060860Y0239983D01*
X0062072Y0236653D02*
X0067592Y0221485D01*
X0086090Y0228217D01*
X0066702Y0234100D02*
X0066704Y0234266D01*
X0066710Y0234432D01*
X0066720Y0234598D01*
X0066735Y0234764D01*
X0066753Y0234929D01*
X0066775Y0235094D01*
X0066802Y0235258D01*
X0066832Y0235421D01*
X0066867Y0235584D01*
X0066905Y0235746D01*
X0066947Y0235906D01*
X0066994Y0236066D01*
X0067044Y0236225D01*
X0067098Y0236382D01*
X0067156Y0236538D01*
X0067218Y0236692D01*
X0067283Y0236845D01*
X0067352Y0236996D01*
X0067425Y0237145D01*
X0067502Y0237293D01*
X0067582Y0237438D01*
X0067666Y0237582D01*
X0067753Y0237724D01*
X0067843Y0237863D01*
X0067937Y0238000D01*
X0068035Y0238135D01*
X0068136Y0238267D01*
X0068239Y0238397D01*
X0068346Y0238524D01*
X0068457Y0238648D01*
X0068570Y0238770D01*
X0068686Y0238889D01*
X0068805Y0239005D01*
X0068927Y0239118D01*
X0069051Y0239229D01*
X0069178Y0239336D01*
X0069308Y0239439D01*
X0069440Y0239540D01*
X0069575Y0239638D01*
X0069712Y0239732D01*
X0069851Y0239822D01*
X0069993Y0239909D01*
X0070137Y0239993D01*
X0070282Y0240073D01*
X0070430Y0240150D01*
X0070579Y0240223D01*
X0070730Y0240292D01*
X0070883Y0240357D01*
X0071037Y0240419D01*
X0071193Y0240477D01*
X0071350Y0240531D01*
X0071509Y0240581D01*
X0071669Y0240628D01*
X0071829Y0240670D01*
X0071991Y0240708D01*
X0072154Y0240743D01*
X0072317Y0240773D01*
X0072481Y0240800D01*
X0072646Y0240822D01*
X0072811Y0240840D01*
X0072977Y0240855D01*
X0073143Y0240865D01*
X0073309Y0240871D01*
X0073475Y0240873D01*
X0073641Y0240871D01*
X0073807Y0240865D01*
X0073973Y0240855D01*
X0074139Y0240840D01*
X0074304Y0240822D01*
X0074469Y0240800D01*
X0074633Y0240773D01*
X0074796Y0240743D01*
X0074959Y0240708D01*
X0075121Y0240670D01*
X0075281Y0240628D01*
X0075441Y0240581D01*
X0075600Y0240531D01*
X0075757Y0240477D01*
X0075913Y0240419D01*
X0076067Y0240357D01*
X0076220Y0240292D01*
X0076371Y0240223D01*
X0076520Y0240150D01*
X0076668Y0240073D01*
X0076813Y0239993D01*
X0076957Y0239909D01*
X0077099Y0239822D01*
X0077238Y0239732D01*
X0077375Y0239638D01*
X0077510Y0239540D01*
X0077642Y0239439D01*
X0077772Y0239336D01*
X0077899Y0239229D01*
X0078023Y0239118D01*
X0078145Y0239005D01*
X0078264Y0238889D01*
X0078380Y0238770D01*
X0078493Y0238648D01*
X0078604Y0238524D01*
X0078711Y0238397D01*
X0078814Y0238267D01*
X0078915Y0238135D01*
X0079013Y0238000D01*
X0079107Y0237863D01*
X0079197Y0237724D01*
X0079284Y0237582D01*
X0079368Y0237438D01*
X0079448Y0237293D01*
X0079525Y0237145D01*
X0079598Y0236996D01*
X0079667Y0236845D01*
X0079732Y0236692D01*
X0079794Y0236538D01*
X0079852Y0236382D01*
X0079906Y0236225D01*
X0079956Y0236066D01*
X0080003Y0235906D01*
X0080045Y0235746D01*
X0080083Y0235584D01*
X0080118Y0235421D01*
X0080148Y0235258D01*
X0080175Y0235094D01*
X0080197Y0234929D01*
X0080215Y0234764D01*
X0080230Y0234598D01*
X0080240Y0234432D01*
X0080246Y0234266D01*
X0080248Y0234100D01*
X0080246Y0233934D01*
X0080240Y0233768D01*
X0080230Y0233602D01*
X0080215Y0233436D01*
X0080197Y0233271D01*
X0080175Y0233106D01*
X0080148Y0232942D01*
X0080118Y0232779D01*
X0080083Y0232616D01*
X0080045Y0232454D01*
X0080003Y0232294D01*
X0079956Y0232134D01*
X0079906Y0231975D01*
X0079852Y0231818D01*
X0079794Y0231662D01*
X0079732Y0231508D01*
X0079667Y0231355D01*
X0079598Y0231204D01*
X0079525Y0231055D01*
X0079448Y0230907D01*
X0079368Y0230762D01*
X0079284Y0230618D01*
X0079197Y0230476D01*
X0079107Y0230337D01*
X0079013Y0230200D01*
X0078915Y0230065D01*
X0078814Y0229933D01*
X0078711Y0229803D01*
X0078604Y0229676D01*
X0078493Y0229552D01*
X0078380Y0229430D01*
X0078264Y0229311D01*
X0078145Y0229195D01*
X0078023Y0229082D01*
X0077899Y0228971D01*
X0077772Y0228864D01*
X0077642Y0228761D01*
X0077510Y0228660D01*
X0077375Y0228562D01*
X0077238Y0228468D01*
X0077099Y0228378D01*
X0076957Y0228291D01*
X0076813Y0228207D01*
X0076668Y0228127D01*
X0076520Y0228050D01*
X0076371Y0227977D01*
X0076220Y0227908D01*
X0076067Y0227843D01*
X0075913Y0227781D01*
X0075757Y0227723D01*
X0075600Y0227669D01*
X0075441Y0227619D01*
X0075281Y0227572D01*
X0075121Y0227530D01*
X0074959Y0227492D01*
X0074796Y0227457D01*
X0074633Y0227427D01*
X0074469Y0227400D01*
X0074304Y0227378D01*
X0074139Y0227360D01*
X0073973Y0227345D01*
X0073807Y0227335D01*
X0073641Y0227329D01*
X0073475Y0227327D01*
X0073309Y0227329D01*
X0073143Y0227335D01*
X0072977Y0227345D01*
X0072811Y0227360D01*
X0072646Y0227378D01*
X0072481Y0227400D01*
X0072317Y0227427D01*
X0072154Y0227457D01*
X0071991Y0227492D01*
X0071829Y0227530D01*
X0071669Y0227572D01*
X0071509Y0227619D01*
X0071350Y0227669D01*
X0071193Y0227723D01*
X0071037Y0227781D01*
X0070883Y0227843D01*
X0070730Y0227908D01*
X0070579Y0227977D01*
X0070430Y0228050D01*
X0070282Y0228127D01*
X0070137Y0228207D01*
X0069993Y0228291D01*
X0069851Y0228378D01*
X0069712Y0228468D01*
X0069575Y0228562D01*
X0069440Y0228660D01*
X0069308Y0228761D01*
X0069178Y0228864D01*
X0069051Y0228971D01*
X0068927Y0229082D01*
X0068805Y0229195D01*
X0068686Y0229311D01*
X0068570Y0229430D01*
X0068457Y0229552D01*
X0068346Y0229676D01*
X0068239Y0229803D01*
X0068136Y0229933D01*
X0068035Y0230065D01*
X0067937Y0230200D01*
X0067843Y0230337D01*
X0067753Y0230476D01*
X0067666Y0230618D01*
X0067582Y0230762D01*
X0067502Y0230907D01*
X0067425Y0231055D01*
X0067352Y0231204D01*
X0067283Y0231355D01*
X0067218Y0231508D01*
X0067156Y0231662D01*
X0067098Y0231818D01*
X0067044Y0231975D01*
X0066994Y0232134D01*
X0066947Y0232294D01*
X0066905Y0232454D01*
X0066867Y0232616D01*
X0066832Y0232779D01*
X0066802Y0232942D01*
X0066775Y0233106D01*
X0066753Y0233271D01*
X0066735Y0233436D01*
X0066720Y0233602D01*
X0066710Y0233768D01*
X0066704Y0233934D01*
X0066702Y0234100D01*
X0050193Y0243943D02*
X0050193Y0224257D01*
X0030507Y0224257D01*
X0030507Y0240399D01*
X0034051Y0243943D01*
X0035232Y0245124D01*
X0033657Y0246698D01*
X0030507Y0243943D01*
X0034051Y0243943D01*
X0050193Y0243943D01*
X0033577Y0234100D02*
X0033579Y0234266D01*
X0033585Y0234432D01*
X0033595Y0234598D01*
X0033610Y0234764D01*
X0033628Y0234929D01*
X0033650Y0235094D01*
X0033677Y0235258D01*
X0033707Y0235421D01*
X0033742Y0235584D01*
X0033780Y0235746D01*
X0033822Y0235906D01*
X0033869Y0236066D01*
X0033919Y0236225D01*
X0033973Y0236382D01*
X0034031Y0236538D01*
X0034093Y0236692D01*
X0034158Y0236845D01*
X0034227Y0236996D01*
X0034300Y0237145D01*
X0034377Y0237293D01*
X0034457Y0237438D01*
X0034541Y0237582D01*
X0034628Y0237724D01*
X0034718Y0237863D01*
X0034812Y0238000D01*
X0034910Y0238135D01*
X0035011Y0238267D01*
X0035114Y0238397D01*
X0035221Y0238524D01*
X0035332Y0238648D01*
X0035445Y0238770D01*
X0035561Y0238889D01*
X0035680Y0239005D01*
X0035802Y0239118D01*
X0035926Y0239229D01*
X0036053Y0239336D01*
X0036183Y0239439D01*
X0036315Y0239540D01*
X0036450Y0239638D01*
X0036587Y0239732D01*
X0036726Y0239822D01*
X0036868Y0239909D01*
X0037012Y0239993D01*
X0037157Y0240073D01*
X0037305Y0240150D01*
X0037454Y0240223D01*
X0037605Y0240292D01*
X0037758Y0240357D01*
X0037912Y0240419D01*
X0038068Y0240477D01*
X0038225Y0240531D01*
X0038384Y0240581D01*
X0038544Y0240628D01*
X0038704Y0240670D01*
X0038866Y0240708D01*
X0039029Y0240743D01*
X0039192Y0240773D01*
X0039356Y0240800D01*
X0039521Y0240822D01*
X0039686Y0240840D01*
X0039852Y0240855D01*
X0040018Y0240865D01*
X0040184Y0240871D01*
X0040350Y0240873D01*
X0040516Y0240871D01*
X0040682Y0240865D01*
X0040848Y0240855D01*
X0041014Y0240840D01*
X0041179Y0240822D01*
X0041344Y0240800D01*
X0041508Y0240773D01*
X0041671Y0240743D01*
X0041834Y0240708D01*
X0041996Y0240670D01*
X0042156Y0240628D01*
X0042316Y0240581D01*
X0042475Y0240531D01*
X0042632Y0240477D01*
X0042788Y0240419D01*
X0042942Y0240357D01*
X0043095Y0240292D01*
X0043246Y0240223D01*
X0043395Y0240150D01*
X0043543Y0240073D01*
X0043688Y0239993D01*
X0043832Y0239909D01*
X0043974Y0239822D01*
X0044113Y0239732D01*
X0044250Y0239638D01*
X0044385Y0239540D01*
X0044517Y0239439D01*
X0044647Y0239336D01*
X0044774Y0239229D01*
X0044898Y0239118D01*
X0045020Y0239005D01*
X0045139Y0238889D01*
X0045255Y0238770D01*
X0045368Y0238648D01*
X0045479Y0238524D01*
X0045586Y0238397D01*
X0045689Y0238267D01*
X0045790Y0238135D01*
X0045888Y0238000D01*
X0045982Y0237863D01*
X0046072Y0237724D01*
X0046159Y0237582D01*
X0046243Y0237438D01*
X0046323Y0237293D01*
X0046400Y0237145D01*
X0046473Y0236996D01*
X0046542Y0236845D01*
X0046607Y0236692D01*
X0046669Y0236538D01*
X0046727Y0236382D01*
X0046781Y0236225D01*
X0046831Y0236066D01*
X0046878Y0235906D01*
X0046920Y0235746D01*
X0046958Y0235584D01*
X0046993Y0235421D01*
X0047023Y0235258D01*
X0047050Y0235094D01*
X0047072Y0234929D01*
X0047090Y0234764D01*
X0047105Y0234598D01*
X0047115Y0234432D01*
X0047121Y0234266D01*
X0047123Y0234100D01*
X0047121Y0233934D01*
X0047115Y0233768D01*
X0047105Y0233602D01*
X0047090Y0233436D01*
X0047072Y0233271D01*
X0047050Y0233106D01*
X0047023Y0232942D01*
X0046993Y0232779D01*
X0046958Y0232616D01*
X0046920Y0232454D01*
X0046878Y0232294D01*
X0046831Y0232134D01*
X0046781Y0231975D01*
X0046727Y0231818D01*
X0046669Y0231662D01*
X0046607Y0231508D01*
X0046542Y0231355D01*
X0046473Y0231204D01*
X0046400Y0231055D01*
X0046323Y0230907D01*
X0046243Y0230762D01*
X0046159Y0230618D01*
X0046072Y0230476D01*
X0045982Y0230337D01*
X0045888Y0230200D01*
X0045790Y0230065D01*
X0045689Y0229933D01*
X0045586Y0229803D01*
X0045479Y0229676D01*
X0045368Y0229552D01*
X0045255Y0229430D01*
X0045139Y0229311D01*
X0045020Y0229195D01*
X0044898Y0229082D01*
X0044774Y0228971D01*
X0044647Y0228864D01*
X0044517Y0228761D01*
X0044385Y0228660D01*
X0044250Y0228562D01*
X0044113Y0228468D01*
X0043974Y0228378D01*
X0043832Y0228291D01*
X0043688Y0228207D01*
X0043543Y0228127D01*
X0043395Y0228050D01*
X0043246Y0227977D01*
X0043095Y0227908D01*
X0042942Y0227843D01*
X0042788Y0227781D01*
X0042632Y0227723D01*
X0042475Y0227669D01*
X0042316Y0227619D01*
X0042156Y0227572D01*
X0041996Y0227530D01*
X0041834Y0227492D01*
X0041671Y0227457D01*
X0041508Y0227427D01*
X0041344Y0227400D01*
X0041179Y0227378D01*
X0041014Y0227360D01*
X0040848Y0227345D01*
X0040682Y0227335D01*
X0040516Y0227329D01*
X0040350Y0227327D01*
X0040184Y0227329D01*
X0040018Y0227335D01*
X0039852Y0227345D01*
X0039686Y0227360D01*
X0039521Y0227378D01*
X0039356Y0227400D01*
X0039192Y0227427D01*
X0039029Y0227457D01*
X0038866Y0227492D01*
X0038704Y0227530D01*
X0038544Y0227572D01*
X0038384Y0227619D01*
X0038225Y0227669D01*
X0038068Y0227723D01*
X0037912Y0227781D01*
X0037758Y0227843D01*
X0037605Y0227908D01*
X0037454Y0227977D01*
X0037305Y0228050D01*
X0037157Y0228127D01*
X0037012Y0228207D01*
X0036868Y0228291D01*
X0036726Y0228378D01*
X0036587Y0228468D01*
X0036450Y0228562D01*
X0036315Y0228660D01*
X0036183Y0228761D01*
X0036053Y0228864D01*
X0035926Y0228971D01*
X0035802Y0229082D01*
X0035680Y0229195D01*
X0035561Y0229311D01*
X0035445Y0229430D01*
X0035332Y0229552D01*
X0035221Y0229676D01*
X0035114Y0229803D01*
X0035011Y0229933D01*
X0034910Y0230065D01*
X0034812Y0230200D01*
X0034718Y0230337D01*
X0034628Y0230476D01*
X0034541Y0230618D01*
X0034457Y0230762D01*
X0034377Y0230907D01*
X0034300Y0231055D01*
X0034227Y0231204D01*
X0034158Y0231355D01*
X0034093Y0231508D01*
X0034031Y0231662D01*
X0033973Y0231818D01*
X0033919Y0231975D01*
X0033869Y0232134D01*
X0033822Y0232294D01*
X0033780Y0232454D01*
X0033742Y0232616D01*
X0033707Y0232779D01*
X0033677Y0232942D01*
X0033650Y0233106D01*
X0033628Y0233271D01*
X0033610Y0233436D01*
X0033595Y0233602D01*
X0033585Y0233768D01*
X0033579Y0233934D01*
X0033577Y0234100D01*
X0030507Y0240399D02*
X0030507Y0243943D01*
X0072607Y0184198D02*
X0069457Y0181443D01*
X0073001Y0181443D01*
X0074182Y0182624D01*
X0072607Y0184198D01*
X0073001Y0181443D02*
X0069457Y0177899D01*
X0069457Y0181443D01*
X0069457Y0177899D02*
X0069457Y0161757D01*
X0089143Y0161757D01*
X0089143Y0181443D01*
X0073001Y0181443D01*
X0072527Y0171600D02*
X0072529Y0171766D01*
X0072535Y0171932D01*
X0072545Y0172098D01*
X0072560Y0172264D01*
X0072578Y0172429D01*
X0072600Y0172594D01*
X0072627Y0172758D01*
X0072657Y0172921D01*
X0072692Y0173084D01*
X0072730Y0173246D01*
X0072772Y0173406D01*
X0072819Y0173566D01*
X0072869Y0173725D01*
X0072923Y0173882D01*
X0072981Y0174038D01*
X0073043Y0174192D01*
X0073108Y0174345D01*
X0073177Y0174496D01*
X0073250Y0174645D01*
X0073327Y0174793D01*
X0073407Y0174938D01*
X0073491Y0175082D01*
X0073578Y0175224D01*
X0073668Y0175363D01*
X0073762Y0175500D01*
X0073860Y0175635D01*
X0073961Y0175767D01*
X0074064Y0175897D01*
X0074171Y0176024D01*
X0074282Y0176148D01*
X0074395Y0176270D01*
X0074511Y0176389D01*
X0074630Y0176505D01*
X0074752Y0176618D01*
X0074876Y0176729D01*
X0075003Y0176836D01*
X0075133Y0176939D01*
X0075265Y0177040D01*
X0075400Y0177138D01*
X0075537Y0177232D01*
X0075676Y0177322D01*
X0075818Y0177409D01*
X0075962Y0177493D01*
X0076107Y0177573D01*
X0076255Y0177650D01*
X0076404Y0177723D01*
X0076555Y0177792D01*
X0076708Y0177857D01*
X0076862Y0177919D01*
X0077018Y0177977D01*
X0077175Y0178031D01*
X0077334Y0178081D01*
X0077494Y0178128D01*
X0077654Y0178170D01*
X0077816Y0178208D01*
X0077979Y0178243D01*
X0078142Y0178273D01*
X0078306Y0178300D01*
X0078471Y0178322D01*
X0078636Y0178340D01*
X0078802Y0178355D01*
X0078968Y0178365D01*
X0079134Y0178371D01*
X0079300Y0178373D01*
X0079466Y0178371D01*
X0079632Y0178365D01*
X0079798Y0178355D01*
X0079964Y0178340D01*
X0080129Y0178322D01*
X0080294Y0178300D01*
X0080458Y0178273D01*
X0080621Y0178243D01*
X0080784Y0178208D01*
X0080946Y0178170D01*
X0081106Y0178128D01*
X0081266Y0178081D01*
X0081425Y0178031D01*
X0081582Y0177977D01*
X0081738Y0177919D01*
X0081892Y0177857D01*
X0082045Y0177792D01*
X0082196Y0177723D01*
X0082345Y0177650D01*
X0082493Y0177573D01*
X0082638Y0177493D01*
X0082782Y0177409D01*
X0082924Y0177322D01*
X0083063Y0177232D01*
X0083200Y0177138D01*
X0083335Y0177040D01*
X0083467Y0176939D01*
X0083597Y0176836D01*
X0083724Y0176729D01*
X0083848Y0176618D01*
X0083970Y0176505D01*
X0084089Y0176389D01*
X0084205Y0176270D01*
X0084318Y0176148D01*
X0084429Y0176024D01*
X0084536Y0175897D01*
X0084639Y0175767D01*
X0084740Y0175635D01*
X0084838Y0175500D01*
X0084932Y0175363D01*
X0085022Y0175224D01*
X0085109Y0175082D01*
X0085193Y0174938D01*
X0085273Y0174793D01*
X0085350Y0174645D01*
X0085423Y0174496D01*
X0085492Y0174345D01*
X0085557Y0174192D01*
X0085619Y0174038D01*
X0085677Y0173882D01*
X0085731Y0173725D01*
X0085781Y0173566D01*
X0085828Y0173406D01*
X0085870Y0173246D01*
X0085908Y0173084D01*
X0085943Y0172921D01*
X0085973Y0172758D01*
X0086000Y0172594D01*
X0086022Y0172429D01*
X0086040Y0172264D01*
X0086055Y0172098D01*
X0086065Y0171932D01*
X0086071Y0171766D01*
X0086073Y0171600D01*
X0086071Y0171434D01*
X0086065Y0171268D01*
X0086055Y0171102D01*
X0086040Y0170936D01*
X0086022Y0170771D01*
X0086000Y0170606D01*
X0085973Y0170442D01*
X0085943Y0170279D01*
X0085908Y0170116D01*
X0085870Y0169954D01*
X0085828Y0169794D01*
X0085781Y0169634D01*
X0085731Y0169475D01*
X0085677Y0169318D01*
X0085619Y0169162D01*
X0085557Y0169008D01*
X0085492Y0168855D01*
X0085423Y0168704D01*
X0085350Y0168555D01*
X0085273Y0168407D01*
X0085193Y0168262D01*
X0085109Y0168118D01*
X0085022Y0167976D01*
X0084932Y0167837D01*
X0084838Y0167700D01*
X0084740Y0167565D01*
X0084639Y0167433D01*
X0084536Y0167303D01*
X0084429Y0167176D01*
X0084318Y0167052D01*
X0084205Y0166930D01*
X0084089Y0166811D01*
X0083970Y0166695D01*
X0083848Y0166582D01*
X0083724Y0166471D01*
X0083597Y0166364D01*
X0083467Y0166261D01*
X0083335Y0166160D01*
X0083200Y0166062D01*
X0083063Y0165968D01*
X0082924Y0165878D01*
X0082782Y0165791D01*
X0082638Y0165707D01*
X0082493Y0165627D01*
X0082345Y0165550D01*
X0082196Y0165477D01*
X0082045Y0165408D01*
X0081892Y0165343D01*
X0081738Y0165281D01*
X0081582Y0165223D01*
X0081425Y0165169D01*
X0081266Y0165119D01*
X0081106Y0165072D01*
X0080946Y0165030D01*
X0080784Y0164992D01*
X0080621Y0164957D01*
X0080458Y0164927D01*
X0080294Y0164900D01*
X0080129Y0164878D01*
X0079964Y0164860D01*
X0079798Y0164845D01*
X0079632Y0164835D01*
X0079466Y0164829D01*
X0079300Y0164827D01*
X0079134Y0164829D01*
X0078968Y0164835D01*
X0078802Y0164845D01*
X0078636Y0164860D01*
X0078471Y0164878D01*
X0078306Y0164900D01*
X0078142Y0164927D01*
X0077979Y0164957D01*
X0077816Y0164992D01*
X0077654Y0165030D01*
X0077494Y0165072D01*
X0077334Y0165119D01*
X0077175Y0165169D01*
X0077018Y0165223D01*
X0076862Y0165281D01*
X0076708Y0165343D01*
X0076555Y0165408D01*
X0076404Y0165477D01*
X0076255Y0165550D01*
X0076107Y0165627D01*
X0075962Y0165707D01*
X0075818Y0165791D01*
X0075676Y0165878D01*
X0075537Y0165968D01*
X0075400Y0166062D01*
X0075265Y0166160D01*
X0075133Y0166261D01*
X0075003Y0166364D01*
X0074876Y0166471D01*
X0074752Y0166582D01*
X0074630Y0166695D01*
X0074511Y0166811D01*
X0074395Y0166930D01*
X0074282Y0167052D01*
X0074171Y0167176D01*
X0074064Y0167303D01*
X0073961Y0167433D01*
X0073860Y0167565D01*
X0073762Y0167700D01*
X0073668Y0167837D01*
X0073578Y0167976D01*
X0073491Y0168118D01*
X0073407Y0168262D01*
X0073327Y0168407D01*
X0073250Y0168555D01*
X0073177Y0168704D01*
X0073108Y0168855D01*
X0073043Y0169008D01*
X0072981Y0169162D01*
X0072923Y0169318D01*
X0072869Y0169475D01*
X0072819Y0169634D01*
X0072772Y0169794D01*
X0072730Y0169954D01*
X0072692Y0170116D01*
X0072657Y0170279D01*
X0072627Y0170442D01*
X0072600Y0170606D01*
X0072578Y0170771D01*
X0072560Y0170936D01*
X0072545Y0171102D01*
X0072535Y0171268D01*
X0072529Y0171434D01*
X0072527Y0171600D01*
X0069620Y0123228D02*
X0065717Y0121715D01*
X0069047Y0120503D01*
X0070561Y0121209D01*
X0069620Y0123228D01*
X0069047Y0120503D02*
X0064506Y0118386D01*
X0065717Y0121715D01*
X0064506Y0118386D02*
X0058985Y0103217D01*
X0077483Y0096485D01*
X0084215Y0114983D01*
X0069047Y0120503D01*
X0064827Y0109100D02*
X0064829Y0109266D01*
X0064835Y0109432D01*
X0064845Y0109598D01*
X0064860Y0109764D01*
X0064878Y0109929D01*
X0064900Y0110094D01*
X0064927Y0110258D01*
X0064957Y0110421D01*
X0064992Y0110584D01*
X0065030Y0110746D01*
X0065072Y0110906D01*
X0065119Y0111066D01*
X0065169Y0111225D01*
X0065223Y0111382D01*
X0065281Y0111538D01*
X0065343Y0111692D01*
X0065408Y0111845D01*
X0065477Y0111996D01*
X0065550Y0112145D01*
X0065627Y0112293D01*
X0065707Y0112438D01*
X0065791Y0112582D01*
X0065878Y0112724D01*
X0065968Y0112863D01*
X0066062Y0113000D01*
X0066160Y0113135D01*
X0066261Y0113267D01*
X0066364Y0113397D01*
X0066471Y0113524D01*
X0066582Y0113648D01*
X0066695Y0113770D01*
X0066811Y0113889D01*
X0066930Y0114005D01*
X0067052Y0114118D01*
X0067176Y0114229D01*
X0067303Y0114336D01*
X0067433Y0114439D01*
X0067565Y0114540D01*
X0067700Y0114638D01*
X0067837Y0114732D01*
X0067976Y0114822D01*
X0068118Y0114909D01*
X0068262Y0114993D01*
X0068407Y0115073D01*
X0068555Y0115150D01*
X0068704Y0115223D01*
X0068855Y0115292D01*
X0069008Y0115357D01*
X0069162Y0115419D01*
X0069318Y0115477D01*
X0069475Y0115531D01*
X0069634Y0115581D01*
X0069794Y0115628D01*
X0069954Y0115670D01*
X0070116Y0115708D01*
X0070279Y0115743D01*
X0070442Y0115773D01*
X0070606Y0115800D01*
X0070771Y0115822D01*
X0070936Y0115840D01*
X0071102Y0115855D01*
X0071268Y0115865D01*
X0071434Y0115871D01*
X0071600Y0115873D01*
X0071766Y0115871D01*
X0071932Y0115865D01*
X0072098Y0115855D01*
X0072264Y0115840D01*
X0072429Y0115822D01*
X0072594Y0115800D01*
X0072758Y0115773D01*
X0072921Y0115743D01*
X0073084Y0115708D01*
X0073246Y0115670D01*
X0073406Y0115628D01*
X0073566Y0115581D01*
X0073725Y0115531D01*
X0073882Y0115477D01*
X0074038Y0115419D01*
X0074192Y0115357D01*
X0074345Y0115292D01*
X0074496Y0115223D01*
X0074645Y0115150D01*
X0074793Y0115073D01*
X0074938Y0114993D01*
X0075082Y0114909D01*
X0075224Y0114822D01*
X0075363Y0114732D01*
X0075500Y0114638D01*
X0075635Y0114540D01*
X0075767Y0114439D01*
X0075897Y0114336D01*
X0076024Y0114229D01*
X0076148Y0114118D01*
X0076270Y0114005D01*
X0076389Y0113889D01*
X0076505Y0113770D01*
X0076618Y0113648D01*
X0076729Y0113524D01*
X0076836Y0113397D01*
X0076939Y0113267D01*
X0077040Y0113135D01*
X0077138Y0113000D01*
X0077232Y0112863D01*
X0077322Y0112724D01*
X0077409Y0112582D01*
X0077493Y0112438D01*
X0077573Y0112293D01*
X0077650Y0112145D01*
X0077723Y0111996D01*
X0077792Y0111845D01*
X0077857Y0111692D01*
X0077919Y0111538D01*
X0077977Y0111382D01*
X0078031Y0111225D01*
X0078081Y0111066D01*
X0078128Y0110906D01*
X0078170Y0110746D01*
X0078208Y0110584D01*
X0078243Y0110421D01*
X0078273Y0110258D01*
X0078300Y0110094D01*
X0078322Y0109929D01*
X0078340Y0109764D01*
X0078355Y0109598D01*
X0078365Y0109432D01*
X0078371Y0109266D01*
X0078373Y0109100D01*
X0078371Y0108934D01*
X0078365Y0108768D01*
X0078355Y0108602D01*
X0078340Y0108436D01*
X0078322Y0108271D01*
X0078300Y0108106D01*
X0078273Y0107942D01*
X0078243Y0107779D01*
X0078208Y0107616D01*
X0078170Y0107454D01*
X0078128Y0107294D01*
X0078081Y0107134D01*
X0078031Y0106975D01*
X0077977Y0106818D01*
X0077919Y0106662D01*
X0077857Y0106508D01*
X0077792Y0106355D01*
X0077723Y0106204D01*
X0077650Y0106055D01*
X0077573Y0105907D01*
X0077493Y0105762D01*
X0077409Y0105618D01*
X0077322Y0105476D01*
X0077232Y0105337D01*
X0077138Y0105200D01*
X0077040Y0105065D01*
X0076939Y0104933D01*
X0076836Y0104803D01*
X0076729Y0104676D01*
X0076618Y0104552D01*
X0076505Y0104430D01*
X0076389Y0104311D01*
X0076270Y0104195D01*
X0076148Y0104082D01*
X0076024Y0103971D01*
X0075897Y0103864D01*
X0075767Y0103761D01*
X0075635Y0103660D01*
X0075500Y0103562D01*
X0075363Y0103468D01*
X0075224Y0103378D01*
X0075082Y0103291D01*
X0074938Y0103207D01*
X0074793Y0103127D01*
X0074645Y0103050D01*
X0074496Y0102977D01*
X0074345Y0102908D01*
X0074192Y0102843D01*
X0074038Y0102781D01*
X0073882Y0102723D01*
X0073725Y0102669D01*
X0073566Y0102619D01*
X0073406Y0102572D01*
X0073246Y0102530D01*
X0073084Y0102492D01*
X0072921Y0102457D01*
X0072758Y0102427D01*
X0072594Y0102400D01*
X0072429Y0102378D01*
X0072264Y0102360D01*
X0072098Y0102345D01*
X0071932Y0102335D01*
X0071766Y0102329D01*
X0071600Y0102327D01*
X0071434Y0102329D01*
X0071268Y0102335D01*
X0071102Y0102345D01*
X0070936Y0102360D01*
X0070771Y0102378D01*
X0070606Y0102400D01*
X0070442Y0102427D01*
X0070279Y0102457D01*
X0070116Y0102492D01*
X0069954Y0102530D01*
X0069794Y0102572D01*
X0069634Y0102619D01*
X0069475Y0102669D01*
X0069318Y0102723D01*
X0069162Y0102781D01*
X0069008Y0102843D01*
X0068855Y0102908D01*
X0068704Y0102977D01*
X0068555Y0103050D01*
X0068407Y0103127D01*
X0068262Y0103207D01*
X0068118Y0103291D01*
X0067976Y0103378D01*
X0067837Y0103468D01*
X0067700Y0103562D01*
X0067565Y0103660D01*
X0067433Y0103761D01*
X0067303Y0103864D01*
X0067176Y0103971D01*
X0067052Y0104082D01*
X0066930Y0104195D01*
X0066811Y0104311D01*
X0066695Y0104430D01*
X0066582Y0104552D01*
X0066471Y0104676D01*
X0066364Y0104803D01*
X0066261Y0104933D01*
X0066160Y0105065D01*
X0066062Y0105200D01*
X0065968Y0105337D01*
X0065878Y0105476D01*
X0065791Y0105618D01*
X0065707Y0105762D01*
X0065627Y0105907D01*
X0065550Y0106055D01*
X0065477Y0106204D01*
X0065408Y0106355D01*
X0065343Y0106508D01*
X0065281Y0106662D01*
X0065223Y0106818D01*
X0065169Y0106975D01*
X0065119Y0107134D01*
X0065072Y0107294D01*
X0065030Y0107454D01*
X0064992Y0107616D01*
X0064957Y0107779D01*
X0064927Y0107942D01*
X0064900Y0108106D01*
X0064878Y0108271D01*
X0064860Y0108436D01*
X0064845Y0108602D01*
X0064835Y0108768D01*
X0064829Y0108934D01*
X0064827Y0109100D01*
X0050193Y0118943D02*
X0050193Y0099257D01*
X0030507Y0099257D01*
X0030507Y0115399D01*
X0034051Y0118943D01*
X0035232Y0120124D01*
X0033657Y0121698D01*
X0030507Y0118943D01*
X0034051Y0118943D01*
X0050193Y0118943D01*
X0033577Y0109100D02*
X0033579Y0109266D01*
X0033585Y0109432D01*
X0033595Y0109598D01*
X0033610Y0109764D01*
X0033628Y0109929D01*
X0033650Y0110094D01*
X0033677Y0110258D01*
X0033707Y0110421D01*
X0033742Y0110584D01*
X0033780Y0110746D01*
X0033822Y0110906D01*
X0033869Y0111066D01*
X0033919Y0111225D01*
X0033973Y0111382D01*
X0034031Y0111538D01*
X0034093Y0111692D01*
X0034158Y0111845D01*
X0034227Y0111996D01*
X0034300Y0112145D01*
X0034377Y0112293D01*
X0034457Y0112438D01*
X0034541Y0112582D01*
X0034628Y0112724D01*
X0034718Y0112863D01*
X0034812Y0113000D01*
X0034910Y0113135D01*
X0035011Y0113267D01*
X0035114Y0113397D01*
X0035221Y0113524D01*
X0035332Y0113648D01*
X0035445Y0113770D01*
X0035561Y0113889D01*
X0035680Y0114005D01*
X0035802Y0114118D01*
X0035926Y0114229D01*
X0036053Y0114336D01*
X0036183Y0114439D01*
X0036315Y0114540D01*
X0036450Y0114638D01*
X0036587Y0114732D01*
X0036726Y0114822D01*
X0036868Y0114909D01*
X0037012Y0114993D01*
X0037157Y0115073D01*
X0037305Y0115150D01*
X0037454Y0115223D01*
X0037605Y0115292D01*
X0037758Y0115357D01*
X0037912Y0115419D01*
X0038068Y0115477D01*
X0038225Y0115531D01*
X0038384Y0115581D01*
X0038544Y0115628D01*
X0038704Y0115670D01*
X0038866Y0115708D01*
X0039029Y0115743D01*
X0039192Y0115773D01*
X0039356Y0115800D01*
X0039521Y0115822D01*
X0039686Y0115840D01*
X0039852Y0115855D01*
X0040018Y0115865D01*
X0040184Y0115871D01*
X0040350Y0115873D01*
X0040516Y0115871D01*
X0040682Y0115865D01*
X0040848Y0115855D01*
X0041014Y0115840D01*
X0041179Y0115822D01*
X0041344Y0115800D01*
X0041508Y0115773D01*
X0041671Y0115743D01*
X0041834Y0115708D01*
X0041996Y0115670D01*
X0042156Y0115628D01*
X0042316Y0115581D01*
X0042475Y0115531D01*
X0042632Y0115477D01*
X0042788Y0115419D01*
X0042942Y0115357D01*
X0043095Y0115292D01*
X0043246Y0115223D01*
X0043395Y0115150D01*
X0043543Y0115073D01*
X0043688Y0114993D01*
X0043832Y0114909D01*
X0043974Y0114822D01*
X0044113Y0114732D01*
X0044250Y0114638D01*
X0044385Y0114540D01*
X0044517Y0114439D01*
X0044647Y0114336D01*
X0044774Y0114229D01*
X0044898Y0114118D01*
X0045020Y0114005D01*
X0045139Y0113889D01*
X0045255Y0113770D01*
X0045368Y0113648D01*
X0045479Y0113524D01*
X0045586Y0113397D01*
X0045689Y0113267D01*
X0045790Y0113135D01*
X0045888Y0113000D01*
X0045982Y0112863D01*
X0046072Y0112724D01*
X0046159Y0112582D01*
X0046243Y0112438D01*
X0046323Y0112293D01*
X0046400Y0112145D01*
X0046473Y0111996D01*
X0046542Y0111845D01*
X0046607Y0111692D01*
X0046669Y0111538D01*
X0046727Y0111382D01*
X0046781Y0111225D01*
X0046831Y0111066D01*
X0046878Y0110906D01*
X0046920Y0110746D01*
X0046958Y0110584D01*
X0046993Y0110421D01*
X0047023Y0110258D01*
X0047050Y0110094D01*
X0047072Y0109929D01*
X0047090Y0109764D01*
X0047105Y0109598D01*
X0047115Y0109432D01*
X0047121Y0109266D01*
X0047123Y0109100D01*
X0047121Y0108934D01*
X0047115Y0108768D01*
X0047105Y0108602D01*
X0047090Y0108436D01*
X0047072Y0108271D01*
X0047050Y0108106D01*
X0047023Y0107942D01*
X0046993Y0107779D01*
X0046958Y0107616D01*
X0046920Y0107454D01*
X0046878Y0107294D01*
X0046831Y0107134D01*
X0046781Y0106975D01*
X0046727Y0106818D01*
X0046669Y0106662D01*
X0046607Y0106508D01*
X0046542Y0106355D01*
X0046473Y0106204D01*
X0046400Y0106055D01*
X0046323Y0105907D01*
X0046243Y0105762D01*
X0046159Y0105618D01*
X0046072Y0105476D01*
X0045982Y0105337D01*
X0045888Y0105200D01*
X0045790Y0105065D01*
X0045689Y0104933D01*
X0045586Y0104803D01*
X0045479Y0104676D01*
X0045368Y0104552D01*
X0045255Y0104430D01*
X0045139Y0104311D01*
X0045020Y0104195D01*
X0044898Y0104082D01*
X0044774Y0103971D01*
X0044647Y0103864D01*
X0044517Y0103761D01*
X0044385Y0103660D01*
X0044250Y0103562D01*
X0044113Y0103468D01*
X0043974Y0103378D01*
X0043832Y0103291D01*
X0043688Y0103207D01*
X0043543Y0103127D01*
X0043395Y0103050D01*
X0043246Y0102977D01*
X0043095Y0102908D01*
X0042942Y0102843D01*
X0042788Y0102781D01*
X0042632Y0102723D01*
X0042475Y0102669D01*
X0042316Y0102619D01*
X0042156Y0102572D01*
X0041996Y0102530D01*
X0041834Y0102492D01*
X0041671Y0102457D01*
X0041508Y0102427D01*
X0041344Y0102400D01*
X0041179Y0102378D01*
X0041014Y0102360D01*
X0040848Y0102345D01*
X0040682Y0102335D01*
X0040516Y0102329D01*
X0040350Y0102327D01*
X0040184Y0102329D01*
X0040018Y0102335D01*
X0039852Y0102345D01*
X0039686Y0102360D01*
X0039521Y0102378D01*
X0039356Y0102400D01*
X0039192Y0102427D01*
X0039029Y0102457D01*
X0038866Y0102492D01*
X0038704Y0102530D01*
X0038544Y0102572D01*
X0038384Y0102619D01*
X0038225Y0102669D01*
X0038068Y0102723D01*
X0037912Y0102781D01*
X0037758Y0102843D01*
X0037605Y0102908D01*
X0037454Y0102977D01*
X0037305Y0103050D01*
X0037157Y0103127D01*
X0037012Y0103207D01*
X0036868Y0103291D01*
X0036726Y0103378D01*
X0036587Y0103468D01*
X0036450Y0103562D01*
X0036315Y0103660D01*
X0036183Y0103761D01*
X0036053Y0103864D01*
X0035926Y0103971D01*
X0035802Y0104082D01*
X0035680Y0104195D01*
X0035561Y0104311D01*
X0035445Y0104430D01*
X0035332Y0104552D01*
X0035221Y0104676D01*
X0035114Y0104803D01*
X0035011Y0104933D01*
X0034910Y0105065D01*
X0034812Y0105200D01*
X0034718Y0105337D01*
X0034628Y0105476D01*
X0034541Y0105618D01*
X0034457Y0105762D01*
X0034377Y0105907D01*
X0034300Y0106055D01*
X0034227Y0106204D01*
X0034158Y0106355D01*
X0034093Y0106508D01*
X0034031Y0106662D01*
X0033973Y0106818D01*
X0033919Y0106975D01*
X0033869Y0107134D01*
X0033822Y0107294D01*
X0033780Y0107454D01*
X0033742Y0107616D01*
X0033707Y0107779D01*
X0033677Y0107942D01*
X0033650Y0108106D01*
X0033628Y0108271D01*
X0033610Y0108436D01*
X0033595Y0108602D01*
X0033585Y0108768D01*
X0033579Y0108934D01*
X0033577Y0109100D01*
X0030507Y0115399D02*
X0030507Y0118943D01*
X0094882Y0118943D02*
X0094882Y0115399D01*
X0098426Y0118943D01*
X0099607Y0120124D01*
X0098032Y0121698D01*
X0094882Y0118943D01*
X0098426Y0118943D01*
X0114568Y0118943D01*
X0114568Y0099257D01*
X0094882Y0099257D01*
X0094882Y0115399D01*
X0097952Y0109100D02*
X0097954Y0109266D01*
X0097960Y0109432D01*
X0097970Y0109598D01*
X0097985Y0109764D01*
X0098003Y0109929D01*
X0098025Y0110094D01*
X0098052Y0110258D01*
X0098082Y0110421D01*
X0098117Y0110584D01*
X0098155Y0110746D01*
X0098197Y0110906D01*
X0098244Y0111066D01*
X0098294Y0111225D01*
X0098348Y0111382D01*
X0098406Y0111538D01*
X0098468Y0111692D01*
X0098533Y0111845D01*
X0098602Y0111996D01*
X0098675Y0112145D01*
X0098752Y0112293D01*
X0098832Y0112438D01*
X0098916Y0112582D01*
X0099003Y0112724D01*
X0099093Y0112863D01*
X0099187Y0113000D01*
X0099285Y0113135D01*
X0099386Y0113267D01*
X0099489Y0113397D01*
X0099596Y0113524D01*
X0099707Y0113648D01*
X0099820Y0113770D01*
X0099936Y0113889D01*
X0100055Y0114005D01*
X0100177Y0114118D01*
X0100301Y0114229D01*
X0100428Y0114336D01*
X0100558Y0114439D01*
X0100690Y0114540D01*
X0100825Y0114638D01*
X0100962Y0114732D01*
X0101101Y0114822D01*
X0101243Y0114909D01*
X0101387Y0114993D01*
X0101532Y0115073D01*
X0101680Y0115150D01*
X0101829Y0115223D01*
X0101980Y0115292D01*
X0102133Y0115357D01*
X0102287Y0115419D01*
X0102443Y0115477D01*
X0102600Y0115531D01*
X0102759Y0115581D01*
X0102919Y0115628D01*
X0103079Y0115670D01*
X0103241Y0115708D01*
X0103404Y0115743D01*
X0103567Y0115773D01*
X0103731Y0115800D01*
X0103896Y0115822D01*
X0104061Y0115840D01*
X0104227Y0115855D01*
X0104393Y0115865D01*
X0104559Y0115871D01*
X0104725Y0115873D01*
X0104891Y0115871D01*
X0105057Y0115865D01*
X0105223Y0115855D01*
X0105389Y0115840D01*
X0105554Y0115822D01*
X0105719Y0115800D01*
X0105883Y0115773D01*
X0106046Y0115743D01*
X0106209Y0115708D01*
X0106371Y0115670D01*
X0106531Y0115628D01*
X0106691Y0115581D01*
X0106850Y0115531D01*
X0107007Y0115477D01*
X0107163Y0115419D01*
X0107317Y0115357D01*
X0107470Y0115292D01*
X0107621Y0115223D01*
X0107770Y0115150D01*
X0107918Y0115073D01*
X0108063Y0114993D01*
X0108207Y0114909D01*
X0108349Y0114822D01*
X0108488Y0114732D01*
X0108625Y0114638D01*
X0108760Y0114540D01*
X0108892Y0114439D01*
X0109022Y0114336D01*
X0109149Y0114229D01*
X0109273Y0114118D01*
X0109395Y0114005D01*
X0109514Y0113889D01*
X0109630Y0113770D01*
X0109743Y0113648D01*
X0109854Y0113524D01*
X0109961Y0113397D01*
X0110064Y0113267D01*
X0110165Y0113135D01*
X0110263Y0113000D01*
X0110357Y0112863D01*
X0110447Y0112724D01*
X0110534Y0112582D01*
X0110618Y0112438D01*
X0110698Y0112293D01*
X0110775Y0112145D01*
X0110848Y0111996D01*
X0110917Y0111845D01*
X0110982Y0111692D01*
X0111044Y0111538D01*
X0111102Y0111382D01*
X0111156Y0111225D01*
X0111206Y0111066D01*
X0111253Y0110906D01*
X0111295Y0110746D01*
X0111333Y0110584D01*
X0111368Y0110421D01*
X0111398Y0110258D01*
X0111425Y0110094D01*
X0111447Y0109929D01*
X0111465Y0109764D01*
X0111480Y0109598D01*
X0111490Y0109432D01*
X0111496Y0109266D01*
X0111498Y0109100D01*
X0111496Y0108934D01*
X0111490Y0108768D01*
X0111480Y0108602D01*
X0111465Y0108436D01*
X0111447Y0108271D01*
X0111425Y0108106D01*
X0111398Y0107942D01*
X0111368Y0107779D01*
X0111333Y0107616D01*
X0111295Y0107454D01*
X0111253Y0107294D01*
X0111206Y0107134D01*
X0111156Y0106975D01*
X0111102Y0106818D01*
X0111044Y0106662D01*
X0110982Y0106508D01*
X0110917Y0106355D01*
X0110848Y0106204D01*
X0110775Y0106055D01*
X0110698Y0105907D01*
X0110618Y0105762D01*
X0110534Y0105618D01*
X0110447Y0105476D01*
X0110357Y0105337D01*
X0110263Y0105200D01*
X0110165Y0105065D01*
X0110064Y0104933D01*
X0109961Y0104803D01*
X0109854Y0104676D01*
X0109743Y0104552D01*
X0109630Y0104430D01*
X0109514Y0104311D01*
X0109395Y0104195D01*
X0109273Y0104082D01*
X0109149Y0103971D01*
X0109022Y0103864D01*
X0108892Y0103761D01*
X0108760Y0103660D01*
X0108625Y0103562D01*
X0108488Y0103468D01*
X0108349Y0103378D01*
X0108207Y0103291D01*
X0108063Y0103207D01*
X0107918Y0103127D01*
X0107770Y0103050D01*
X0107621Y0102977D01*
X0107470Y0102908D01*
X0107317Y0102843D01*
X0107163Y0102781D01*
X0107007Y0102723D01*
X0106850Y0102669D01*
X0106691Y0102619D01*
X0106531Y0102572D01*
X0106371Y0102530D01*
X0106209Y0102492D01*
X0106046Y0102457D01*
X0105883Y0102427D01*
X0105719Y0102400D01*
X0105554Y0102378D01*
X0105389Y0102360D01*
X0105223Y0102345D01*
X0105057Y0102335D01*
X0104891Y0102329D01*
X0104725Y0102327D01*
X0104559Y0102329D01*
X0104393Y0102335D01*
X0104227Y0102345D01*
X0104061Y0102360D01*
X0103896Y0102378D01*
X0103731Y0102400D01*
X0103567Y0102427D01*
X0103404Y0102457D01*
X0103241Y0102492D01*
X0103079Y0102530D01*
X0102919Y0102572D01*
X0102759Y0102619D01*
X0102600Y0102669D01*
X0102443Y0102723D01*
X0102287Y0102781D01*
X0102133Y0102843D01*
X0101980Y0102908D01*
X0101829Y0102977D01*
X0101680Y0103050D01*
X0101532Y0103127D01*
X0101387Y0103207D01*
X0101243Y0103291D01*
X0101101Y0103378D01*
X0100962Y0103468D01*
X0100825Y0103562D01*
X0100690Y0103660D01*
X0100558Y0103761D01*
X0100428Y0103864D01*
X0100301Y0103971D01*
X0100177Y0104082D01*
X0100055Y0104195D01*
X0099936Y0104311D01*
X0099820Y0104430D01*
X0099707Y0104552D01*
X0099596Y0104676D01*
X0099489Y0104803D01*
X0099386Y0104933D01*
X0099285Y0105065D01*
X0099187Y0105200D01*
X0099093Y0105337D01*
X0099003Y0105476D01*
X0098916Y0105618D01*
X0098832Y0105762D01*
X0098752Y0105907D01*
X0098675Y0106055D01*
X0098602Y0106204D01*
X0098533Y0106355D01*
X0098468Y0106508D01*
X0098406Y0106662D01*
X0098348Y0106818D01*
X0098294Y0106975D01*
X0098244Y0107134D01*
X0098197Y0107294D01*
X0098155Y0107454D01*
X0098117Y0107616D01*
X0098082Y0107779D01*
X0098052Y0107942D01*
X0098025Y0108106D01*
X0098003Y0108271D01*
X0097985Y0108436D01*
X0097970Y0108602D01*
X0097960Y0108768D01*
X0097954Y0108934D01*
X0097952Y0109100D01*
X0123360Y0114983D02*
X0125377Y0118650D01*
X0127395Y0117708D01*
X0126689Y0116194D01*
X0124572Y0111653D01*
X0123360Y0114983D01*
X0126689Y0116194D01*
X0141858Y0121715D01*
X0148590Y0103217D01*
X0130092Y0096485D01*
X0124572Y0111653D01*
X0129202Y0109100D02*
X0129204Y0109266D01*
X0129210Y0109432D01*
X0129220Y0109598D01*
X0129235Y0109764D01*
X0129253Y0109929D01*
X0129275Y0110094D01*
X0129302Y0110258D01*
X0129332Y0110421D01*
X0129367Y0110584D01*
X0129405Y0110746D01*
X0129447Y0110906D01*
X0129494Y0111066D01*
X0129544Y0111225D01*
X0129598Y0111382D01*
X0129656Y0111538D01*
X0129718Y0111692D01*
X0129783Y0111845D01*
X0129852Y0111996D01*
X0129925Y0112145D01*
X0130002Y0112293D01*
X0130082Y0112438D01*
X0130166Y0112582D01*
X0130253Y0112724D01*
X0130343Y0112863D01*
X0130437Y0113000D01*
X0130535Y0113135D01*
X0130636Y0113267D01*
X0130739Y0113397D01*
X0130846Y0113524D01*
X0130957Y0113648D01*
X0131070Y0113770D01*
X0131186Y0113889D01*
X0131305Y0114005D01*
X0131427Y0114118D01*
X0131551Y0114229D01*
X0131678Y0114336D01*
X0131808Y0114439D01*
X0131940Y0114540D01*
X0132075Y0114638D01*
X0132212Y0114732D01*
X0132351Y0114822D01*
X0132493Y0114909D01*
X0132637Y0114993D01*
X0132782Y0115073D01*
X0132930Y0115150D01*
X0133079Y0115223D01*
X0133230Y0115292D01*
X0133383Y0115357D01*
X0133537Y0115419D01*
X0133693Y0115477D01*
X0133850Y0115531D01*
X0134009Y0115581D01*
X0134169Y0115628D01*
X0134329Y0115670D01*
X0134491Y0115708D01*
X0134654Y0115743D01*
X0134817Y0115773D01*
X0134981Y0115800D01*
X0135146Y0115822D01*
X0135311Y0115840D01*
X0135477Y0115855D01*
X0135643Y0115865D01*
X0135809Y0115871D01*
X0135975Y0115873D01*
X0136141Y0115871D01*
X0136307Y0115865D01*
X0136473Y0115855D01*
X0136639Y0115840D01*
X0136804Y0115822D01*
X0136969Y0115800D01*
X0137133Y0115773D01*
X0137296Y0115743D01*
X0137459Y0115708D01*
X0137621Y0115670D01*
X0137781Y0115628D01*
X0137941Y0115581D01*
X0138100Y0115531D01*
X0138257Y0115477D01*
X0138413Y0115419D01*
X0138567Y0115357D01*
X0138720Y0115292D01*
X0138871Y0115223D01*
X0139020Y0115150D01*
X0139168Y0115073D01*
X0139313Y0114993D01*
X0139457Y0114909D01*
X0139599Y0114822D01*
X0139738Y0114732D01*
X0139875Y0114638D01*
X0140010Y0114540D01*
X0140142Y0114439D01*
X0140272Y0114336D01*
X0140399Y0114229D01*
X0140523Y0114118D01*
X0140645Y0114005D01*
X0140764Y0113889D01*
X0140880Y0113770D01*
X0140993Y0113648D01*
X0141104Y0113524D01*
X0141211Y0113397D01*
X0141314Y0113267D01*
X0141415Y0113135D01*
X0141513Y0113000D01*
X0141607Y0112863D01*
X0141697Y0112724D01*
X0141784Y0112582D01*
X0141868Y0112438D01*
X0141948Y0112293D01*
X0142025Y0112145D01*
X0142098Y0111996D01*
X0142167Y0111845D01*
X0142232Y0111692D01*
X0142294Y0111538D01*
X0142352Y0111382D01*
X0142406Y0111225D01*
X0142456Y0111066D01*
X0142503Y0110906D01*
X0142545Y0110746D01*
X0142583Y0110584D01*
X0142618Y0110421D01*
X0142648Y0110258D01*
X0142675Y0110094D01*
X0142697Y0109929D01*
X0142715Y0109764D01*
X0142730Y0109598D01*
X0142740Y0109432D01*
X0142746Y0109266D01*
X0142748Y0109100D01*
X0142746Y0108934D01*
X0142740Y0108768D01*
X0142730Y0108602D01*
X0142715Y0108436D01*
X0142697Y0108271D01*
X0142675Y0108106D01*
X0142648Y0107942D01*
X0142618Y0107779D01*
X0142583Y0107616D01*
X0142545Y0107454D01*
X0142503Y0107294D01*
X0142456Y0107134D01*
X0142406Y0106975D01*
X0142352Y0106818D01*
X0142294Y0106662D01*
X0142232Y0106508D01*
X0142167Y0106355D01*
X0142098Y0106204D01*
X0142025Y0106055D01*
X0141948Y0105907D01*
X0141868Y0105762D01*
X0141784Y0105618D01*
X0141697Y0105476D01*
X0141607Y0105337D01*
X0141513Y0105200D01*
X0141415Y0105065D01*
X0141314Y0104933D01*
X0141211Y0104803D01*
X0141104Y0104676D01*
X0140993Y0104552D01*
X0140880Y0104430D01*
X0140764Y0104311D01*
X0140645Y0104195D01*
X0140523Y0104082D01*
X0140399Y0103971D01*
X0140272Y0103864D01*
X0140142Y0103761D01*
X0140010Y0103660D01*
X0139875Y0103562D01*
X0139738Y0103468D01*
X0139599Y0103378D01*
X0139457Y0103291D01*
X0139313Y0103207D01*
X0139168Y0103127D01*
X0139020Y0103050D01*
X0138871Y0102977D01*
X0138720Y0102908D01*
X0138567Y0102843D01*
X0138413Y0102781D01*
X0138257Y0102723D01*
X0138100Y0102669D01*
X0137941Y0102619D01*
X0137781Y0102572D01*
X0137621Y0102530D01*
X0137459Y0102492D01*
X0137296Y0102457D01*
X0137133Y0102427D01*
X0136969Y0102400D01*
X0136804Y0102378D01*
X0136639Y0102360D01*
X0136473Y0102345D01*
X0136307Y0102335D01*
X0136141Y0102329D01*
X0135975Y0102327D01*
X0135809Y0102329D01*
X0135643Y0102335D01*
X0135477Y0102345D01*
X0135311Y0102360D01*
X0135146Y0102378D01*
X0134981Y0102400D01*
X0134817Y0102427D01*
X0134654Y0102457D01*
X0134491Y0102492D01*
X0134329Y0102530D01*
X0134169Y0102572D01*
X0134009Y0102619D01*
X0133850Y0102669D01*
X0133693Y0102723D01*
X0133537Y0102781D01*
X0133383Y0102843D01*
X0133230Y0102908D01*
X0133079Y0102977D01*
X0132930Y0103050D01*
X0132782Y0103127D01*
X0132637Y0103207D01*
X0132493Y0103291D01*
X0132351Y0103378D01*
X0132212Y0103468D01*
X0132075Y0103562D01*
X0131940Y0103660D01*
X0131808Y0103761D01*
X0131678Y0103864D01*
X0131551Y0103971D01*
X0131427Y0104082D01*
X0131305Y0104195D01*
X0131186Y0104311D01*
X0131070Y0104430D01*
X0130957Y0104552D01*
X0130846Y0104676D01*
X0130739Y0104803D01*
X0130636Y0104933D01*
X0130535Y0105065D01*
X0130437Y0105200D01*
X0130343Y0105337D01*
X0130253Y0105476D01*
X0130166Y0105618D01*
X0130082Y0105762D01*
X0130002Y0105907D01*
X0129925Y0106055D01*
X0129852Y0106204D01*
X0129783Y0106355D01*
X0129718Y0106508D01*
X0129656Y0106662D01*
X0129598Y0106818D01*
X0129544Y0106975D01*
X0129494Y0107134D01*
X0129447Y0107294D01*
X0129405Y0107454D01*
X0129367Y0107616D01*
X0129332Y0107779D01*
X0129302Y0107942D01*
X0129275Y0108106D01*
X0129253Y0108271D01*
X0129235Y0108436D01*
X0129220Y0108602D01*
X0129210Y0108768D01*
X0129204Y0108934D01*
X0129202Y0109100D01*
X0159257Y0115399D02*
X0159257Y0099257D01*
X0178943Y0099257D01*
X0178943Y0118943D01*
X0162801Y0118943D01*
X0163982Y0120124D01*
X0162407Y0121698D01*
X0159257Y0118943D01*
X0162801Y0118943D01*
X0159257Y0115399D01*
X0159257Y0118943D01*
X0162327Y0109100D02*
X0162329Y0109266D01*
X0162335Y0109432D01*
X0162345Y0109598D01*
X0162360Y0109764D01*
X0162378Y0109929D01*
X0162400Y0110094D01*
X0162427Y0110258D01*
X0162457Y0110421D01*
X0162492Y0110584D01*
X0162530Y0110746D01*
X0162572Y0110906D01*
X0162619Y0111066D01*
X0162669Y0111225D01*
X0162723Y0111382D01*
X0162781Y0111538D01*
X0162843Y0111692D01*
X0162908Y0111845D01*
X0162977Y0111996D01*
X0163050Y0112145D01*
X0163127Y0112293D01*
X0163207Y0112438D01*
X0163291Y0112582D01*
X0163378Y0112724D01*
X0163468Y0112863D01*
X0163562Y0113000D01*
X0163660Y0113135D01*
X0163761Y0113267D01*
X0163864Y0113397D01*
X0163971Y0113524D01*
X0164082Y0113648D01*
X0164195Y0113770D01*
X0164311Y0113889D01*
X0164430Y0114005D01*
X0164552Y0114118D01*
X0164676Y0114229D01*
X0164803Y0114336D01*
X0164933Y0114439D01*
X0165065Y0114540D01*
X0165200Y0114638D01*
X0165337Y0114732D01*
X0165476Y0114822D01*
X0165618Y0114909D01*
X0165762Y0114993D01*
X0165907Y0115073D01*
X0166055Y0115150D01*
X0166204Y0115223D01*
X0166355Y0115292D01*
X0166508Y0115357D01*
X0166662Y0115419D01*
X0166818Y0115477D01*
X0166975Y0115531D01*
X0167134Y0115581D01*
X0167294Y0115628D01*
X0167454Y0115670D01*
X0167616Y0115708D01*
X0167779Y0115743D01*
X0167942Y0115773D01*
X0168106Y0115800D01*
X0168271Y0115822D01*
X0168436Y0115840D01*
X0168602Y0115855D01*
X0168768Y0115865D01*
X0168934Y0115871D01*
X0169100Y0115873D01*
X0169266Y0115871D01*
X0169432Y0115865D01*
X0169598Y0115855D01*
X0169764Y0115840D01*
X0169929Y0115822D01*
X0170094Y0115800D01*
X0170258Y0115773D01*
X0170421Y0115743D01*
X0170584Y0115708D01*
X0170746Y0115670D01*
X0170906Y0115628D01*
X0171066Y0115581D01*
X0171225Y0115531D01*
X0171382Y0115477D01*
X0171538Y0115419D01*
X0171692Y0115357D01*
X0171845Y0115292D01*
X0171996Y0115223D01*
X0172145Y0115150D01*
X0172293Y0115073D01*
X0172438Y0114993D01*
X0172582Y0114909D01*
X0172724Y0114822D01*
X0172863Y0114732D01*
X0173000Y0114638D01*
X0173135Y0114540D01*
X0173267Y0114439D01*
X0173397Y0114336D01*
X0173524Y0114229D01*
X0173648Y0114118D01*
X0173770Y0114005D01*
X0173889Y0113889D01*
X0174005Y0113770D01*
X0174118Y0113648D01*
X0174229Y0113524D01*
X0174336Y0113397D01*
X0174439Y0113267D01*
X0174540Y0113135D01*
X0174638Y0113000D01*
X0174732Y0112863D01*
X0174822Y0112724D01*
X0174909Y0112582D01*
X0174993Y0112438D01*
X0175073Y0112293D01*
X0175150Y0112145D01*
X0175223Y0111996D01*
X0175292Y0111845D01*
X0175357Y0111692D01*
X0175419Y0111538D01*
X0175477Y0111382D01*
X0175531Y0111225D01*
X0175581Y0111066D01*
X0175628Y0110906D01*
X0175670Y0110746D01*
X0175708Y0110584D01*
X0175743Y0110421D01*
X0175773Y0110258D01*
X0175800Y0110094D01*
X0175822Y0109929D01*
X0175840Y0109764D01*
X0175855Y0109598D01*
X0175865Y0109432D01*
X0175871Y0109266D01*
X0175873Y0109100D01*
X0175871Y0108934D01*
X0175865Y0108768D01*
X0175855Y0108602D01*
X0175840Y0108436D01*
X0175822Y0108271D01*
X0175800Y0108106D01*
X0175773Y0107942D01*
X0175743Y0107779D01*
X0175708Y0107616D01*
X0175670Y0107454D01*
X0175628Y0107294D01*
X0175581Y0107134D01*
X0175531Y0106975D01*
X0175477Y0106818D01*
X0175419Y0106662D01*
X0175357Y0106508D01*
X0175292Y0106355D01*
X0175223Y0106204D01*
X0175150Y0106055D01*
X0175073Y0105907D01*
X0174993Y0105762D01*
X0174909Y0105618D01*
X0174822Y0105476D01*
X0174732Y0105337D01*
X0174638Y0105200D01*
X0174540Y0105065D01*
X0174439Y0104933D01*
X0174336Y0104803D01*
X0174229Y0104676D01*
X0174118Y0104552D01*
X0174005Y0104430D01*
X0173889Y0104311D01*
X0173770Y0104195D01*
X0173648Y0104082D01*
X0173524Y0103971D01*
X0173397Y0103864D01*
X0173267Y0103761D01*
X0173135Y0103660D01*
X0173000Y0103562D01*
X0172863Y0103468D01*
X0172724Y0103378D01*
X0172582Y0103291D01*
X0172438Y0103207D01*
X0172293Y0103127D01*
X0172145Y0103050D01*
X0171996Y0102977D01*
X0171845Y0102908D01*
X0171692Y0102843D01*
X0171538Y0102781D01*
X0171382Y0102723D01*
X0171225Y0102669D01*
X0171066Y0102619D01*
X0170906Y0102572D01*
X0170746Y0102530D01*
X0170584Y0102492D01*
X0170421Y0102457D01*
X0170258Y0102427D01*
X0170094Y0102400D01*
X0169929Y0102378D01*
X0169764Y0102360D01*
X0169598Y0102345D01*
X0169432Y0102335D01*
X0169266Y0102329D01*
X0169100Y0102327D01*
X0168934Y0102329D01*
X0168768Y0102335D01*
X0168602Y0102345D01*
X0168436Y0102360D01*
X0168271Y0102378D01*
X0168106Y0102400D01*
X0167942Y0102427D01*
X0167779Y0102457D01*
X0167616Y0102492D01*
X0167454Y0102530D01*
X0167294Y0102572D01*
X0167134Y0102619D01*
X0166975Y0102669D01*
X0166818Y0102723D01*
X0166662Y0102781D01*
X0166508Y0102843D01*
X0166355Y0102908D01*
X0166204Y0102977D01*
X0166055Y0103050D01*
X0165907Y0103127D01*
X0165762Y0103207D01*
X0165618Y0103291D01*
X0165476Y0103378D01*
X0165337Y0103468D01*
X0165200Y0103562D01*
X0165065Y0103660D01*
X0164933Y0103761D01*
X0164803Y0103864D01*
X0164676Y0103971D01*
X0164552Y0104082D01*
X0164430Y0104195D01*
X0164311Y0104311D01*
X0164195Y0104430D01*
X0164082Y0104552D01*
X0163971Y0104676D01*
X0163864Y0104803D01*
X0163761Y0104933D01*
X0163660Y0105065D01*
X0163562Y0105200D01*
X0163468Y0105337D01*
X0163378Y0105476D01*
X0163291Y0105618D01*
X0163207Y0105762D01*
X0163127Y0105907D01*
X0163050Y0106055D01*
X0162977Y0106204D01*
X0162908Y0106355D01*
X0162843Y0106508D01*
X0162781Y0106662D01*
X0162723Y0106818D01*
X0162669Y0106975D01*
X0162619Y0107134D01*
X0162572Y0107294D01*
X0162530Y0107454D01*
X0162492Y0107616D01*
X0162457Y0107779D01*
X0162427Y0107942D01*
X0162400Y0108106D01*
X0162378Y0108271D01*
X0162360Y0108436D01*
X0162345Y0108602D01*
X0162335Y0108768D01*
X0162329Y0108934D01*
X0162327Y0109100D01*
X0176620Y0054080D02*
X0177801Y0054080D01*
X0176620Y0054080D02*
X0176620Y0039120D01*
X0177801Y0039120D01*
X0178100Y0039115D02*
X0176600Y0039115D01*
X0176600Y0039100D02*
X0176600Y0042100D01*
X0178100Y0040600D01*
X0178100Y0039100D01*
X0176600Y0039100D01*
X0176600Y0039613D02*
X0178100Y0039613D01*
X0178100Y0040112D02*
X0176600Y0040112D01*
X0176600Y0040610D02*
X0178090Y0040610D01*
X0177591Y0041109D02*
X0176600Y0041109D01*
X0176600Y0041607D02*
X0177093Y0041607D01*
X0190399Y0039120D02*
X0191580Y0039120D01*
X0191580Y0054080D01*
X0190399Y0054080D01*
X0140243Y0161757D02*
X0120557Y0161757D01*
X0120557Y0177899D01*
X0124101Y0181443D01*
X0125282Y0182624D01*
X0123707Y0184198D01*
X0120557Y0181443D01*
X0124101Y0181443D01*
X0140243Y0181443D01*
X0140243Y0161757D01*
X0123627Y0171600D02*
X0123629Y0171766D01*
X0123635Y0171932D01*
X0123645Y0172098D01*
X0123660Y0172264D01*
X0123678Y0172429D01*
X0123700Y0172594D01*
X0123727Y0172758D01*
X0123757Y0172921D01*
X0123792Y0173084D01*
X0123830Y0173246D01*
X0123872Y0173406D01*
X0123919Y0173566D01*
X0123969Y0173725D01*
X0124023Y0173882D01*
X0124081Y0174038D01*
X0124143Y0174192D01*
X0124208Y0174345D01*
X0124277Y0174496D01*
X0124350Y0174645D01*
X0124427Y0174793D01*
X0124507Y0174938D01*
X0124591Y0175082D01*
X0124678Y0175224D01*
X0124768Y0175363D01*
X0124862Y0175500D01*
X0124960Y0175635D01*
X0125061Y0175767D01*
X0125164Y0175897D01*
X0125271Y0176024D01*
X0125382Y0176148D01*
X0125495Y0176270D01*
X0125611Y0176389D01*
X0125730Y0176505D01*
X0125852Y0176618D01*
X0125976Y0176729D01*
X0126103Y0176836D01*
X0126233Y0176939D01*
X0126365Y0177040D01*
X0126500Y0177138D01*
X0126637Y0177232D01*
X0126776Y0177322D01*
X0126918Y0177409D01*
X0127062Y0177493D01*
X0127207Y0177573D01*
X0127355Y0177650D01*
X0127504Y0177723D01*
X0127655Y0177792D01*
X0127808Y0177857D01*
X0127962Y0177919D01*
X0128118Y0177977D01*
X0128275Y0178031D01*
X0128434Y0178081D01*
X0128594Y0178128D01*
X0128754Y0178170D01*
X0128916Y0178208D01*
X0129079Y0178243D01*
X0129242Y0178273D01*
X0129406Y0178300D01*
X0129571Y0178322D01*
X0129736Y0178340D01*
X0129902Y0178355D01*
X0130068Y0178365D01*
X0130234Y0178371D01*
X0130400Y0178373D01*
X0130566Y0178371D01*
X0130732Y0178365D01*
X0130898Y0178355D01*
X0131064Y0178340D01*
X0131229Y0178322D01*
X0131394Y0178300D01*
X0131558Y0178273D01*
X0131721Y0178243D01*
X0131884Y0178208D01*
X0132046Y0178170D01*
X0132206Y0178128D01*
X0132366Y0178081D01*
X0132525Y0178031D01*
X0132682Y0177977D01*
X0132838Y0177919D01*
X0132992Y0177857D01*
X0133145Y0177792D01*
X0133296Y0177723D01*
X0133445Y0177650D01*
X0133593Y0177573D01*
X0133738Y0177493D01*
X0133882Y0177409D01*
X0134024Y0177322D01*
X0134163Y0177232D01*
X0134300Y0177138D01*
X0134435Y0177040D01*
X0134567Y0176939D01*
X0134697Y0176836D01*
X0134824Y0176729D01*
X0134948Y0176618D01*
X0135070Y0176505D01*
X0135189Y0176389D01*
X0135305Y0176270D01*
X0135418Y0176148D01*
X0135529Y0176024D01*
X0135636Y0175897D01*
X0135739Y0175767D01*
X0135840Y0175635D01*
X0135938Y0175500D01*
X0136032Y0175363D01*
X0136122Y0175224D01*
X0136209Y0175082D01*
X0136293Y0174938D01*
X0136373Y0174793D01*
X0136450Y0174645D01*
X0136523Y0174496D01*
X0136592Y0174345D01*
X0136657Y0174192D01*
X0136719Y0174038D01*
X0136777Y0173882D01*
X0136831Y0173725D01*
X0136881Y0173566D01*
X0136928Y0173406D01*
X0136970Y0173246D01*
X0137008Y0173084D01*
X0137043Y0172921D01*
X0137073Y0172758D01*
X0137100Y0172594D01*
X0137122Y0172429D01*
X0137140Y0172264D01*
X0137155Y0172098D01*
X0137165Y0171932D01*
X0137171Y0171766D01*
X0137173Y0171600D01*
X0137171Y0171434D01*
X0137165Y0171268D01*
X0137155Y0171102D01*
X0137140Y0170936D01*
X0137122Y0170771D01*
X0137100Y0170606D01*
X0137073Y0170442D01*
X0137043Y0170279D01*
X0137008Y0170116D01*
X0136970Y0169954D01*
X0136928Y0169794D01*
X0136881Y0169634D01*
X0136831Y0169475D01*
X0136777Y0169318D01*
X0136719Y0169162D01*
X0136657Y0169008D01*
X0136592Y0168855D01*
X0136523Y0168704D01*
X0136450Y0168555D01*
X0136373Y0168407D01*
X0136293Y0168262D01*
X0136209Y0168118D01*
X0136122Y0167976D01*
X0136032Y0167837D01*
X0135938Y0167700D01*
X0135840Y0167565D01*
X0135739Y0167433D01*
X0135636Y0167303D01*
X0135529Y0167176D01*
X0135418Y0167052D01*
X0135305Y0166930D01*
X0135189Y0166811D01*
X0135070Y0166695D01*
X0134948Y0166582D01*
X0134824Y0166471D01*
X0134697Y0166364D01*
X0134567Y0166261D01*
X0134435Y0166160D01*
X0134300Y0166062D01*
X0134163Y0165968D01*
X0134024Y0165878D01*
X0133882Y0165791D01*
X0133738Y0165707D01*
X0133593Y0165627D01*
X0133445Y0165550D01*
X0133296Y0165477D01*
X0133145Y0165408D01*
X0132992Y0165343D01*
X0132838Y0165281D01*
X0132682Y0165223D01*
X0132525Y0165169D01*
X0132366Y0165119D01*
X0132206Y0165072D01*
X0132046Y0165030D01*
X0131884Y0164992D01*
X0131721Y0164957D01*
X0131558Y0164927D01*
X0131394Y0164900D01*
X0131229Y0164878D01*
X0131064Y0164860D01*
X0130898Y0164845D01*
X0130732Y0164835D01*
X0130566Y0164829D01*
X0130400Y0164827D01*
X0130234Y0164829D01*
X0130068Y0164835D01*
X0129902Y0164845D01*
X0129736Y0164860D01*
X0129571Y0164878D01*
X0129406Y0164900D01*
X0129242Y0164927D01*
X0129079Y0164957D01*
X0128916Y0164992D01*
X0128754Y0165030D01*
X0128594Y0165072D01*
X0128434Y0165119D01*
X0128275Y0165169D01*
X0128118Y0165223D01*
X0127962Y0165281D01*
X0127808Y0165343D01*
X0127655Y0165408D01*
X0127504Y0165477D01*
X0127355Y0165550D01*
X0127207Y0165627D01*
X0127062Y0165707D01*
X0126918Y0165791D01*
X0126776Y0165878D01*
X0126637Y0165968D01*
X0126500Y0166062D01*
X0126365Y0166160D01*
X0126233Y0166261D01*
X0126103Y0166364D01*
X0125976Y0166471D01*
X0125852Y0166582D01*
X0125730Y0166695D01*
X0125611Y0166811D01*
X0125495Y0166930D01*
X0125382Y0167052D01*
X0125271Y0167176D01*
X0125164Y0167303D01*
X0125061Y0167433D01*
X0124960Y0167565D01*
X0124862Y0167700D01*
X0124768Y0167837D01*
X0124678Y0167976D01*
X0124591Y0168118D01*
X0124507Y0168262D01*
X0124427Y0168407D01*
X0124350Y0168555D01*
X0124277Y0168704D01*
X0124208Y0168855D01*
X0124143Y0169008D01*
X0124081Y0169162D01*
X0124023Y0169318D01*
X0123969Y0169475D01*
X0123919Y0169634D01*
X0123872Y0169794D01*
X0123830Y0169954D01*
X0123792Y0170116D01*
X0123757Y0170279D01*
X0123727Y0170442D01*
X0123700Y0170606D01*
X0123678Y0170771D01*
X0123660Y0170936D01*
X0123645Y0171102D01*
X0123635Y0171268D01*
X0123629Y0171434D01*
X0123627Y0171600D01*
X0120557Y0177899D02*
X0120557Y0181443D01*
X0142483Y0221485D02*
X0149215Y0239983D01*
X0134047Y0245503D01*
X0135561Y0246209D01*
X0134620Y0248228D01*
X0130717Y0246715D01*
X0134047Y0245503D01*
X0129506Y0243386D01*
X0130717Y0246715D01*
X0129506Y0243386D02*
X0123985Y0228217D01*
X0142483Y0221485D01*
X0129827Y0234100D02*
X0129829Y0234266D01*
X0129835Y0234432D01*
X0129845Y0234598D01*
X0129860Y0234764D01*
X0129878Y0234929D01*
X0129900Y0235094D01*
X0129927Y0235258D01*
X0129957Y0235421D01*
X0129992Y0235584D01*
X0130030Y0235746D01*
X0130072Y0235906D01*
X0130119Y0236066D01*
X0130169Y0236225D01*
X0130223Y0236382D01*
X0130281Y0236538D01*
X0130343Y0236692D01*
X0130408Y0236845D01*
X0130477Y0236996D01*
X0130550Y0237145D01*
X0130627Y0237293D01*
X0130707Y0237438D01*
X0130791Y0237582D01*
X0130878Y0237724D01*
X0130968Y0237863D01*
X0131062Y0238000D01*
X0131160Y0238135D01*
X0131261Y0238267D01*
X0131364Y0238397D01*
X0131471Y0238524D01*
X0131582Y0238648D01*
X0131695Y0238770D01*
X0131811Y0238889D01*
X0131930Y0239005D01*
X0132052Y0239118D01*
X0132176Y0239229D01*
X0132303Y0239336D01*
X0132433Y0239439D01*
X0132565Y0239540D01*
X0132700Y0239638D01*
X0132837Y0239732D01*
X0132976Y0239822D01*
X0133118Y0239909D01*
X0133262Y0239993D01*
X0133407Y0240073D01*
X0133555Y0240150D01*
X0133704Y0240223D01*
X0133855Y0240292D01*
X0134008Y0240357D01*
X0134162Y0240419D01*
X0134318Y0240477D01*
X0134475Y0240531D01*
X0134634Y0240581D01*
X0134794Y0240628D01*
X0134954Y0240670D01*
X0135116Y0240708D01*
X0135279Y0240743D01*
X0135442Y0240773D01*
X0135606Y0240800D01*
X0135771Y0240822D01*
X0135936Y0240840D01*
X0136102Y0240855D01*
X0136268Y0240865D01*
X0136434Y0240871D01*
X0136600Y0240873D01*
X0136766Y0240871D01*
X0136932Y0240865D01*
X0137098Y0240855D01*
X0137264Y0240840D01*
X0137429Y0240822D01*
X0137594Y0240800D01*
X0137758Y0240773D01*
X0137921Y0240743D01*
X0138084Y0240708D01*
X0138246Y0240670D01*
X0138406Y0240628D01*
X0138566Y0240581D01*
X0138725Y0240531D01*
X0138882Y0240477D01*
X0139038Y0240419D01*
X0139192Y0240357D01*
X0139345Y0240292D01*
X0139496Y0240223D01*
X0139645Y0240150D01*
X0139793Y0240073D01*
X0139938Y0239993D01*
X0140082Y0239909D01*
X0140224Y0239822D01*
X0140363Y0239732D01*
X0140500Y0239638D01*
X0140635Y0239540D01*
X0140767Y0239439D01*
X0140897Y0239336D01*
X0141024Y0239229D01*
X0141148Y0239118D01*
X0141270Y0239005D01*
X0141389Y0238889D01*
X0141505Y0238770D01*
X0141618Y0238648D01*
X0141729Y0238524D01*
X0141836Y0238397D01*
X0141939Y0238267D01*
X0142040Y0238135D01*
X0142138Y0238000D01*
X0142232Y0237863D01*
X0142322Y0237724D01*
X0142409Y0237582D01*
X0142493Y0237438D01*
X0142573Y0237293D01*
X0142650Y0237145D01*
X0142723Y0236996D01*
X0142792Y0236845D01*
X0142857Y0236692D01*
X0142919Y0236538D01*
X0142977Y0236382D01*
X0143031Y0236225D01*
X0143081Y0236066D01*
X0143128Y0235906D01*
X0143170Y0235746D01*
X0143208Y0235584D01*
X0143243Y0235421D01*
X0143273Y0235258D01*
X0143300Y0235094D01*
X0143322Y0234929D01*
X0143340Y0234764D01*
X0143355Y0234598D01*
X0143365Y0234432D01*
X0143371Y0234266D01*
X0143373Y0234100D01*
X0143371Y0233934D01*
X0143365Y0233768D01*
X0143355Y0233602D01*
X0143340Y0233436D01*
X0143322Y0233271D01*
X0143300Y0233106D01*
X0143273Y0232942D01*
X0143243Y0232779D01*
X0143208Y0232616D01*
X0143170Y0232454D01*
X0143128Y0232294D01*
X0143081Y0232134D01*
X0143031Y0231975D01*
X0142977Y0231818D01*
X0142919Y0231662D01*
X0142857Y0231508D01*
X0142792Y0231355D01*
X0142723Y0231204D01*
X0142650Y0231055D01*
X0142573Y0230907D01*
X0142493Y0230762D01*
X0142409Y0230618D01*
X0142322Y0230476D01*
X0142232Y0230337D01*
X0142138Y0230200D01*
X0142040Y0230065D01*
X0141939Y0229933D01*
X0141836Y0229803D01*
X0141729Y0229676D01*
X0141618Y0229552D01*
X0141505Y0229430D01*
X0141389Y0229311D01*
X0141270Y0229195D01*
X0141148Y0229082D01*
X0141024Y0228971D01*
X0140897Y0228864D01*
X0140767Y0228761D01*
X0140635Y0228660D01*
X0140500Y0228562D01*
X0140363Y0228468D01*
X0140224Y0228378D01*
X0140082Y0228291D01*
X0139938Y0228207D01*
X0139793Y0228127D01*
X0139645Y0228050D01*
X0139496Y0227977D01*
X0139345Y0227908D01*
X0139192Y0227843D01*
X0139038Y0227781D01*
X0138882Y0227723D01*
X0138725Y0227669D01*
X0138566Y0227619D01*
X0138406Y0227572D01*
X0138246Y0227530D01*
X0138084Y0227492D01*
X0137921Y0227457D01*
X0137758Y0227427D01*
X0137594Y0227400D01*
X0137429Y0227378D01*
X0137264Y0227360D01*
X0137098Y0227345D01*
X0136932Y0227335D01*
X0136766Y0227329D01*
X0136600Y0227327D01*
X0136434Y0227329D01*
X0136268Y0227335D01*
X0136102Y0227345D01*
X0135936Y0227360D01*
X0135771Y0227378D01*
X0135606Y0227400D01*
X0135442Y0227427D01*
X0135279Y0227457D01*
X0135116Y0227492D01*
X0134954Y0227530D01*
X0134794Y0227572D01*
X0134634Y0227619D01*
X0134475Y0227669D01*
X0134318Y0227723D01*
X0134162Y0227781D01*
X0134008Y0227843D01*
X0133855Y0227908D01*
X0133704Y0227977D01*
X0133555Y0228050D01*
X0133407Y0228127D01*
X0133262Y0228207D01*
X0133118Y0228291D01*
X0132976Y0228378D01*
X0132837Y0228468D01*
X0132700Y0228562D01*
X0132565Y0228660D01*
X0132433Y0228761D01*
X0132303Y0228864D01*
X0132176Y0228971D01*
X0132052Y0229082D01*
X0131930Y0229195D01*
X0131811Y0229311D01*
X0131695Y0229430D01*
X0131582Y0229552D01*
X0131471Y0229676D01*
X0131364Y0229803D01*
X0131261Y0229933D01*
X0131160Y0230065D01*
X0131062Y0230200D01*
X0130968Y0230337D01*
X0130878Y0230476D01*
X0130791Y0230618D01*
X0130707Y0230762D01*
X0130627Y0230907D01*
X0130550Y0231055D01*
X0130477Y0231204D01*
X0130408Y0231355D01*
X0130343Y0231508D01*
X0130281Y0231662D01*
X0130223Y0231818D01*
X0130169Y0231975D01*
X0130119Y0232134D01*
X0130072Y0232294D01*
X0130030Y0232454D01*
X0129992Y0232616D01*
X0129957Y0232779D01*
X0129927Y0232942D01*
X0129900Y0233106D01*
X0129878Y0233271D01*
X0129860Y0233436D01*
X0129845Y0233602D01*
X0129835Y0233768D01*
X0129829Y0233934D01*
X0129827Y0234100D01*
X0159257Y0240399D02*
X0159257Y0224257D01*
X0178943Y0224257D01*
X0178943Y0243943D01*
X0162801Y0243943D01*
X0163982Y0245124D01*
X0162407Y0246698D01*
X0159257Y0243943D01*
X0162801Y0243943D01*
X0159257Y0240399D01*
X0159257Y0243943D01*
X0162327Y0234100D02*
X0162329Y0234266D01*
X0162335Y0234432D01*
X0162345Y0234598D01*
X0162360Y0234764D01*
X0162378Y0234929D01*
X0162400Y0235094D01*
X0162427Y0235258D01*
X0162457Y0235421D01*
X0162492Y0235584D01*
X0162530Y0235746D01*
X0162572Y0235906D01*
X0162619Y0236066D01*
X0162669Y0236225D01*
X0162723Y0236382D01*
X0162781Y0236538D01*
X0162843Y0236692D01*
X0162908Y0236845D01*
X0162977Y0236996D01*
X0163050Y0237145D01*
X0163127Y0237293D01*
X0163207Y0237438D01*
X0163291Y0237582D01*
X0163378Y0237724D01*
X0163468Y0237863D01*
X0163562Y0238000D01*
X0163660Y0238135D01*
X0163761Y0238267D01*
X0163864Y0238397D01*
X0163971Y0238524D01*
X0164082Y0238648D01*
X0164195Y0238770D01*
X0164311Y0238889D01*
X0164430Y0239005D01*
X0164552Y0239118D01*
X0164676Y0239229D01*
X0164803Y0239336D01*
X0164933Y0239439D01*
X0165065Y0239540D01*
X0165200Y0239638D01*
X0165337Y0239732D01*
X0165476Y0239822D01*
X0165618Y0239909D01*
X0165762Y0239993D01*
X0165907Y0240073D01*
X0166055Y0240150D01*
X0166204Y0240223D01*
X0166355Y0240292D01*
X0166508Y0240357D01*
X0166662Y0240419D01*
X0166818Y0240477D01*
X0166975Y0240531D01*
X0167134Y0240581D01*
X0167294Y0240628D01*
X0167454Y0240670D01*
X0167616Y0240708D01*
X0167779Y0240743D01*
X0167942Y0240773D01*
X0168106Y0240800D01*
X0168271Y0240822D01*
X0168436Y0240840D01*
X0168602Y0240855D01*
X0168768Y0240865D01*
X0168934Y0240871D01*
X0169100Y0240873D01*
X0169266Y0240871D01*
X0169432Y0240865D01*
X0169598Y0240855D01*
X0169764Y0240840D01*
X0169929Y0240822D01*
X0170094Y0240800D01*
X0170258Y0240773D01*
X0170421Y0240743D01*
X0170584Y0240708D01*
X0170746Y0240670D01*
X0170906Y0240628D01*
X0171066Y0240581D01*
X0171225Y0240531D01*
X0171382Y0240477D01*
X0171538Y0240419D01*
X0171692Y0240357D01*
X0171845Y0240292D01*
X0171996Y0240223D01*
X0172145Y0240150D01*
X0172293Y0240073D01*
X0172438Y0239993D01*
X0172582Y0239909D01*
X0172724Y0239822D01*
X0172863Y0239732D01*
X0173000Y0239638D01*
X0173135Y0239540D01*
X0173267Y0239439D01*
X0173397Y0239336D01*
X0173524Y0239229D01*
X0173648Y0239118D01*
X0173770Y0239005D01*
X0173889Y0238889D01*
X0174005Y0238770D01*
X0174118Y0238648D01*
X0174229Y0238524D01*
X0174336Y0238397D01*
X0174439Y0238267D01*
X0174540Y0238135D01*
X0174638Y0238000D01*
X0174732Y0237863D01*
X0174822Y0237724D01*
X0174909Y0237582D01*
X0174993Y0237438D01*
X0175073Y0237293D01*
X0175150Y0237145D01*
X0175223Y0236996D01*
X0175292Y0236845D01*
X0175357Y0236692D01*
X0175419Y0236538D01*
X0175477Y0236382D01*
X0175531Y0236225D01*
X0175581Y0236066D01*
X0175628Y0235906D01*
X0175670Y0235746D01*
X0175708Y0235584D01*
X0175743Y0235421D01*
X0175773Y0235258D01*
X0175800Y0235094D01*
X0175822Y0234929D01*
X0175840Y0234764D01*
X0175855Y0234598D01*
X0175865Y0234432D01*
X0175871Y0234266D01*
X0175873Y0234100D01*
X0175871Y0233934D01*
X0175865Y0233768D01*
X0175855Y0233602D01*
X0175840Y0233436D01*
X0175822Y0233271D01*
X0175800Y0233106D01*
X0175773Y0232942D01*
X0175743Y0232779D01*
X0175708Y0232616D01*
X0175670Y0232454D01*
X0175628Y0232294D01*
X0175581Y0232134D01*
X0175531Y0231975D01*
X0175477Y0231818D01*
X0175419Y0231662D01*
X0175357Y0231508D01*
X0175292Y0231355D01*
X0175223Y0231204D01*
X0175150Y0231055D01*
X0175073Y0230907D01*
X0174993Y0230762D01*
X0174909Y0230618D01*
X0174822Y0230476D01*
X0174732Y0230337D01*
X0174638Y0230200D01*
X0174540Y0230065D01*
X0174439Y0229933D01*
X0174336Y0229803D01*
X0174229Y0229676D01*
X0174118Y0229552D01*
X0174005Y0229430D01*
X0173889Y0229311D01*
X0173770Y0229195D01*
X0173648Y0229082D01*
X0173524Y0228971D01*
X0173397Y0228864D01*
X0173267Y0228761D01*
X0173135Y0228660D01*
X0173000Y0228562D01*
X0172863Y0228468D01*
X0172724Y0228378D01*
X0172582Y0228291D01*
X0172438Y0228207D01*
X0172293Y0228127D01*
X0172145Y0228050D01*
X0171996Y0227977D01*
X0171845Y0227908D01*
X0171692Y0227843D01*
X0171538Y0227781D01*
X0171382Y0227723D01*
X0171225Y0227669D01*
X0171066Y0227619D01*
X0170906Y0227572D01*
X0170746Y0227530D01*
X0170584Y0227492D01*
X0170421Y0227457D01*
X0170258Y0227427D01*
X0170094Y0227400D01*
X0169929Y0227378D01*
X0169764Y0227360D01*
X0169598Y0227345D01*
X0169432Y0227335D01*
X0169266Y0227329D01*
X0169100Y0227327D01*
X0168934Y0227329D01*
X0168768Y0227335D01*
X0168602Y0227345D01*
X0168436Y0227360D01*
X0168271Y0227378D01*
X0168106Y0227400D01*
X0167942Y0227427D01*
X0167779Y0227457D01*
X0167616Y0227492D01*
X0167454Y0227530D01*
X0167294Y0227572D01*
X0167134Y0227619D01*
X0166975Y0227669D01*
X0166818Y0227723D01*
X0166662Y0227781D01*
X0166508Y0227843D01*
X0166355Y0227908D01*
X0166204Y0227977D01*
X0166055Y0228050D01*
X0165907Y0228127D01*
X0165762Y0228207D01*
X0165618Y0228291D01*
X0165476Y0228378D01*
X0165337Y0228468D01*
X0165200Y0228562D01*
X0165065Y0228660D01*
X0164933Y0228761D01*
X0164803Y0228864D01*
X0164676Y0228971D01*
X0164552Y0229082D01*
X0164430Y0229195D01*
X0164311Y0229311D01*
X0164195Y0229430D01*
X0164082Y0229552D01*
X0163971Y0229676D01*
X0163864Y0229803D01*
X0163761Y0229933D01*
X0163660Y0230065D01*
X0163562Y0230200D01*
X0163468Y0230337D01*
X0163378Y0230476D01*
X0163291Y0230618D01*
X0163207Y0230762D01*
X0163127Y0230907D01*
X0163050Y0231055D01*
X0162977Y0231204D01*
X0162908Y0231355D01*
X0162843Y0231508D01*
X0162781Y0231662D01*
X0162723Y0231818D01*
X0162669Y0231975D01*
X0162619Y0232134D01*
X0162572Y0232294D01*
X0162530Y0232454D01*
X0162492Y0232616D01*
X0162457Y0232779D01*
X0162427Y0232942D01*
X0162400Y0233106D01*
X0162378Y0233271D01*
X0162360Y0233436D01*
X0162345Y0233602D01*
X0162335Y0233768D01*
X0162329Y0233934D01*
X0162327Y0234100D01*
X0098007Y0059198D02*
X0094857Y0056443D01*
X0098401Y0056443D01*
X0099582Y0057624D01*
X0098007Y0059198D01*
X0098401Y0056443D02*
X0094857Y0052899D01*
X0094857Y0056443D01*
X0094857Y0052899D02*
X0094857Y0036757D01*
X0114543Y0036757D01*
X0114543Y0056443D01*
X0098401Y0056443D01*
X0097927Y0046600D02*
X0097929Y0046766D01*
X0097935Y0046932D01*
X0097945Y0047098D01*
X0097960Y0047264D01*
X0097978Y0047429D01*
X0098000Y0047594D01*
X0098027Y0047758D01*
X0098057Y0047921D01*
X0098092Y0048084D01*
X0098130Y0048246D01*
X0098172Y0048406D01*
X0098219Y0048566D01*
X0098269Y0048725D01*
X0098323Y0048882D01*
X0098381Y0049038D01*
X0098443Y0049192D01*
X0098508Y0049345D01*
X0098577Y0049496D01*
X0098650Y0049645D01*
X0098727Y0049793D01*
X0098807Y0049938D01*
X0098891Y0050082D01*
X0098978Y0050224D01*
X0099068Y0050363D01*
X0099162Y0050500D01*
X0099260Y0050635D01*
X0099361Y0050767D01*
X0099464Y0050897D01*
X0099571Y0051024D01*
X0099682Y0051148D01*
X0099795Y0051270D01*
X0099911Y0051389D01*
X0100030Y0051505D01*
X0100152Y0051618D01*
X0100276Y0051729D01*
X0100403Y0051836D01*
X0100533Y0051939D01*
X0100665Y0052040D01*
X0100800Y0052138D01*
X0100937Y0052232D01*
X0101076Y0052322D01*
X0101218Y0052409D01*
X0101362Y0052493D01*
X0101507Y0052573D01*
X0101655Y0052650D01*
X0101804Y0052723D01*
X0101955Y0052792D01*
X0102108Y0052857D01*
X0102262Y0052919D01*
X0102418Y0052977D01*
X0102575Y0053031D01*
X0102734Y0053081D01*
X0102894Y0053128D01*
X0103054Y0053170D01*
X0103216Y0053208D01*
X0103379Y0053243D01*
X0103542Y0053273D01*
X0103706Y0053300D01*
X0103871Y0053322D01*
X0104036Y0053340D01*
X0104202Y0053355D01*
X0104368Y0053365D01*
X0104534Y0053371D01*
X0104700Y0053373D01*
X0104866Y0053371D01*
X0105032Y0053365D01*
X0105198Y0053355D01*
X0105364Y0053340D01*
X0105529Y0053322D01*
X0105694Y0053300D01*
X0105858Y0053273D01*
X0106021Y0053243D01*
X0106184Y0053208D01*
X0106346Y0053170D01*
X0106506Y0053128D01*
X0106666Y0053081D01*
X0106825Y0053031D01*
X0106982Y0052977D01*
X0107138Y0052919D01*
X0107292Y0052857D01*
X0107445Y0052792D01*
X0107596Y0052723D01*
X0107745Y0052650D01*
X0107893Y0052573D01*
X0108038Y0052493D01*
X0108182Y0052409D01*
X0108324Y0052322D01*
X0108463Y0052232D01*
X0108600Y0052138D01*
X0108735Y0052040D01*
X0108867Y0051939D01*
X0108997Y0051836D01*
X0109124Y0051729D01*
X0109248Y0051618D01*
X0109370Y0051505D01*
X0109489Y0051389D01*
X0109605Y0051270D01*
X0109718Y0051148D01*
X0109829Y0051024D01*
X0109936Y0050897D01*
X0110039Y0050767D01*
X0110140Y0050635D01*
X0110238Y0050500D01*
X0110332Y0050363D01*
X0110422Y0050224D01*
X0110509Y0050082D01*
X0110593Y0049938D01*
X0110673Y0049793D01*
X0110750Y0049645D01*
X0110823Y0049496D01*
X0110892Y0049345D01*
X0110957Y0049192D01*
X0111019Y0049038D01*
X0111077Y0048882D01*
X0111131Y0048725D01*
X0111181Y0048566D01*
X0111228Y0048406D01*
X0111270Y0048246D01*
X0111308Y0048084D01*
X0111343Y0047921D01*
X0111373Y0047758D01*
X0111400Y0047594D01*
X0111422Y0047429D01*
X0111440Y0047264D01*
X0111455Y0047098D01*
X0111465Y0046932D01*
X0111471Y0046766D01*
X0111473Y0046600D01*
X0111471Y0046434D01*
X0111465Y0046268D01*
X0111455Y0046102D01*
X0111440Y0045936D01*
X0111422Y0045771D01*
X0111400Y0045606D01*
X0111373Y0045442D01*
X0111343Y0045279D01*
X0111308Y0045116D01*
X0111270Y0044954D01*
X0111228Y0044794D01*
X0111181Y0044634D01*
X0111131Y0044475D01*
X0111077Y0044318D01*
X0111019Y0044162D01*
X0110957Y0044008D01*
X0110892Y0043855D01*
X0110823Y0043704D01*
X0110750Y0043555D01*
X0110673Y0043407D01*
X0110593Y0043262D01*
X0110509Y0043118D01*
X0110422Y0042976D01*
X0110332Y0042837D01*
X0110238Y0042700D01*
X0110140Y0042565D01*
X0110039Y0042433D01*
X0109936Y0042303D01*
X0109829Y0042176D01*
X0109718Y0042052D01*
X0109605Y0041930D01*
X0109489Y0041811D01*
X0109370Y0041695D01*
X0109248Y0041582D01*
X0109124Y0041471D01*
X0108997Y0041364D01*
X0108867Y0041261D01*
X0108735Y0041160D01*
X0108600Y0041062D01*
X0108463Y0040968D01*
X0108324Y0040878D01*
X0108182Y0040791D01*
X0108038Y0040707D01*
X0107893Y0040627D01*
X0107745Y0040550D01*
X0107596Y0040477D01*
X0107445Y0040408D01*
X0107292Y0040343D01*
X0107138Y0040281D01*
X0106982Y0040223D01*
X0106825Y0040169D01*
X0106666Y0040119D01*
X0106506Y0040072D01*
X0106346Y0040030D01*
X0106184Y0039992D01*
X0106021Y0039957D01*
X0105858Y0039927D01*
X0105694Y0039900D01*
X0105529Y0039878D01*
X0105364Y0039860D01*
X0105198Y0039845D01*
X0105032Y0039835D01*
X0104866Y0039829D01*
X0104700Y0039827D01*
X0104534Y0039829D01*
X0104368Y0039835D01*
X0104202Y0039845D01*
X0104036Y0039860D01*
X0103871Y0039878D01*
X0103706Y0039900D01*
X0103542Y0039927D01*
X0103379Y0039957D01*
X0103216Y0039992D01*
X0103054Y0040030D01*
X0102894Y0040072D01*
X0102734Y0040119D01*
X0102575Y0040169D01*
X0102418Y0040223D01*
X0102262Y0040281D01*
X0102108Y0040343D01*
X0101955Y0040408D01*
X0101804Y0040477D01*
X0101655Y0040550D01*
X0101507Y0040627D01*
X0101362Y0040707D01*
X0101218Y0040791D01*
X0101076Y0040878D01*
X0100937Y0040968D01*
X0100800Y0041062D01*
X0100665Y0041160D01*
X0100533Y0041261D01*
X0100403Y0041364D01*
X0100276Y0041471D01*
X0100152Y0041582D01*
X0100030Y0041695D01*
X0099911Y0041811D01*
X0099795Y0041930D01*
X0099682Y0042052D01*
X0099571Y0042176D01*
X0099464Y0042303D01*
X0099361Y0042433D01*
X0099260Y0042565D01*
X0099162Y0042700D01*
X0099068Y0042837D01*
X0098978Y0042976D01*
X0098891Y0043118D01*
X0098807Y0043262D01*
X0098727Y0043407D01*
X0098650Y0043555D01*
X0098577Y0043704D01*
X0098508Y0043855D01*
X0098443Y0044008D01*
X0098381Y0044162D01*
X0098323Y0044318D01*
X0098269Y0044475D01*
X0098219Y0044634D01*
X0098172Y0044794D01*
X0098130Y0044954D01*
X0098092Y0045116D01*
X0098057Y0045279D01*
X0098027Y0045442D01*
X0098000Y0045606D01*
X0097978Y0045771D01*
X0097960Y0045936D01*
X0097945Y0046102D01*
X0097935Y0046268D01*
X0097929Y0046434D01*
X0097927Y0046600D01*
D12*
X0180875Y0045500D02*
X0182343Y0045500D01*
X0183085Y0045500D02*
X0184553Y0045500D01*
X0183819Y0045500D02*
X0183819Y0047702D01*
X0183085Y0046968D01*
X0185295Y0046601D02*
X0186029Y0046968D01*
X0186396Y0046968D01*
X0186763Y0046601D01*
X0186763Y0045867D01*
X0186396Y0045500D01*
X0185662Y0045500D01*
X0185295Y0045867D01*
X0185295Y0046601D02*
X0185295Y0047702D01*
X0186763Y0047702D01*
X0180875Y0047702D02*
X0180875Y0045500D01*
D13*
X0181600Y0284100D02*
X0176600Y0284100D01*
X0176600Y0314100D02*
X0181600Y0314100D01*
X0036600Y0314100D02*
X0031600Y0314100D01*
X0031600Y0284100D02*
X0036600Y0284100D01*
M02*
