G75*
%MOIN*%
%OFA0B0*%
%FSLAX25Y25*%
%IPPOS*%
%LPD*%
%AMOC8*
5,1,8,0,0,1.08239X$1,22.5*
%
%ADD10R,0.05906X0.03543*%
%ADD11R,0.05118X0.05906*%
%ADD12R,0.05906X0.05118*%
%ADD13R,0.03346X0.03937*%
%ADD14C,0.07400*%
%ADD15C,0.04165*%
%ADD16C,0.04362*%
%ADD17C,0.01200*%
%ADD18C,0.01000*%
D10*
X0030704Y0102604D03*
X0030704Y0115596D03*
X0049996Y0115596D03*
X0049996Y0102604D03*
G36*
X0058145Y0108969D02*
X0063694Y0106949D01*
X0062483Y0103621D01*
X0056934Y0105641D01*
X0058145Y0108969D01*
G37*
G36*
X0062589Y0121177D02*
X0068138Y0119157D01*
X0066927Y0115829D01*
X0061378Y0117849D01*
X0062589Y0121177D01*
G37*
G36*
X0076273Y0102371D02*
X0081822Y0100351D01*
X0080611Y0097023D01*
X0075062Y0099043D01*
X0076273Y0102371D01*
G37*
G36*
X0080717Y0114579D02*
X0086266Y0112559D01*
X0085055Y0109231D01*
X0079506Y0111251D01*
X0080717Y0114579D01*
G37*
X0095079Y0115596D03*
X0095079Y0102604D03*
X0114371Y0102604D03*
X0114371Y0115596D03*
G36*
X0121309Y0112559D02*
X0126858Y0114579D01*
X0128069Y0111251D01*
X0122520Y0109231D01*
X0121309Y0112559D01*
G37*
G36*
X0125753Y0100351D02*
X0131302Y0102371D01*
X0132513Y0099043D01*
X0126964Y0097023D01*
X0125753Y0100351D01*
G37*
G36*
X0139437Y0119157D02*
X0144986Y0121177D01*
X0146197Y0117849D01*
X0140648Y0115829D01*
X0139437Y0119157D01*
G37*
G36*
X0143881Y0106949D02*
X0149430Y0108969D01*
X0150641Y0105641D01*
X0145092Y0103621D01*
X0143881Y0106949D01*
G37*
X0159454Y0102604D03*
X0159454Y0115596D03*
X0178746Y0115596D03*
X0178746Y0102604D03*
X0140046Y0165104D03*
X0140046Y0178096D03*
X0120754Y0178096D03*
X0120754Y0165104D03*
X0088946Y0165104D03*
X0088946Y0178096D03*
X0069654Y0178096D03*
X0069654Y0165104D03*
G36*
X0063253Y0225351D02*
X0068802Y0227371D01*
X0070013Y0224043D01*
X0064464Y0222023D01*
X0063253Y0225351D01*
G37*
G36*
X0058809Y0237559D02*
X0064358Y0239579D01*
X0065569Y0236251D01*
X0060020Y0234231D01*
X0058809Y0237559D01*
G37*
X0049996Y0240596D03*
X0049996Y0227604D03*
X0030704Y0227604D03*
X0030704Y0240596D03*
G36*
X0076937Y0244157D02*
X0082486Y0246177D01*
X0083697Y0242849D01*
X0078148Y0240829D01*
X0076937Y0244157D01*
G37*
G36*
X0081381Y0231949D02*
X0086930Y0233969D01*
X0088141Y0230641D01*
X0082592Y0228621D01*
X0081381Y0231949D01*
G37*
X0095079Y0227604D03*
X0095079Y0240596D03*
X0114371Y0240596D03*
X0114371Y0227604D03*
G36*
X0123145Y0233969D02*
X0128694Y0231949D01*
X0127483Y0228621D01*
X0121934Y0230641D01*
X0123145Y0233969D01*
G37*
G36*
X0127589Y0246177D02*
X0133138Y0244157D01*
X0131927Y0240829D01*
X0126378Y0242849D01*
X0127589Y0246177D01*
G37*
G36*
X0141273Y0227371D02*
X0146822Y0225351D01*
X0145611Y0222023D01*
X0140062Y0224043D01*
X0141273Y0227371D01*
G37*
G36*
X0145717Y0239579D02*
X0151266Y0237559D01*
X0150055Y0234231D01*
X0144506Y0236251D01*
X0145717Y0239579D01*
G37*
X0159454Y0240596D03*
X0159454Y0227604D03*
X0178746Y0227604D03*
X0178746Y0240596D03*
X0114346Y0290104D03*
X0114346Y0303096D03*
X0095054Y0303096D03*
X0095054Y0290104D03*
X0095054Y0053096D03*
X0095054Y0040104D03*
X0114346Y0040104D03*
X0114346Y0053096D03*
D11*
X0124110Y0040350D03*
X0131590Y0040350D03*
X0139110Y0089100D03*
X0146590Y0089100D03*
X0170360Y0094100D03*
X0177840Y0094100D03*
X0156590Y0166600D03*
X0149110Y0166600D03*
X0142840Y0215350D03*
X0135360Y0215350D03*
X0114090Y0215350D03*
X0106610Y0215350D03*
X0085340Y0215350D03*
X0077860Y0215350D03*
X0049090Y0217850D03*
X0041610Y0217850D03*
X0100360Y0166600D03*
X0107840Y0166600D03*
X0107860Y0089100D03*
X0115340Y0089100D03*
X0077840Y0089100D03*
X0070360Y0089100D03*
X0049090Y0094100D03*
X0041610Y0094100D03*
X0122060Y0289750D03*
X0129540Y0289750D03*
X0170360Y0217850D03*
X0177840Y0217850D03*
D12*
X0049100Y0290360D03*
X0049100Y0297840D03*
D13*
X0180655Y0053490D03*
X0187545Y0053490D03*
X0187545Y0039710D03*
X0180655Y0039710D03*
D14*
X0182800Y0289100D02*
X0175400Y0289100D01*
X0175400Y0299100D02*
X0182800Y0299100D01*
X0182800Y0309100D02*
X0175400Y0309100D01*
X0037800Y0309100D02*
X0030400Y0309100D01*
X0030400Y0299100D02*
X0037800Y0299100D01*
X0037800Y0289100D02*
X0030400Y0289100D01*
D15*
X0072850Y0276600D03*
X0157850Y0195350D03*
X0179100Y0197850D03*
X0161600Y0289100D03*
X0072850Y0070350D03*
X0049602Y0059100D03*
X0049800Y0034400D03*
X0159100Y0055350D03*
X0169100Y0046600D03*
X0185350Y0030350D03*
X0189100Y0064100D03*
D16*
X0179100Y0064100D03*
X0164100Y0040350D03*
X0120350Y0105350D03*
X0104100Y0109100D03*
X0142850Y0139100D03*
X0095350Y0209100D03*
X0089100Y0239100D03*
X0071600Y0219100D03*
X0059100Y0124100D03*
X0030350Y0064100D03*
X0034100Y0030350D03*
D17*
X0027511Y0023800D02*
X0018800Y0032511D01*
X0018800Y0160689D01*
X0028800Y0170689D01*
X0028800Y0172511D01*
X0027511Y0173800D01*
X0018800Y0182511D01*
X0018800Y0305689D01*
X0027511Y0314400D01*
X0185689Y0314400D01*
X0194400Y0305689D01*
X0194400Y0182511D01*
X0186234Y0174345D01*
X0186100Y0211217D01*
X0186122Y0212014D01*
X0186097Y0212040D01*
X0186097Y0212076D01*
X0185531Y0212638D01*
X0181799Y0216578D01*
X0181799Y0221383D01*
X0180979Y0222203D01*
X0180517Y0222203D01*
X0180612Y0224432D01*
X0182278Y0224432D01*
X0183098Y0225252D01*
X0183098Y0229342D01*
X0185539Y0231963D01*
X0186100Y0232524D01*
X0186100Y0232565D01*
X0186128Y0232595D01*
X0186100Y0233388D01*
X0186100Y0284928D01*
X0185970Y0285058D01*
X0187124Y0286211D01*
X0187900Y0288086D01*
X0187900Y0290114D01*
X0187124Y0291989D01*
X0185689Y0293424D01*
X0184056Y0294100D01*
X0185689Y0294776D01*
X0187124Y0296211D01*
X0187900Y0298086D01*
X0187900Y0300114D01*
X0187124Y0301989D01*
X0185689Y0303424D01*
X0184279Y0304008D01*
X0184834Y0304188D01*
X0185578Y0304567D01*
X0186253Y0305057D01*
X0186843Y0305647D01*
X0187333Y0306322D01*
X0187712Y0307066D01*
X0187969Y0307859D01*
X0188087Y0308600D01*
X0179600Y0308600D01*
X0179600Y0309600D01*
X0178600Y0309600D01*
X0178600Y0314400D01*
X0174983Y0314400D01*
X0174159Y0314269D01*
X0173366Y0314012D01*
X0172622Y0313633D01*
X0171947Y0313143D01*
X0171357Y0312553D01*
X0170867Y0311878D01*
X0170488Y0311134D01*
X0170230Y0310341D01*
X0170113Y0309600D01*
X0178600Y0309600D01*
X0178600Y0308600D01*
X0170113Y0308600D01*
X0170230Y0307859D01*
X0170488Y0307066D01*
X0170867Y0306322D01*
X0171357Y0305647D01*
X0171947Y0305057D01*
X0172622Y0304567D01*
X0173366Y0304188D01*
X0173921Y0304008D01*
X0172511Y0303424D01*
X0171076Y0301989D01*
X0170300Y0300114D01*
X0170300Y0298086D01*
X0171076Y0296211D01*
X0172511Y0294776D01*
X0174144Y0294100D01*
X0172511Y0293424D01*
X0171076Y0291989D01*
X0170300Y0290114D01*
X0170300Y0288228D01*
X0154604Y0303924D01*
X0153432Y0305096D01*
X0118698Y0305096D01*
X0118698Y0305448D01*
X0117878Y0306268D01*
X0110813Y0306268D01*
X0109993Y0305448D01*
X0109993Y0300745D01*
X0110813Y0299924D01*
X0117878Y0299924D01*
X0118698Y0300745D01*
X0118698Y0301096D01*
X0151776Y0301096D01*
X0160470Y0292402D01*
X0159627Y0292052D01*
X0158648Y0291073D01*
X0158117Y0289793D01*
X0158117Y0288446D01*
X0154522Y0284850D01*
X0128678Y0284850D01*
X0128331Y0285197D01*
X0128940Y0285197D01*
X0128940Y0289150D01*
X0130140Y0289150D01*
X0130140Y0285197D01*
X0132310Y0285197D01*
X0132717Y0285306D01*
X0133082Y0285517D01*
X0133380Y0285815D01*
X0133590Y0286180D01*
X0133699Y0286587D01*
X0133699Y0289150D01*
X0130140Y0289150D01*
X0130140Y0290350D01*
X0128940Y0290350D01*
X0128940Y0294303D01*
X0126770Y0294303D01*
X0126364Y0294194D01*
X0125999Y0293983D01*
X0125701Y0293685D01*
X0125670Y0293632D01*
X0125199Y0294103D01*
X0118921Y0294103D01*
X0118101Y0293283D01*
X0118101Y0293053D01*
X0117878Y0293276D01*
X0110813Y0293276D01*
X0109993Y0292455D01*
X0109993Y0288825D01*
X0107268Y0286100D01*
X0042012Y0286100D01*
X0042124Y0286211D01*
X0042900Y0288086D01*
X0042900Y0290114D01*
X0042124Y0291989D01*
X0040689Y0293424D01*
X0039056Y0294100D01*
X0040689Y0294776D01*
X0041753Y0295840D01*
X0044747Y0295840D01*
X0044747Y0294701D01*
X0045348Y0294100D01*
X0044747Y0293499D01*
X0044747Y0287221D01*
X0045567Y0286401D01*
X0052633Y0286401D01*
X0053453Y0287221D01*
X0053453Y0288360D01*
X0090702Y0288360D01*
X0090702Y0287752D01*
X0091522Y0286932D01*
X0098587Y0286932D01*
X0099407Y0287752D01*
X0099407Y0292455D01*
X0098587Y0293276D01*
X0091522Y0293276D01*
X0090702Y0292455D01*
X0090702Y0292360D01*
X0053453Y0292360D01*
X0053453Y0293499D01*
X0052852Y0294100D01*
X0053453Y0294701D01*
X0053453Y0300979D01*
X0052633Y0301799D01*
X0045567Y0301799D01*
X0044747Y0300979D01*
X0044747Y0299840D01*
X0042900Y0299840D01*
X0042900Y0300114D01*
X0042124Y0301989D01*
X0040689Y0303424D01*
X0039279Y0304008D01*
X0039834Y0304188D01*
X0040578Y0304567D01*
X0041253Y0305057D01*
X0041843Y0305647D01*
X0042333Y0306322D01*
X0042712Y0307066D01*
X0042969Y0307859D01*
X0043087Y0308600D01*
X0034600Y0308600D01*
X0034600Y0309600D01*
X0033600Y0309600D01*
X0033600Y0314400D01*
X0029983Y0314400D01*
X0029159Y0314269D01*
X0028366Y0314012D01*
X0027622Y0313633D01*
X0026947Y0313143D01*
X0026357Y0312553D01*
X0025867Y0311878D01*
X0025488Y0311134D01*
X0025230Y0310341D01*
X0025113Y0309600D01*
X0033600Y0309600D01*
X0033600Y0308600D01*
X0025113Y0308600D01*
X0025230Y0307859D01*
X0025488Y0307066D01*
X0025867Y0306322D01*
X0026357Y0305647D01*
X0026947Y0305057D01*
X0027622Y0304567D01*
X0028366Y0304188D01*
X0028921Y0304008D01*
X0027511Y0303424D01*
X0026076Y0301989D01*
X0025300Y0300114D01*
X0025300Y0298086D01*
X0026076Y0296211D01*
X0027511Y0294776D01*
X0029144Y0294100D01*
X0027511Y0293424D01*
X0026076Y0291989D01*
X0025300Y0290114D01*
X0025300Y0288086D01*
X0026076Y0286211D01*
X0027511Y0284776D01*
X0029386Y0284000D01*
X0036372Y0284000D01*
X0037100Y0283272D01*
X0037100Y0283272D01*
X0038272Y0282100D01*
X0039600Y0280772D01*
X0039600Y0234777D01*
X0040375Y0234003D01*
X0040376Y0233972D01*
X0040958Y0233420D01*
X0041525Y0232853D01*
X0041555Y0232853D01*
X0045643Y0228976D01*
X0045643Y0225252D01*
X0046463Y0224432D01*
X0047090Y0224432D01*
X0047090Y0222203D01*
X0045951Y0222203D01*
X0045480Y0221732D01*
X0045449Y0221785D01*
X0045151Y0222083D01*
X0044786Y0222294D01*
X0044380Y0222403D01*
X0042210Y0222403D01*
X0042210Y0218450D01*
X0041010Y0218450D01*
X0041010Y0222403D01*
X0038840Y0222403D01*
X0038433Y0222294D01*
X0038068Y0222083D01*
X0037770Y0221785D01*
X0037560Y0221420D01*
X0037451Y0221013D01*
X0037451Y0218450D01*
X0041010Y0218450D01*
X0041010Y0217250D01*
X0042210Y0217250D01*
X0042210Y0213297D01*
X0044380Y0213297D01*
X0044786Y0213406D01*
X0045151Y0213617D01*
X0045449Y0213915D01*
X0045480Y0213968D01*
X0045951Y0213497D01*
X0050614Y0213497D01*
X0051350Y0212762D01*
X0051350Y0196434D01*
X0051012Y0196768D01*
X0033074Y0214706D01*
X0032796Y0224432D01*
X0034237Y0224432D01*
X0035057Y0225252D01*
X0035057Y0229955D01*
X0034237Y0230776D01*
X0027172Y0230776D01*
X0026352Y0229955D01*
X0026352Y0225252D01*
X0027172Y0224432D01*
X0028794Y0224432D01*
X0029098Y0213825D01*
X0029098Y0213026D01*
X0029122Y0213002D01*
X0029123Y0212969D01*
X0029704Y0212419D01*
X0047606Y0194517D01*
X0047980Y0118768D01*
X0046463Y0118768D01*
X0045643Y0117948D01*
X0045643Y0113245D01*
X0046463Y0112424D01*
X0053528Y0112424D01*
X0054348Y0113245D01*
X0054348Y0117948D01*
X0053528Y0118768D01*
X0051980Y0118768D01*
X0051754Y0164539D01*
X0055780Y0160513D01*
X0056951Y0159342D01*
X0085665Y0159342D01*
X0088256Y0161932D01*
X0092478Y0161932D01*
X0093298Y0162752D01*
X0093298Y0162967D01*
X0096604Y0162864D01*
X0097221Y0162247D01*
X0102156Y0162247D01*
X0103748Y0160655D01*
X0104861Y0159542D01*
X0125033Y0159542D01*
X0126146Y0160655D01*
X0128695Y0163204D01*
X0135693Y0163204D01*
X0135693Y0162752D01*
X0136513Y0161932D01*
X0143578Y0161932D01*
X0144398Y0162752D01*
X0144398Y0163204D01*
X0145151Y0163204D01*
X0145151Y0163067D01*
X0145971Y0162247D01*
X0152249Y0162247D01*
X0152720Y0162718D01*
X0152751Y0162665D01*
X0153049Y0162367D01*
X0153414Y0162156D01*
X0153820Y0162047D01*
X0155990Y0162047D01*
X0155990Y0166000D01*
X0157190Y0166000D01*
X0157190Y0162047D01*
X0159360Y0162047D01*
X0159767Y0162156D01*
X0160132Y0162367D01*
X0160430Y0162665D01*
X0160640Y0163030D01*
X0160749Y0163437D01*
X0160749Y0166000D01*
X0157190Y0166000D01*
X0157190Y0167200D01*
X0155990Y0167200D01*
X0155990Y0171153D01*
X0153820Y0171153D01*
X0153414Y0171044D01*
X0153049Y0170833D01*
X0152751Y0170535D01*
X0152720Y0170482D01*
X0152249Y0170953D01*
X0148345Y0170953D01*
X0152955Y0175720D01*
X0153500Y0176265D01*
X0153500Y0176284D01*
X0153513Y0176297D01*
X0153500Y0177068D01*
X0153500Y0217387D01*
X0147572Y0223315D01*
X0148337Y0225418D01*
X0147847Y0226469D01*
X0141207Y0228885D01*
X0141048Y0228811D01*
X0132472Y0237387D01*
X0131359Y0238500D01*
X0123735Y0238500D01*
X0123717Y0238517D01*
X0122952Y0238500D01*
X0122186Y0238500D01*
X0122169Y0238482D01*
X0122144Y0238482D01*
X0121614Y0237928D01*
X0121073Y0237387D01*
X0121073Y0237362D01*
X0114775Y0230776D01*
X0113492Y0230776D01*
X0109381Y0234887D01*
X0108268Y0236000D01*
X0090974Y0236000D01*
X0091129Y0236064D01*
X0092136Y0237071D01*
X0092199Y0237224D01*
X0094793Y0237224D01*
X0094793Y0240310D01*
X0095365Y0240310D01*
X0095365Y0237224D01*
X0098243Y0237224D01*
X0098650Y0237333D01*
X0099015Y0237544D01*
X0099312Y0237842D01*
X0099523Y0238207D01*
X0099632Y0238614D01*
X0099632Y0240310D01*
X0095365Y0240310D01*
X0095365Y0240882D01*
X0094793Y0240882D01*
X0094793Y0243968D01*
X0094155Y0243968D01*
X0094887Y0244700D01*
X0107221Y0244700D01*
X0110018Y0242075D01*
X0110018Y0238245D01*
X0110838Y0237424D01*
X0117903Y0237424D01*
X0118723Y0238245D01*
X0118723Y0242948D01*
X0117903Y0243768D01*
X0113768Y0243768D01*
X0109295Y0247965D01*
X0108810Y0248450D01*
X0138313Y0248450D01*
X0145673Y0241090D01*
X0145673Y0241086D01*
X0145651Y0241094D01*
X0144600Y0240604D01*
X0142991Y0236184D01*
X0143481Y0235133D01*
X0150121Y0232717D01*
X0151172Y0233207D01*
X0152780Y0237626D01*
X0152290Y0238677D01*
X0149588Y0239661D01*
X0149416Y0242004D01*
X0149416Y0242721D01*
X0149359Y0242778D01*
X0149353Y0242858D01*
X0148810Y0243327D01*
X0141000Y0251137D01*
X0139887Y0252250D01*
X0073313Y0252250D01*
X0065103Y0244040D01*
X0065103Y0240998D01*
X0064843Y0241119D01*
X0064428Y0241192D01*
X0064009Y0241156D01*
X0061305Y0240171D01*
X0062360Y0237272D01*
X0061823Y0237076D01*
X0060767Y0239976D01*
X0058063Y0238992D01*
X0057718Y0238750D01*
X0057448Y0238427D01*
X0057270Y0238045D01*
X0057196Y0237631D01*
X0057233Y0237211D01*
X0057808Y0235630D01*
X0057428Y0236010D01*
X0057427Y0236010D01*
X0054348Y0239080D01*
X0054348Y0242948D01*
X0053528Y0243768D01*
X0046463Y0243768D01*
X0045643Y0242948D01*
X0045643Y0238245D01*
X0046463Y0237424D01*
X0050344Y0237424D01*
X0054600Y0233180D01*
X0054600Y0215169D01*
X0054178Y0215590D01*
X0053049Y0216719D01*
X0053049Y0221383D01*
X0052229Y0222203D01*
X0051090Y0222203D01*
X0051090Y0224432D01*
X0053528Y0224432D01*
X0054348Y0225252D01*
X0054348Y0229955D01*
X0053528Y0230776D01*
X0049558Y0230776D01*
X0043748Y0236286D01*
X0043600Y0236434D01*
X0043600Y0282100D01*
X0108924Y0282100D01*
X0110096Y0283272D01*
X0113757Y0286932D01*
X0117878Y0286932D01*
X0118101Y0287155D01*
X0118101Y0286217D01*
X0118921Y0285397D01*
X0122474Y0285397D01*
X0125850Y0282022D01*
X0127022Y0280850D01*
X0156178Y0280850D01*
X0160946Y0285617D01*
X0162293Y0285617D01*
X0163573Y0286148D01*
X0164552Y0287127D01*
X0164902Y0287970D01*
X0167100Y0285772D01*
X0167100Y0237428D01*
X0160447Y0230776D01*
X0155922Y0230776D01*
X0155102Y0229955D01*
X0155102Y0225252D01*
X0155922Y0224432D01*
X0162987Y0224432D01*
X0163151Y0224596D01*
X0163151Y0118786D01*
X0163025Y0118859D01*
X0162618Y0118968D01*
X0159740Y0118968D01*
X0159740Y0115882D01*
X0159168Y0115882D01*
X0159168Y0115310D01*
X0154902Y0115310D01*
X0154902Y0113614D01*
X0155011Y0113207D01*
X0155221Y0112842D01*
X0155519Y0112544D01*
X0155884Y0112333D01*
X0156291Y0112224D01*
X0159168Y0112224D01*
X0159168Y0115310D01*
X0159740Y0115310D01*
X0159740Y0112224D01*
X0162618Y0112224D01*
X0163025Y0112333D01*
X0163151Y0112406D01*
X0163151Y0108777D01*
X0159926Y0105776D01*
X0155922Y0105776D01*
X0155102Y0104955D01*
X0155102Y0100252D01*
X0155922Y0099432D01*
X0162987Y0099432D01*
X0163807Y0100252D01*
X0163807Y0103923D01*
X0164414Y0104489D01*
X0164414Y0104487D01*
X0164401Y0104473D01*
X0164401Y0103661D01*
X0164388Y0102849D01*
X0164401Y0102835D01*
X0164401Y0089118D01*
X0123883Y0048600D01*
X0112449Y0048600D01*
X0113872Y0049924D01*
X0117878Y0049924D01*
X0118698Y0050745D01*
X0118698Y0055448D01*
X0117878Y0056268D01*
X0110813Y0056268D01*
X0109993Y0055448D01*
X0109993Y0051779D01*
X0107920Y0049850D01*
X0098653Y0049850D01*
X0098990Y0050044D01*
X0099287Y0050342D01*
X0099498Y0050707D01*
X0099607Y0051114D01*
X0099607Y0052810D01*
X0095340Y0052810D01*
X0095340Y0053382D01*
X0094768Y0053382D01*
X0094768Y0052810D01*
X0090502Y0052810D01*
X0090502Y0051114D01*
X0090611Y0050707D01*
X0090821Y0050342D01*
X0091119Y0050044D01*
X0091455Y0049850D01*
X0054928Y0049850D01*
X0049161Y0055617D01*
X0050295Y0055617D01*
X0051575Y0056148D01*
X0052554Y0057127D01*
X0053085Y0058407D01*
X0053085Y0059793D01*
X0052554Y0061073D01*
X0051602Y0062025D01*
X0051602Y0089747D01*
X0052229Y0089747D01*
X0053049Y0090567D01*
X0053049Y0097200D01*
X0053049Y0097200D01*
X0053779Y0097157D01*
X0053828Y0097200D01*
X0076028Y0097200D01*
X0076172Y0097148D01*
X0076172Y0093453D01*
X0074701Y0093453D01*
X0074230Y0092982D01*
X0074199Y0093035D01*
X0073901Y0093333D01*
X0073536Y0093544D01*
X0073130Y0093653D01*
X0070960Y0093653D01*
X0070960Y0089700D01*
X0069760Y0089700D01*
X0069760Y0093653D01*
X0067590Y0093653D01*
X0067183Y0093544D01*
X0066818Y0093333D01*
X0066520Y0093035D01*
X0066310Y0092670D01*
X0066201Y0092263D01*
X0066201Y0089700D01*
X0069760Y0089700D01*
X0069760Y0088500D01*
X0070960Y0088500D01*
X0070960Y0084547D01*
X0073130Y0084547D01*
X0073536Y0084656D01*
X0073901Y0084867D01*
X0074199Y0085165D01*
X0074230Y0085218D01*
X0074701Y0084747D01*
X0080979Y0084747D01*
X0081799Y0085567D01*
X0081799Y0092633D01*
X0080979Y0093453D01*
X0079972Y0093453D01*
X0079972Y0095765D01*
X0080677Y0095508D01*
X0081728Y0095998D01*
X0082405Y0097858D01*
X0086344Y0097919D01*
X0088450Y0095813D01*
X0089563Y0094700D01*
X0107943Y0094700D01*
X0108699Y0094676D01*
X0108725Y0094700D01*
X0108760Y0094700D01*
X0109295Y0095235D01*
X0112323Y0098077D01*
X0112172Y0093424D01*
X0111730Y0092982D01*
X0111699Y0093035D01*
X0111401Y0093333D01*
X0111036Y0093544D01*
X0110630Y0093653D01*
X0108460Y0093653D01*
X0108460Y0089700D01*
X0107260Y0089700D01*
X0107260Y0093653D01*
X0105090Y0093653D01*
X0104683Y0093544D01*
X0104318Y0093333D01*
X0104020Y0093035D01*
X0103810Y0092670D01*
X0103701Y0092263D01*
X0103701Y0089700D01*
X0107260Y0089700D01*
X0107260Y0088500D01*
X0108460Y0088500D01*
X0108460Y0084547D01*
X0110630Y0084547D01*
X0111036Y0084656D01*
X0111401Y0084867D01*
X0111699Y0085165D01*
X0111730Y0085218D01*
X0112201Y0084747D01*
X0118479Y0084747D01*
X0119299Y0085567D01*
X0119299Y0092633D01*
X0118479Y0093453D01*
X0115975Y0093453D01*
X0116123Y0098014D01*
X0120581Y0093339D01*
X0120581Y0093313D01*
X0121121Y0092772D01*
X0121649Y0092219D01*
X0121675Y0092219D01*
X0121694Y0092200D01*
X0122458Y0092200D01*
X0123223Y0092182D01*
X0123242Y0092200D01*
X0131137Y0092200D01*
X0142896Y0103959D01*
X0143479Y0103959D01*
X0143975Y0102596D01*
X0144690Y0102263D01*
X0144690Y0093453D01*
X0143451Y0093453D01*
X0142980Y0092982D01*
X0142949Y0093035D01*
X0142651Y0093333D01*
X0142286Y0093544D01*
X0141880Y0093653D01*
X0139710Y0093653D01*
X0139710Y0089700D01*
X0138510Y0089700D01*
X0138510Y0093653D01*
X0136340Y0093653D01*
X0135933Y0093544D01*
X0135568Y0093333D01*
X0135270Y0093035D01*
X0135060Y0092670D01*
X0134951Y0092263D01*
X0134951Y0089700D01*
X0138510Y0089700D01*
X0138510Y0088500D01*
X0139710Y0088500D01*
X0139710Y0084547D01*
X0141880Y0084547D01*
X0142286Y0084656D01*
X0142651Y0084867D01*
X0142949Y0085165D01*
X0142980Y0085218D01*
X0143451Y0084747D01*
X0149729Y0084747D01*
X0150549Y0085567D01*
X0150549Y0092633D01*
X0149729Y0093453D01*
X0148490Y0093453D01*
X0148490Y0103367D01*
X0151665Y0104523D01*
X0152155Y0105574D01*
X0150547Y0109993D01*
X0149496Y0110483D01*
X0142856Y0108067D01*
X0142713Y0107759D01*
X0141322Y0107759D01*
X0133630Y0100067D01*
X0133396Y0100709D01*
X0134887Y0102200D01*
X0136000Y0103313D01*
X0136000Y0114887D01*
X0134887Y0116000D01*
X0124887Y0126000D01*
X0095339Y0126000D01*
X0095323Y0126016D01*
X0094556Y0126000D01*
X0093789Y0126000D01*
X0093772Y0125983D01*
X0093749Y0125983D01*
X0093218Y0125429D01*
X0092676Y0124887D01*
X0092676Y0124864D01*
X0083333Y0115118D01*
X0080651Y0116094D01*
X0079600Y0115604D01*
X0077991Y0111184D01*
X0078481Y0110133D01*
X0085121Y0107717D01*
X0086172Y0108207D01*
X0087780Y0112626D01*
X0087290Y0113677D01*
X0087236Y0113697D01*
X0090527Y0117130D01*
X0090527Y0115882D01*
X0094793Y0115882D01*
X0094793Y0115310D01*
X0090527Y0115310D01*
X0090527Y0113614D01*
X0090636Y0113207D01*
X0090846Y0112842D01*
X0091144Y0112544D01*
X0091509Y0112333D01*
X0091916Y0112224D01*
X0094793Y0112224D01*
X0094793Y0115310D01*
X0095365Y0115310D01*
X0095365Y0112224D01*
X0098243Y0112224D01*
X0098650Y0112333D01*
X0099015Y0112544D01*
X0099312Y0112842D01*
X0099523Y0113207D01*
X0099632Y0113614D01*
X0099632Y0115310D01*
X0095365Y0115310D01*
X0095365Y0115882D01*
X0094793Y0115882D01*
X0094793Y0118968D01*
X0092288Y0118968D01*
X0095386Y0122200D01*
X0123313Y0122200D01*
X0132200Y0113313D01*
X0132200Y0104887D01*
X0131101Y0103788D01*
X0124728Y0101469D01*
X0124238Y0100418D01*
X0125846Y0096000D01*
X0123294Y0096000D01*
X0118723Y0100793D01*
X0118723Y0102148D01*
X0119638Y0101769D01*
X0121062Y0101769D01*
X0122379Y0102314D01*
X0123386Y0103321D01*
X0123931Y0104638D01*
X0123931Y0106062D01*
X0123386Y0107379D01*
X0123045Y0107719D01*
X0125574Y0108639D01*
X0124518Y0111539D01*
X0125056Y0111734D01*
X0126111Y0108835D01*
X0128815Y0109819D01*
X0129160Y0110061D01*
X0129431Y0110383D01*
X0129609Y0110765D01*
X0129682Y0111180D01*
X0129645Y0111600D01*
X0129065Y0113194D01*
X0125056Y0111734D01*
X0124860Y0112272D01*
X0124323Y0112076D01*
X0123267Y0114976D01*
X0120563Y0113992D01*
X0120218Y0113750D01*
X0119948Y0113427D01*
X0119770Y0113045D01*
X0119706Y0112686D01*
X0118723Y0113734D01*
X0118723Y0117948D01*
X0117903Y0118768D01*
X0110838Y0118768D01*
X0110018Y0117948D01*
X0110018Y0113245D01*
X0110838Y0112424D01*
X0114741Y0112424D01*
X0118450Y0108471D01*
X0118450Y0108439D01*
X0118321Y0108386D01*
X0117314Y0107379D01*
X0116769Y0106062D01*
X0116769Y0105776D01*
X0110838Y0105776D01*
X0110018Y0104955D01*
X0110018Y0101125D01*
X0107221Y0098500D01*
X0091137Y0098500D01*
X0089006Y0100630D01*
X0089006Y0100648D01*
X0088452Y0101185D01*
X0087906Y0101731D01*
X0087888Y0101731D01*
X0087876Y0101743D01*
X0087104Y0101731D01*
X0086332Y0101731D01*
X0086319Y0101719D01*
X0082329Y0101657D01*
X0076207Y0103885D01*
X0075156Y0103395D01*
X0074284Y0101000D01*
X0054348Y0101000D01*
X0054348Y0104955D01*
X0053528Y0105776D01*
X0046463Y0105776D01*
X0045643Y0104955D01*
X0045643Y0100252D01*
X0046463Y0099432D01*
X0047837Y0099432D01*
X0047789Y0098453D01*
X0045951Y0098453D01*
X0045480Y0097982D01*
X0045449Y0098035D01*
X0045151Y0098333D01*
X0044786Y0098544D01*
X0044380Y0098653D01*
X0042210Y0098653D01*
X0042210Y0094700D01*
X0041010Y0094700D01*
X0041010Y0098653D01*
X0038840Y0098653D01*
X0038433Y0098544D01*
X0038068Y0098333D01*
X0037770Y0098035D01*
X0037560Y0097670D01*
X0037451Y0097263D01*
X0037451Y0094700D01*
X0041010Y0094700D01*
X0041010Y0093500D01*
X0042210Y0093500D01*
X0042210Y0089547D01*
X0044380Y0089547D01*
X0044786Y0089656D01*
X0045151Y0089867D01*
X0045449Y0090165D01*
X0045480Y0090218D01*
X0045951Y0089747D01*
X0047602Y0089747D01*
X0047602Y0062025D01*
X0046649Y0061073D01*
X0046119Y0059793D01*
X0046119Y0058659D01*
X0033088Y0071691D01*
X0032744Y0099432D01*
X0034237Y0099432D01*
X0035057Y0100252D01*
X0035057Y0104955D01*
X0034237Y0105776D01*
X0027172Y0105776D01*
X0026352Y0104955D01*
X0026352Y0100252D01*
X0027172Y0099432D01*
X0028744Y0099432D01*
X0029098Y0070839D01*
X0029098Y0070024D01*
X0029108Y0070013D01*
X0029108Y0069999D01*
X0029693Y0069429D01*
X0031708Y0067414D01*
X0031062Y0067681D01*
X0029638Y0067681D01*
X0028321Y0067136D01*
X0027314Y0066129D01*
X0026769Y0064812D01*
X0026769Y0063388D01*
X0027314Y0062071D01*
X0028321Y0061064D01*
X0029638Y0060519D01*
X0031062Y0060519D01*
X0032379Y0061064D01*
X0033386Y0062071D01*
X0033931Y0063388D01*
X0033931Y0064812D01*
X0033664Y0065458D01*
X0052100Y0047022D01*
X0053272Y0045850D01*
X0108022Y0045850D01*
X0104276Y0042104D01*
X0099407Y0042104D01*
X0099407Y0042455D01*
X0098587Y0043276D01*
X0091522Y0043276D01*
X0090702Y0042455D01*
X0090702Y0037752D01*
X0091522Y0036932D01*
X0098587Y0036932D01*
X0099407Y0037752D01*
X0099407Y0038104D01*
X0105932Y0038104D01*
X0109993Y0042165D01*
X0109993Y0038771D01*
X0107458Y0036400D01*
X0052725Y0036400D01*
X0051773Y0037352D01*
X0050493Y0037883D01*
X0049107Y0037883D01*
X0047827Y0037352D01*
X0046848Y0036373D01*
X0046317Y0035093D01*
X0046317Y0033707D01*
X0046848Y0032427D01*
X0047827Y0031448D01*
X0049107Y0030917D01*
X0050493Y0030917D01*
X0051773Y0031448D01*
X0052725Y0032400D01*
X0108215Y0032400D01*
X0109009Y0032373D01*
X0109038Y0032400D01*
X0109076Y0032400D01*
X0109639Y0032962D01*
X0113883Y0036932D01*
X0117878Y0036932D01*
X0118698Y0037752D01*
X0118698Y0038104D01*
X0120151Y0038104D01*
X0120151Y0036817D01*
X0120971Y0035997D01*
X0125631Y0035997D01*
X0125631Y0035989D01*
X0127098Y0034522D01*
X0128270Y0033350D01*
X0184013Y0033350D01*
X0187005Y0036342D01*
X0189798Y0036342D01*
X0190618Y0037162D01*
X0190618Y0042259D01*
X0189798Y0043079D01*
X0185292Y0043079D01*
X0184472Y0042259D01*
X0184472Y0039465D01*
X0183728Y0038722D01*
X0183728Y0042259D01*
X0182908Y0043079D01*
X0178402Y0043079D01*
X0177582Y0042259D01*
X0177582Y0042250D01*
X0167189Y0042250D01*
X0167136Y0042379D01*
X0166129Y0043386D01*
X0164812Y0043931D01*
X0163388Y0043931D01*
X0162071Y0043386D01*
X0161064Y0042379D01*
X0160519Y0041062D01*
X0160519Y0039638D01*
X0161064Y0038321D01*
X0162036Y0037350D01*
X0155178Y0037350D01*
X0178359Y0060531D01*
X0178388Y0060519D01*
X0179812Y0060519D01*
X0181129Y0061064D01*
X0182136Y0062071D01*
X0182681Y0063388D01*
X0182681Y0064812D01*
X0182136Y0066129D01*
X0181129Y0067136D01*
X0181100Y0067148D01*
X0181100Y0089868D01*
X0181799Y0090567D01*
X0181799Y0097633D01*
X0180979Y0098453D01*
X0180544Y0098453D01*
X0180592Y0099432D01*
X0182278Y0099432D01*
X0183098Y0100252D01*
X0183098Y0104128D01*
X0185249Y0106279D01*
X0186421Y0107451D01*
X0186421Y0122022D01*
X0186424Y0122025D01*
X0186421Y0122849D01*
X0186421Y0123675D01*
X0186418Y0123678D01*
X0186254Y0168835D01*
X0194400Y0160689D01*
X0194400Y0032511D01*
X0185689Y0023800D01*
X0027511Y0023800D01*
X0027294Y0024017D02*
X0185906Y0024017D01*
X0187104Y0025215D02*
X0026096Y0025215D01*
X0024897Y0026414D02*
X0188303Y0026414D01*
X0189501Y0027612D02*
X0023699Y0027612D01*
X0022500Y0028811D02*
X0190700Y0028811D01*
X0191898Y0030009D02*
X0021302Y0030009D01*
X0020103Y0031208D02*
X0048406Y0031208D01*
X0046868Y0032406D02*
X0018905Y0032406D01*
X0018800Y0033605D02*
X0046360Y0033605D01*
X0046317Y0034803D02*
X0018800Y0034803D01*
X0018800Y0036002D02*
X0046694Y0036002D01*
X0047675Y0037201D02*
X0018800Y0037201D01*
X0018800Y0038399D02*
X0090702Y0038399D01*
X0090702Y0039598D02*
X0018800Y0039598D01*
X0018800Y0040796D02*
X0090702Y0040796D01*
X0090702Y0041995D02*
X0018800Y0041995D01*
X0018800Y0043193D02*
X0091439Y0043193D01*
X0091253Y0037201D02*
X0051925Y0037201D01*
X0049800Y0034400D02*
X0108248Y0034400D01*
X0114346Y0040104D01*
X0123864Y0040104D01*
X0124110Y0040350D01*
X0127631Y0036829D01*
X0127631Y0036817D01*
X0129098Y0035350D01*
X0150350Y0035350D01*
X0179100Y0064100D01*
X0179100Y0092840D01*
X0177840Y0094100D01*
X0178352Y0094612D01*
X0178746Y0102604D01*
X0184421Y0108279D01*
X0184421Y0122847D01*
X0184100Y0211240D01*
X0177840Y0217850D01*
X0178352Y0218362D01*
X0178746Y0227604D01*
X0184100Y0233352D01*
X0184100Y0284100D01*
X0179100Y0289100D01*
X0173135Y0293682D02*
X0164846Y0293682D01*
X0163648Y0294880D02*
X0172407Y0294880D01*
X0171209Y0296079D02*
X0162449Y0296079D01*
X0161251Y0297277D02*
X0170635Y0297277D01*
X0170300Y0298476D02*
X0160052Y0298476D01*
X0158854Y0299674D02*
X0170300Y0299674D01*
X0170614Y0300873D02*
X0157655Y0300873D01*
X0156457Y0302072D02*
X0171159Y0302072D01*
X0172358Y0303270D02*
X0155258Y0303270D01*
X0154060Y0304469D02*
X0172815Y0304469D01*
X0171343Y0305667D02*
X0118479Y0305667D01*
X0118698Y0300873D02*
X0151999Y0300873D01*
X0153197Y0299674D02*
X0053453Y0299674D01*
X0053453Y0298476D02*
X0154396Y0298476D01*
X0155594Y0297277D02*
X0053453Y0297277D01*
X0053453Y0296079D02*
X0156793Y0296079D01*
X0157991Y0294880D02*
X0053453Y0294880D01*
X0053270Y0293682D02*
X0118500Y0293682D01*
X0121706Y0290104D02*
X0122060Y0289750D01*
X0122060Y0288640D01*
X0127850Y0282850D01*
X0155350Y0282850D01*
X0161600Y0289100D01*
X0164785Y0287689D02*
X0165182Y0287689D01*
X0166381Y0286491D02*
X0163916Y0286491D01*
X0167100Y0285292D02*
X0160621Y0285292D01*
X0159422Y0284094D02*
X0167100Y0284094D01*
X0167100Y0282895D02*
X0158224Y0282895D01*
X0157025Y0281697D02*
X0167100Y0281697D01*
X0167100Y0280498D02*
X0043600Y0280498D01*
X0043600Y0279300D02*
X0167100Y0279300D01*
X0167100Y0278101D02*
X0043600Y0278101D01*
X0043600Y0276903D02*
X0167100Y0276903D01*
X0167100Y0275704D02*
X0043600Y0275704D01*
X0043600Y0274506D02*
X0167100Y0274506D01*
X0167100Y0273307D02*
X0043600Y0273307D01*
X0043600Y0272109D02*
X0167100Y0272109D01*
X0167100Y0270910D02*
X0043600Y0270910D01*
X0043600Y0269712D02*
X0167100Y0269712D01*
X0167100Y0268513D02*
X0043600Y0268513D01*
X0043600Y0267315D02*
X0167100Y0267315D01*
X0167100Y0266116D02*
X0043600Y0266116D01*
X0043600Y0264918D02*
X0167100Y0264918D01*
X0167100Y0263719D02*
X0043600Y0263719D01*
X0043600Y0262521D02*
X0167100Y0262521D01*
X0167100Y0261322D02*
X0043600Y0261322D01*
X0043600Y0260124D02*
X0167100Y0260124D01*
X0167100Y0258925D02*
X0043600Y0258925D01*
X0043600Y0257727D02*
X0167100Y0257727D01*
X0167100Y0256528D02*
X0043600Y0256528D01*
X0043600Y0255330D02*
X0167100Y0255330D01*
X0167100Y0254131D02*
X0043600Y0254131D01*
X0043600Y0252933D02*
X0167100Y0252933D01*
X0167100Y0251734D02*
X0140403Y0251734D01*
X0141601Y0250536D02*
X0167100Y0250536D01*
X0167100Y0249337D02*
X0142800Y0249337D01*
X0143998Y0248139D02*
X0167100Y0248139D01*
X0167100Y0246940D02*
X0145197Y0246940D01*
X0146395Y0245741D02*
X0167100Y0245741D01*
X0167100Y0244543D02*
X0147594Y0244543D01*
X0148793Y0243344D02*
X0155218Y0243344D01*
X0155221Y0243350D02*
X0155011Y0242985D01*
X0154902Y0242578D01*
X0154902Y0240882D01*
X0159168Y0240882D01*
X0159168Y0240310D01*
X0154902Y0240310D01*
X0154902Y0238614D01*
X0155011Y0238207D01*
X0155221Y0237842D01*
X0155519Y0237544D01*
X0155884Y0237333D01*
X0156291Y0237224D01*
X0159168Y0237224D01*
X0159168Y0240310D01*
X0159740Y0240310D01*
X0159740Y0237224D01*
X0162618Y0237224D01*
X0163025Y0237333D01*
X0163390Y0237544D01*
X0163687Y0237842D01*
X0163898Y0238207D01*
X0164007Y0238614D01*
X0164007Y0240310D01*
X0159740Y0240310D01*
X0159740Y0240882D01*
X0159168Y0240882D01*
X0159168Y0243968D01*
X0156291Y0243968D01*
X0155884Y0243859D01*
X0155519Y0243648D01*
X0155221Y0243350D01*
X0154902Y0242146D02*
X0149416Y0242146D01*
X0149494Y0240947D02*
X0154902Y0240947D01*
X0154902Y0239749D02*
X0149582Y0239749D01*
X0152244Y0236153D02*
X0165825Y0236153D01*
X0164626Y0234955D02*
X0151808Y0234955D01*
X0151372Y0233756D02*
X0163428Y0233756D01*
X0162229Y0232558D02*
X0137301Y0232558D01*
X0136103Y0233756D02*
X0147264Y0233756D01*
X0143971Y0234955D02*
X0134904Y0234955D01*
X0133706Y0236153D02*
X0143006Y0236153D01*
X0143416Y0237352D02*
X0132507Y0237352D01*
X0131997Y0239216D02*
X0132412Y0239289D01*
X0132794Y0239468D01*
X0133116Y0239738D01*
X0133358Y0240083D01*
X0133938Y0241678D01*
X0129929Y0243137D01*
X0130124Y0243674D01*
X0134134Y0242215D01*
X0134714Y0243809D01*
X0134751Y0244229D01*
X0134678Y0244643D01*
X0134499Y0245025D01*
X0134229Y0245348D01*
X0133884Y0245590D01*
X0131180Y0246574D01*
X0130124Y0243674D01*
X0129587Y0243870D01*
X0130642Y0246769D01*
X0127938Y0247754D01*
X0127519Y0247790D01*
X0127104Y0247717D01*
X0126722Y0247539D01*
X0126399Y0247268D01*
X0126158Y0246923D01*
X0125577Y0245329D01*
X0129587Y0243870D01*
X0129391Y0243332D01*
X0129929Y0243137D01*
X0128873Y0240237D01*
X0131577Y0239253D01*
X0131997Y0239216D01*
X0133124Y0239749D02*
X0144289Y0239749D01*
X0143852Y0238550D02*
X0118723Y0238550D01*
X0118723Y0239749D02*
X0130215Y0239749D01*
X0129132Y0240947D02*
X0128523Y0240947D01*
X0128336Y0240433D02*
X0125632Y0241417D01*
X0125287Y0241659D01*
X0125016Y0241981D01*
X0124838Y0242363D01*
X0124765Y0242778D01*
X0124802Y0243198D01*
X0125382Y0244792D01*
X0129391Y0243332D01*
X0128336Y0240433D01*
X0126922Y0240947D02*
X0118723Y0240947D01*
X0118723Y0242146D02*
X0124939Y0242146D01*
X0124855Y0243344D02*
X0118327Y0243344D01*
X0121063Y0237352D02*
X0098682Y0237352D01*
X0099615Y0238550D02*
X0110018Y0238550D01*
X0110018Y0239749D02*
X0099632Y0239749D01*
X0099632Y0240882D02*
X0099632Y0242578D01*
X0099523Y0242985D01*
X0099312Y0243350D01*
X0099015Y0243648D01*
X0098650Y0243859D01*
X0098243Y0243968D01*
X0095365Y0243968D01*
X0095365Y0240882D01*
X0099632Y0240882D01*
X0099632Y0240947D02*
X0110018Y0240947D01*
X0109943Y0242146D02*
X0099632Y0242146D01*
X0099316Y0243344D02*
X0108666Y0243344D01*
X0107388Y0244543D02*
X0094730Y0244543D01*
X0094793Y0243344D02*
X0095365Y0243344D01*
X0095365Y0242146D02*
X0094793Y0242146D01*
X0094793Y0240947D02*
X0095365Y0240947D01*
X0095365Y0239749D02*
X0094793Y0239749D01*
X0094793Y0238550D02*
X0095365Y0238550D01*
X0095365Y0237352D02*
X0094793Y0237352D01*
X0091218Y0236153D02*
X0119917Y0236153D01*
X0118771Y0234955D02*
X0109313Y0234955D01*
X0110512Y0233756D02*
X0117625Y0233756D01*
X0116479Y0232558D02*
X0111710Y0232558D01*
X0112909Y0231359D02*
X0115333Y0231359D01*
X0118723Y0229407D02*
X0118723Y0225252D01*
X0117903Y0224432D01*
X0115990Y0224432D01*
X0115990Y0219703D01*
X0117229Y0219703D01*
X0118049Y0218883D01*
X0118049Y0211817D01*
X0117229Y0210997D01*
X0110951Y0210997D01*
X0110480Y0211468D01*
X0110449Y0211415D01*
X0110151Y0211117D01*
X0109786Y0210906D01*
X0109380Y0210797D01*
X0107210Y0210797D01*
X0107210Y0214750D01*
X0106010Y0214750D01*
X0106010Y0210797D01*
X0103840Y0210797D01*
X0103433Y0210906D01*
X0103068Y0211117D01*
X0102770Y0211415D01*
X0102560Y0211780D01*
X0102451Y0212187D01*
X0102451Y0214750D01*
X0106010Y0214750D01*
X0106010Y0215950D01*
X0106010Y0219903D01*
X0103840Y0219903D01*
X0103433Y0219794D01*
X0103068Y0219583D01*
X0102770Y0219285D01*
X0102560Y0218920D01*
X0102451Y0218513D01*
X0102451Y0215950D01*
X0106010Y0215950D01*
X0107210Y0215950D01*
X0107210Y0219903D01*
X0109380Y0219903D01*
X0109786Y0219794D01*
X0110151Y0219583D01*
X0110449Y0219285D01*
X0110480Y0219232D01*
X0110951Y0219703D01*
X0112190Y0219703D01*
X0112190Y0224432D01*
X0110838Y0224432D01*
X0110018Y0225252D01*
X0110018Y0228876D01*
X0106694Y0232200D01*
X0090016Y0232200D01*
X0089318Y0231501D01*
X0089655Y0230574D01*
X0089165Y0229523D01*
X0087240Y0228822D01*
X0087240Y0219703D01*
X0088479Y0219703D01*
X0089299Y0218883D01*
X0089299Y0211817D01*
X0088479Y0210997D01*
X0082201Y0210997D01*
X0081730Y0211468D01*
X0081699Y0211415D01*
X0081401Y0211117D01*
X0081036Y0210906D01*
X0080630Y0210797D01*
X0078460Y0210797D01*
X0078460Y0214750D01*
X0077260Y0214750D01*
X0077260Y0210797D01*
X0075090Y0210797D01*
X0074683Y0210906D01*
X0074318Y0211117D01*
X0074020Y0211415D01*
X0073810Y0211780D01*
X0073701Y0212187D01*
X0073701Y0214750D01*
X0077260Y0214750D01*
X0077260Y0215950D01*
X0077260Y0219903D01*
X0075144Y0219903D01*
X0074636Y0221129D01*
X0073629Y0222136D01*
X0073500Y0222189D01*
X0073500Y0222959D01*
X0073676Y0223336D01*
X0073500Y0223819D01*
X0073500Y0234219D01*
X0079128Y0239695D01*
X0084722Y0241731D01*
X0085212Y0242782D01*
X0083603Y0247202D01*
X0082552Y0247692D01*
X0075913Y0245275D01*
X0075423Y0244224D01*
X0076184Y0242133D01*
X0070828Y0236921D01*
X0070813Y0236921D01*
X0070266Y0236374D01*
X0069711Y0235834D01*
X0069711Y0235819D01*
X0069700Y0235808D01*
X0069700Y0235035D01*
X0069689Y0234260D01*
X0069700Y0234250D01*
X0069700Y0228497D01*
X0068868Y0228885D01*
X0068678Y0228816D01*
X0068888Y0234806D01*
X0069225Y0235528D01*
X0069232Y0235544D01*
X0069202Y0235628D01*
X0068903Y0236449D01*
X0068903Y0242466D01*
X0074887Y0248450D01*
X0093263Y0248450D01*
X0088313Y0243500D01*
X0087200Y0242387D01*
X0087200Y0242189D01*
X0087071Y0242136D01*
X0086064Y0241129D01*
X0085519Y0239812D01*
X0085519Y0238388D01*
X0086064Y0237071D01*
X0087071Y0236064D01*
X0088086Y0235644D01*
X0087630Y0235187D01*
X0086996Y0235483D01*
X0080356Y0233067D01*
X0079866Y0232016D01*
X0081475Y0227596D01*
X0082526Y0227106D01*
X0083440Y0227439D01*
X0083440Y0219703D01*
X0082201Y0219703D01*
X0081730Y0219232D01*
X0081699Y0219285D01*
X0081401Y0219583D01*
X0081036Y0219794D01*
X0080630Y0219903D01*
X0078460Y0219903D01*
X0078460Y0215950D01*
X0077260Y0215950D01*
X0073701Y0215950D01*
X0073701Y0216136D01*
X0073629Y0216064D01*
X0072312Y0215519D01*
X0070888Y0215519D01*
X0069571Y0216064D01*
X0068564Y0217071D01*
X0068019Y0218388D01*
X0068019Y0219812D01*
X0068564Y0221129D01*
X0069571Y0222136D01*
X0069700Y0222189D01*
X0069700Y0222438D01*
X0064398Y0220508D01*
X0063347Y0220998D01*
X0061738Y0225418D01*
X0062228Y0226469D01*
X0064827Y0227415D01*
X0065070Y0234366D01*
X0063611Y0233835D01*
X0062556Y0236734D01*
X0062018Y0236539D01*
X0063074Y0233639D01*
X0060370Y0232655D01*
X0059950Y0232618D01*
X0059535Y0232691D01*
X0059153Y0232870D01*
X0058831Y0233140D01*
X0058601Y0233469D01*
X0058601Y0233185D01*
X0058600Y0233184D01*
X0058600Y0171178D01*
X0062941Y0166837D01*
X0065302Y0166932D01*
X0065302Y0167455D01*
X0066122Y0168276D01*
X0073187Y0168276D01*
X0074007Y0167455D01*
X0074007Y0163342D01*
X0084009Y0163342D01*
X0084593Y0163926D01*
X0084593Y0167455D01*
X0085413Y0168276D01*
X0092478Y0168276D01*
X0093298Y0167455D01*
X0093298Y0167004D01*
X0096401Y0167004D01*
X0096401Y0170133D01*
X0097221Y0170953D01*
X0103499Y0170953D01*
X0103970Y0170482D01*
X0104001Y0170535D01*
X0104299Y0170833D01*
X0104664Y0171044D01*
X0105070Y0171153D01*
X0107240Y0171153D01*
X0107240Y0167200D01*
X0108440Y0167200D01*
X0108440Y0171153D01*
X0110610Y0171153D01*
X0111017Y0171044D01*
X0111382Y0170833D01*
X0111680Y0170535D01*
X0111890Y0170170D01*
X0111999Y0169763D01*
X0111999Y0167200D01*
X0108440Y0167200D01*
X0108440Y0166000D01*
X0111999Y0166000D01*
X0111999Y0163437D01*
X0111974Y0163342D01*
X0116402Y0163342D01*
X0116402Y0166863D01*
X0107352Y0176196D01*
X0093298Y0176196D01*
X0093298Y0175745D01*
X0092478Y0174924D01*
X0085413Y0174924D01*
X0084593Y0175745D01*
X0084593Y0180448D01*
X0085413Y0181268D01*
X0092478Y0181268D01*
X0093298Y0180448D01*
X0093298Y0179996D01*
X0107386Y0179996D01*
X0107398Y0180008D01*
X0108171Y0179996D01*
X0108943Y0179996D01*
X0108955Y0179984D01*
X0108972Y0179984D01*
X0109510Y0179429D01*
X0110056Y0178883D01*
X0110056Y0178866D01*
X0120325Y0168276D01*
X0124287Y0168276D01*
X0125107Y0167455D01*
X0125107Y0164990D01*
X0127121Y0167004D01*
X0135693Y0167004D01*
X0135693Y0167455D01*
X0136513Y0168276D01*
X0140470Y0168276D01*
X0149700Y0177820D01*
X0149700Y0215813D01*
X0146799Y0218714D01*
X0146799Y0211817D01*
X0145979Y0210997D01*
X0139701Y0210997D01*
X0139230Y0211468D01*
X0139199Y0211415D01*
X0138901Y0211117D01*
X0138536Y0210906D01*
X0138130Y0210797D01*
X0135960Y0210797D01*
X0135960Y0214750D01*
X0134760Y0214750D01*
X0134760Y0210797D01*
X0132590Y0210797D01*
X0132183Y0210906D01*
X0131818Y0211117D01*
X0131520Y0211415D01*
X0131310Y0211780D01*
X0131201Y0212187D01*
X0131201Y0214750D01*
X0134760Y0214750D01*
X0134760Y0215950D01*
X0134760Y0219903D01*
X0132590Y0219903D01*
X0132183Y0219794D01*
X0131818Y0219583D01*
X0131520Y0219285D01*
X0131310Y0218920D01*
X0131201Y0218513D01*
X0131201Y0215950D01*
X0134760Y0215950D01*
X0135960Y0215950D01*
X0135960Y0219903D01*
X0138130Y0219903D01*
X0138536Y0219794D01*
X0138901Y0219583D01*
X0139199Y0219285D01*
X0139230Y0219232D01*
X0139701Y0219703D01*
X0141172Y0219703D01*
X0141172Y0222148D01*
X0139038Y0222925D01*
X0138548Y0223976D01*
X0139071Y0225414D01*
X0129785Y0234700D01*
X0125231Y0234700D01*
X0129719Y0233067D01*
X0130209Y0232016D01*
X0128600Y0227596D01*
X0127549Y0227106D01*
X0127250Y0227215D01*
X0127250Y0206137D01*
X0140975Y0192412D01*
X0141527Y0191892D01*
X0141528Y0191859D01*
X0141552Y0191835D01*
X0141552Y0191077D01*
X0141850Y0181268D01*
X0143578Y0181268D01*
X0144398Y0180448D01*
X0144398Y0175745D01*
X0143578Y0174924D01*
X0136513Y0174924D01*
X0135693Y0175745D01*
X0135693Y0180448D01*
X0136513Y0181268D01*
X0138048Y0181268D01*
X0137776Y0190237D01*
X0124563Y0203450D01*
X0123450Y0204563D01*
X0123450Y0228598D01*
X0120910Y0229523D01*
X0120420Y0230574D01*
X0120776Y0231554D01*
X0118723Y0229407D01*
X0118723Y0228962D02*
X0122449Y0228962D01*
X0123450Y0227764D02*
X0118723Y0227764D01*
X0118723Y0226565D02*
X0123450Y0226565D01*
X0123450Y0225367D02*
X0118723Y0225367D01*
X0115990Y0224168D02*
X0123450Y0224168D01*
X0123450Y0222970D02*
X0115990Y0222970D01*
X0115990Y0221771D02*
X0123450Y0221771D01*
X0123450Y0220573D02*
X0115990Y0220573D01*
X0117558Y0219374D02*
X0123450Y0219374D01*
X0123450Y0218176D02*
X0118049Y0218176D01*
X0118049Y0216977D02*
X0123450Y0216977D01*
X0123450Y0215779D02*
X0118049Y0215779D01*
X0118049Y0214580D02*
X0123450Y0214580D01*
X0123450Y0213382D02*
X0118049Y0213382D01*
X0118049Y0212183D02*
X0123450Y0212183D01*
X0123450Y0210985D02*
X0109922Y0210985D01*
X0107210Y0210985D02*
X0106010Y0210985D01*
X0106010Y0212183D02*
X0107210Y0212183D01*
X0107210Y0213382D02*
X0106010Y0213382D01*
X0106010Y0214580D02*
X0107210Y0214580D01*
X0106010Y0215779D02*
X0097250Y0215779D01*
X0097250Y0216977D02*
X0102451Y0216977D01*
X0102451Y0218176D02*
X0097250Y0218176D01*
X0097250Y0219374D02*
X0102860Y0219374D01*
X0102451Y0214580D02*
X0097250Y0214580D01*
X0097250Y0213382D02*
X0102451Y0213382D01*
X0102452Y0212183D02*
X0097264Y0212183D01*
X0097250Y0212189D02*
X0097250Y0224432D01*
X0098612Y0224432D01*
X0099432Y0225252D01*
X0099432Y0229955D01*
X0098612Y0230776D01*
X0091547Y0230776D01*
X0090727Y0229955D01*
X0090727Y0225252D01*
X0091547Y0224432D01*
X0093450Y0224432D01*
X0093450Y0212189D01*
X0093321Y0212136D01*
X0092314Y0211129D01*
X0091769Y0209812D01*
X0091769Y0208388D01*
X0092314Y0207071D01*
X0093321Y0206064D01*
X0094638Y0205519D01*
X0096062Y0205519D01*
X0097379Y0206064D01*
X0098386Y0207071D01*
X0098931Y0208388D01*
X0098931Y0209812D01*
X0098386Y0211129D01*
X0097379Y0212136D01*
X0097250Y0212189D01*
X0098445Y0210985D02*
X0103297Y0210985D01*
X0098931Y0209786D02*
X0123450Y0209786D01*
X0123450Y0208588D02*
X0098931Y0208588D01*
X0098517Y0207389D02*
X0123450Y0207389D01*
X0123450Y0206191D02*
X0097505Y0206191D01*
X0093195Y0206191D02*
X0058600Y0206191D01*
X0058600Y0207389D02*
X0092183Y0207389D01*
X0091769Y0208588D02*
X0058600Y0208588D01*
X0058600Y0209786D02*
X0091769Y0209786D01*
X0092255Y0210985D02*
X0081172Y0210985D01*
X0078460Y0210985D02*
X0077260Y0210985D01*
X0077260Y0212183D02*
X0078460Y0212183D01*
X0078460Y0213382D02*
X0077260Y0213382D01*
X0077260Y0214580D02*
X0078460Y0214580D01*
X0077260Y0215779D02*
X0072940Y0215779D01*
X0073701Y0214580D02*
X0058600Y0214580D01*
X0058600Y0213382D02*
X0073701Y0213382D01*
X0073702Y0212183D02*
X0058600Y0212183D01*
X0058600Y0210985D02*
X0074547Y0210985D01*
X0070260Y0215779D02*
X0058600Y0215779D01*
X0058600Y0216977D02*
X0068658Y0216977D01*
X0068107Y0218176D02*
X0058600Y0218176D01*
X0058600Y0219374D02*
X0068019Y0219374D01*
X0068334Y0220573D02*
X0064576Y0220573D01*
X0064259Y0220573D02*
X0058600Y0220573D01*
X0058600Y0221771D02*
X0063065Y0221771D01*
X0062629Y0222970D02*
X0058600Y0222970D01*
X0058600Y0224168D02*
X0062193Y0224168D01*
X0061757Y0225367D02*
X0058600Y0225367D01*
X0058600Y0226565D02*
X0062494Y0226565D01*
X0064839Y0227764D02*
X0058600Y0227764D01*
X0058600Y0228962D02*
X0064881Y0228962D01*
X0064923Y0230161D02*
X0058600Y0230161D01*
X0058600Y0231359D02*
X0064965Y0231359D01*
X0065007Y0232558D02*
X0058600Y0232558D01*
X0056600Y0234010D02*
X0056600Y0191600D01*
X0056600Y0170350D01*
X0062146Y0164804D01*
X0069654Y0165104D01*
X0074007Y0165441D02*
X0084593Y0165441D01*
X0084593Y0164243D02*
X0074007Y0164243D01*
X0074007Y0166640D02*
X0084593Y0166640D01*
X0084976Y0167838D02*
X0073624Y0167838D01*
X0072818Y0174724D02*
X0069940Y0174724D01*
X0069940Y0177810D01*
X0069368Y0177810D01*
X0065102Y0177810D01*
X0065102Y0176114D01*
X0065211Y0175707D01*
X0065421Y0175342D01*
X0065719Y0175044D01*
X0066084Y0174833D01*
X0066491Y0174724D01*
X0069368Y0174724D01*
X0069368Y0177810D01*
X0069368Y0178382D01*
X0065102Y0178382D01*
X0065102Y0180078D01*
X0065211Y0180485D01*
X0065421Y0180850D01*
X0065719Y0181148D01*
X0066084Y0181359D01*
X0066491Y0181468D01*
X0069368Y0181468D01*
X0069368Y0178382D01*
X0069940Y0178382D01*
X0069940Y0181468D01*
X0072818Y0181468D01*
X0073225Y0181359D01*
X0073590Y0181148D01*
X0073887Y0180850D01*
X0074098Y0180485D01*
X0074207Y0180078D01*
X0074207Y0178382D01*
X0069940Y0178382D01*
X0069940Y0177810D01*
X0074207Y0177810D01*
X0074207Y0176114D01*
X0074098Y0175707D01*
X0073887Y0175342D01*
X0073590Y0175044D01*
X0073225Y0174833D01*
X0072818Y0174724D01*
X0073564Y0175029D02*
X0085308Y0175029D01*
X0084593Y0176228D02*
X0074207Y0176228D01*
X0074207Y0177426D02*
X0084593Y0177426D01*
X0084593Y0178625D02*
X0074207Y0178625D01*
X0074207Y0179823D02*
X0084593Y0179823D01*
X0085167Y0181022D02*
X0073716Y0181022D01*
X0069940Y0181022D02*
X0069368Y0181022D01*
X0069368Y0179823D02*
X0069940Y0179823D01*
X0069940Y0178625D02*
X0069368Y0178625D01*
X0069368Y0177426D02*
X0069940Y0177426D01*
X0069940Y0176228D02*
X0069368Y0176228D01*
X0069368Y0175029D02*
X0069940Y0175029D01*
X0065745Y0175029D02*
X0058600Y0175029D01*
X0058600Y0173831D02*
X0109645Y0173831D01*
X0108483Y0175029D02*
X0092583Y0175029D01*
X0092724Y0181022D02*
X0116693Y0181022D01*
X0116819Y0181148D02*
X0116521Y0180850D01*
X0116311Y0180485D01*
X0116202Y0180078D01*
X0116202Y0178382D01*
X0120468Y0178382D01*
X0120468Y0177810D01*
X0116202Y0177810D01*
X0116202Y0176114D01*
X0116311Y0175707D01*
X0116521Y0175342D01*
X0116819Y0175044D01*
X0117184Y0174833D01*
X0117591Y0174724D01*
X0120468Y0174724D01*
X0120468Y0177810D01*
X0121040Y0177810D01*
X0121040Y0174724D01*
X0123918Y0174724D01*
X0124325Y0174833D01*
X0124690Y0175044D01*
X0124987Y0175342D01*
X0125198Y0175707D01*
X0125307Y0176114D01*
X0125307Y0177810D01*
X0121040Y0177810D01*
X0121040Y0178382D01*
X0120468Y0178382D01*
X0120468Y0181468D01*
X0117591Y0181468D01*
X0117184Y0181359D01*
X0116819Y0181148D01*
X0116202Y0179823D02*
X0109128Y0179823D01*
X0110290Y0178625D02*
X0116202Y0178625D01*
X0116202Y0177426D02*
X0111452Y0177426D01*
X0112614Y0176228D02*
X0116202Y0176228D01*
X0116845Y0175029D02*
X0113776Y0175029D01*
X0114938Y0173831D02*
X0145842Y0173831D01*
X0147001Y0175029D02*
X0143683Y0175029D01*
X0144398Y0176228D02*
X0148160Y0176228D01*
X0149319Y0177426D02*
X0144398Y0177426D01*
X0144398Y0178625D02*
X0149700Y0178625D01*
X0149700Y0179823D02*
X0144398Y0179823D01*
X0143824Y0181022D02*
X0149700Y0181022D01*
X0149700Y0182220D02*
X0141821Y0182220D01*
X0141785Y0183419D02*
X0149700Y0183419D01*
X0149700Y0184617D02*
X0141748Y0184617D01*
X0141712Y0185816D02*
X0149700Y0185816D01*
X0149700Y0187014D02*
X0141675Y0187014D01*
X0141639Y0188213D02*
X0149700Y0188213D01*
X0149700Y0189411D02*
X0141603Y0189411D01*
X0141566Y0190610D02*
X0149700Y0190610D01*
X0149700Y0191808D02*
X0141552Y0191808D01*
X0140380Y0193007D02*
X0149700Y0193007D01*
X0149700Y0194205D02*
X0139181Y0194205D01*
X0137983Y0195404D02*
X0149700Y0195404D01*
X0149700Y0196603D02*
X0136784Y0196603D01*
X0135586Y0197801D02*
X0149700Y0197801D01*
X0149700Y0199000D02*
X0134387Y0199000D01*
X0133189Y0200198D02*
X0149700Y0200198D01*
X0149700Y0201397D02*
X0131990Y0201397D01*
X0130792Y0202595D02*
X0149700Y0202595D01*
X0149700Y0203794D02*
X0129593Y0203794D01*
X0128395Y0204992D02*
X0149700Y0204992D01*
X0149700Y0206191D02*
X0127250Y0206191D01*
X0127250Y0207389D02*
X0149700Y0207389D01*
X0149700Y0208588D02*
X0127250Y0208588D01*
X0127250Y0209786D02*
X0149700Y0209786D01*
X0149700Y0210985D02*
X0138672Y0210985D01*
X0135960Y0210985D02*
X0134760Y0210985D01*
X0134760Y0212183D02*
X0135960Y0212183D01*
X0135960Y0213382D02*
X0134760Y0213382D01*
X0134760Y0214580D02*
X0135960Y0214580D01*
X0134760Y0215779D02*
X0127250Y0215779D01*
X0127250Y0216977D02*
X0131201Y0216977D01*
X0131201Y0218176D02*
X0127250Y0218176D01*
X0127250Y0219374D02*
X0131610Y0219374D01*
X0134760Y0219374D02*
X0135960Y0219374D01*
X0135960Y0218176D02*
X0134760Y0218176D01*
X0134760Y0216977D02*
X0135960Y0216977D01*
X0139110Y0219374D02*
X0139373Y0219374D01*
X0141172Y0220573D02*
X0127250Y0220573D01*
X0127250Y0221771D02*
X0141172Y0221771D01*
X0139017Y0222970D02*
X0127250Y0222970D01*
X0127250Y0224168D02*
X0138618Y0224168D01*
X0139054Y0225367D02*
X0127250Y0225367D01*
X0127250Y0226565D02*
X0137920Y0226565D01*
X0136721Y0227764D02*
X0128661Y0227764D01*
X0129097Y0228962D02*
X0135523Y0228962D01*
X0134324Y0230161D02*
X0129534Y0230161D01*
X0129970Y0231359D02*
X0133126Y0231359D01*
X0131927Y0232558D02*
X0129956Y0232558D01*
X0130729Y0233756D02*
X0127824Y0233756D01*
X0128960Y0242146D02*
X0129568Y0242146D01*
X0129396Y0243344D02*
X0129358Y0243344D01*
X0130004Y0243344D02*
X0131030Y0243344D01*
X0130440Y0244543D02*
X0129832Y0244543D01*
X0130268Y0245741D02*
X0130877Y0245741D01*
X0130174Y0246940D02*
X0139823Y0246940D01*
X0141022Y0245741D02*
X0133466Y0245741D01*
X0134695Y0244543D02*
X0142220Y0244543D01*
X0143419Y0243344D02*
X0134545Y0243344D01*
X0132651Y0242146D02*
X0144617Y0242146D01*
X0145337Y0240947D02*
X0133672Y0240947D01*
X0138624Y0248139D02*
X0109122Y0248139D01*
X0110387Y0246940D02*
X0126169Y0246940D01*
X0125728Y0245741D02*
X0111664Y0245741D01*
X0112941Y0244543D02*
X0125291Y0244543D01*
X0126066Y0244543D02*
X0127737Y0244543D01*
X0120706Y0231359D02*
X0120591Y0231359D01*
X0120612Y0230161D02*
X0119445Y0230161D01*
X0112190Y0224168D02*
X0097250Y0224168D01*
X0097250Y0222970D02*
X0112190Y0222970D01*
X0112190Y0221771D02*
X0097250Y0221771D01*
X0097250Y0220573D02*
X0112190Y0220573D01*
X0110623Y0219374D02*
X0110360Y0219374D01*
X0107210Y0219374D02*
X0106010Y0219374D01*
X0106010Y0218176D02*
X0107210Y0218176D01*
X0107210Y0216977D02*
X0106010Y0216977D01*
X0110018Y0225367D02*
X0099432Y0225367D01*
X0099432Y0226565D02*
X0110018Y0226565D01*
X0110018Y0227764D02*
X0099432Y0227764D01*
X0099432Y0228962D02*
X0109932Y0228962D01*
X0108733Y0230161D02*
X0099227Y0230161D01*
X0093450Y0224168D02*
X0087240Y0224168D01*
X0087240Y0222970D02*
X0093450Y0222970D01*
X0093450Y0221771D02*
X0087240Y0221771D01*
X0087240Y0220573D02*
X0093450Y0220573D01*
X0093450Y0219374D02*
X0088808Y0219374D01*
X0089299Y0218176D02*
X0093450Y0218176D01*
X0093450Y0216977D02*
X0089299Y0216977D01*
X0089299Y0215779D02*
X0093450Y0215779D01*
X0093450Y0214580D02*
X0089299Y0214580D01*
X0089299Y0213382D02*
X0093450Y0213382D01*
X0093436Y0212183D02*
X0089299Y0212183D01*
X0083440Y0220573D02*
X0074866Y0220573D01*
X0073993Y0221771D02*
X0083440Y0221771D01*
X0083440Y0222970D02*
X0073505Y0222970D01*
X0073676Y0223336D02*
X0073676Y0223336D01*
X0073500Y0224168D02*
X0083440Y0224168D01*
X0083440Y0225367D02*
X0073500Y0225367D01*
X0073500Y0226565D02*
X0083440Y0226565D01*
X0081414Y0227764D02*
X0073500Y0227764D01*
X0073500Y0228962D02*
X0080978Y0228962D01*
X0080541Y0230161D02*
X0073500Y0230161D01*
X0073500Y0231359D02*
X0080105Y0231359D01*
X0080119Y0232558D02*
X0073500Y0232558D01*
X0073500Y0233756D02*
X0082251Y0233756D01*
X0085544Y0234955D02*
X0074256Y0234955D01*
X0075488Y0236153D02*
X0086982Y0236153D01*
X0085948Y0237352D02*
X0076720Y0237352D01*
X0077951Y0238550D02*
X0085519Y0238550D01*
X0085519Y0239749D02*
X0079275Y0239749D01*
X0076179Y0242146D02*
X0068903Y0242146D01*
X0068903Y0240947D02*
X0074966Y0240947D01*
X0073734Y0239749D02*
X0068903Y0239749D01*
X0068903Y0238550D02*
X0072502Y0238550D01*
X0071271Y0237352D02*
X0068903Y0237352D01*
X0069011Y0236153D02*
X0070039Y0236153D01*
X0069699Y0234955D02*
X0068957Y0234955D01*
X0068851Y0233756D02*
X0069700Y0233756D01*
X0069700Y0232558D02*
X0068809Y0232558D01*
X0068767Y0231359D02*
X0069700Y0231359D01*
X0069700Y0230161D02*
X0068725Y0230161D01*
X0068683Y0228962D02*
X0069700Y0228962D01*
X0065049Y0233756D02*
X0063031Y0233756D01*
X0063203Y0234955D02*
X0062595Y0234955D01*
X0062767Y0236153D02*
X0062159Y0236153D01*
X0062331Y0237352D02*
X0061722Y0237352D01*
X0061895Y0238550D02*
X0061286Y0238550D01*
X0061458Y0239749D02*
X0060850Y0239749D01*
X0060144Y0239749D02*
X0054348Y0239749D01*
X0054348Y0240947D02*
X0063437Y0240947D01*
X0065103Y0242146D02*
X0054348Y0242146D01*
X0053952Y0243344D02*
X0065103Y0243344D01*
X0065606Y0244543D02*
X0043600Y0244543D01*
X0043600Y0245741D02*
X0066804Y0245741D01*
X0068003Y0246940D02*
X0043600Y0246940D01*
X0043600Y0248139D02*
X0069202Y0248139D01*
X0070400Y0249337D02*
X0043600Y0249337D01*
X0043600Y0250536D02*
X0071599Y0250536D01*
X0072797Y0251734D02*
X0043600Y0251734D01*
X0039600Y0251734D02*
X0018800Y0251734D01*
X0018800Y0250536D02*
X0039600Y0250536D01*
X0039600Y0249337D02*
X0018800Y0249337D01*
X0018800Y0248139D02*
X0039600Y0248139D01*
X0039600Y0246940D02*
X0018800Y0246940D01*
X0018800Y0245741D02*
X0039600Y0245741D01*
X0039600Y0244543D02*
X0018800Y0244543D01*
X0018800Y0243344D02*
X0026468Y0243344D01*
X0026471Y0243350D02*
X0026261Y0242985D01*
X0026152Y0242578D01*
X0026152Y0240882D01*
X0030418Y0240882D01*
X0030418Y0240310D01*
X0026152Y0240310D01*
X0026152Y0238614D01*
X0026261Y0238207D01*
X0026471Y0237842D01*
X0026769Y0237544D01*
X0027134Y0237333D01*
X0027541Y0237224D01*
X0030418Y0237224D01*
X0030418Y0240310D01*
X0030990Y0240310D01*
X0030990Y0237224D01*
X0033868Y0237224D01*
X0034275Y0237333D01*
X0034640Y0237544D01*
X0034937Y0237842D01*
X0035148Y0238207D01*
X0035257Y0238614D01*
X0035257Y0240310D01*
X0030990Y0240310D01*
X0030990Y0240882D01*
X0030418Y0240882D01*
X0030418Y0243968D01*
X0027541Y0243968D01*
X0027134Y0243859D01*
X0026769Y0243648D01*
X0026471Y0243350D01*
X0026152Y0242146D02*
X0018800Y0242146D01*
X0018800Y0240947D02*
X0026152Y0240947D01*
X0026152Y0239749D02*
X0018800Y0239749D01*
X0018800Y0238550D02*
X0026169Y0238550D01*
X0027102Y0237352D02*
X0018800Y0237352D01*
X0018800Y0236153D02*
X0039600Y0236153D01*
X0039600Y0234955D02*
X0018800Y0234955D01*
X0018800Y0233756D02*
X0040603Y0233756D01*
X0041866Y0232558D02*
X0018800Y0232558D01*
X0018800Y0231359D02*
X0043130Y0231359D01*
X0044394Y0230161D02*
X0034852Y0230161D01*
X0035057Y0228962D02*
X0045643Y0228962D01*
X0045643Y0227764D02*
X0035057Y0227764D01*
X0035057Y0226565D02*
X0045643Y0226565D01*
X0045643Y0225367D02*
X0035057Y0225367D01*
X0032804Y0224168D02*
X0047090Y0224168D01*
X0047090Y0222970D02*
X0032838Y0222970D01*
X0032872Y0221771D02*
X0037762Y0221771D01*
X0037451Y0220573D02*
X0032906Y0220573D01*
X0032941Y0219374D02*
X0037451Y0219374D01*
X0037451Y0217250D02*
X0037451Y0214687D01*
X0037560Y0214280D01*
X0037770Y0213915D01*
X0038068Y0213617D01*
X0038433Y0213406D01*
X0038840Y0213297D01*
X0041010Y0213297D01*
X0041010Y0217250D01*
X0037451Y0217250D01*
X0037451Y0216977D02*
X0033009Y0216977D01*
X0033044Y0215779D02*
X0037451Y0215779D01*
X0037479Y0214580D02*
X0033200Y0214580D01*
X0034399Y0213382D02*
X0038525Y0213382D01*
X0036796Y0210985D02*
X0051350Y0210985D01*
X0051350Y0212183D02*
X0035597Y0212183D01*
X0037994Y0209786D02*
X0051350Y0209786D01*
X0051350Y0208588D02*
X0039193Y0208588D01*
X0040391Y0207389D02*
X0051350Y0207389D01*
X0051350Y0206191D02*
X0041590Y0206191D01*
X0042788Y0204992D02*
X0051350Y0204992D01*
X0051350Y0203794D02*
X0043987Y0203794D01*
X0045185Y0202595D02*
X0051350Y0202595D01*
X0051350Y0201397D02*
X0046384Y0201397D01*
X0047582Y0200198D02*
X0051350Y0200198D01*
X0051350Y0199000D02*
X0048781Y0199000D01*
X0049979Y0197801D02*
X0051350Y0197801D01*
X0051350Y0196603D02*
X0051180Y0196603D01*
X0049602Y0195350D02*
X0031098Y0213854D01*
X0030704Y0227604D01*
X0028802Y0224168D02*
X0018800Y0224168D01*
X0018800Y0222970D02*
X0028836Y0222970D01*
X0028871Y0221771D02*
X0018800Y0221771D01*
X0018800Y0220573D02*
X0028905Y0220573D01*
X0028939Y0219374D02*
X0018800Y0219374D01*
X0018800Y0218176D02*
X0028973Y0218176D01*
X0029008Y0216977D02*
X0018800Y0216977D01*
X0018800Y0215779D02*
X0029042Y0215779D01*
X0029076Y0214580D02*
X0018800Y0214580D01*
X0018800Y0213382D02*
X0029098Y0213382D01*
X0029940Y0212183D02*
X0018800Y0212183D01*
X0018800Y0210985D02*
X0031139Y0210985D01*
X0032337Y0209786D02*
X0018800Y0209786D01*
X0018800Y0208588D02*
X0033536Y0208588D01*
X0034734Y0207389D02*
X0018800Y0207389D01*
X0018800Y0206191D02*
X0035933Y0206191D01*
X0037131Y0204992D02*
X0018800Y0204992D01*
X0018800Y0203794D02*
X0038330Y0203794D01*
X0039528Y0202595D02*
X0018800Y0202595D01*
X0018800Y0201397D02*
X0040727Y0201397D01*
X0041925Y0200198D02*
X0018800Y0200198D01*
X0018800Y0199000D02*
X0043124Y0199000D01*
X0044323Y0197801D02*
X0018800Y0197801D01*
X0018800Y0196603D02*
X0045521Y0196603D01*
X0046720Y0195404D02*
X0018800Y0195404D01*
X0018800Y0194205D02*
X0047608Y0194205D01*
X0047614Y0193007D02*
X0018800Y0193007D01*
X0018800Y0191808D02*
X0047619Y0191808D01*
X0047625Y0190610D02*
X0018800Y0190610D01*
X0018800Y0189411D02*
X0047631Y0189411D01*
X0047637Y0188213D02*
X0018800Y0188213D01*
X0018800Y0187014D02*
X0047643Y0187014D01*
X0047649Y0185816D02*
X0018800Y0185816D01*
X0018800Y0184617D02*
X0047655Y0184617D01*
X0047661Y0183419D02*
X0018800Y0183419D01*
X0019091Y0182220D02*
X0047667Y0182220D01*
X0047673Y0181022D02*
X0020289Y0181022D01*
X0021488Y0179823D02*
X0047679Y0179823D01*
X0047685Y0178625D02*
X0022686Y0178625D01*
X0023885Y0177426D02*
X0033419Y0177426D01*
X0032861Y0177195D02*
X0031005Y0175339D01*
X0030000Y0172913D01*
X0030000Y0170287D01*
X0031005Y0167861D01*
X0032861Y0166005D01*
X0035287Y0165000D01*
X0037913Y0165000D01*
X0040339Y0166005D01*
X0042195Y0167861D01*
X0043200Y0170287D01*
X0043200Y0172913D01*
X0042195Y0175339D01*
X0040339Y0177195D01*
X0037913Y0178200D01*
X0035287Y0178200D01*
X0032861Y0177195D01*
X0031894Y0176228D02*
X0025083Y0176228D01*
X0026282Y0175029D02*
X0030877Y0175029D01*
X0030380Y0173831D02*
X0027480Y0173831D01*
X0027511Y0173800D02*
X0027511Y0173800D01*
X0028679Y0172632D02*
X0030000Y0172632D01*
X0030000Y0171434D02*
X0028800Y0171434D01*
X0028347Y0170235D02*
X0030021Y0170235D01*
X0030518Y0169037D02*
X0027148Y0169037D01*
X0025950Y0167838D02*
X0031028Y0167838D01*
X0032226Y0166640D02*
X0024751Y0166640D01*
X0023552Y0165441D02*
X0034222Y0165441D01*
X0038978Y0165441D02*
X0047750Y0165441D01*
X0047755Y0164243D02*
X0022354Y0164243D01*
X0021155Y0163044D02*
X0047761Y0163044D01*
X0047767Y0161846D02*
X0019957Y0161846D01*
X0018800Y0160647D02*
X0047773Y0160647D01*
X0047779Y0159449D02*
X0018800Y0159449D01*
X0018800Y0158250D02*
X0047785Y0158250D01*
X0047791Y0157052D02*
X0018800Y0157052D01*
X0018800Y0155853D02*
X0047797Y0155853D01*
X0047803Y0154655D02*
X0018800Y0154655D01*
X0018800Y0153456D02*
X0047809Y0153456D01*
X0047815Y0152258D02*
X0018800Y0152258D01*
X0018800Y0151059D02*
X0047821Y0151059D01*
X0047827Y0149861D02*
X0018800Y0149861D01*
X0018800Y0148662D02*
X0047832Y0148662D01*
X0047838Y0147464D02*
X0018800Y0147464D01*
X0018800Y0146265D02*
X0047844Y0146265D01*
X0047850Y0145067D02*
X0018800Y0145067D01*
X0018800Y0143868D02*
X0047856Y0143868D01*
X0047862Y0142670D02*
X0018800Y0142670D01*
X0018800Y0141471D02*
X0047868Y0141471D01*
X0047874Y0140272D02*
X0018800Y0140272D01*
X0018800Y0139074D02*
X0047880Y0139074D01*
X0047886Y0137875D02*
X0018800Y0137875D01*
X0018800Y0136677D02*
X0047892Y0136677D01*
X0047897Y0135478D02*
X0018800Y0135478D01*
X0018800Y0134280D02*
X0047903Y0134280D01*
X0047909Y0133081D02*
X0018800Y0133081D01*
X0018800Y0131883D02*
X0047915Y0131883D01*
X0047921Y0130684D02*
X0018800Y0130684D01*
X0018800Y0129486D02*
X0047927Y0129486D01*
X0047933Y0128287D02*
X0018800Y0128287D01*
X0018800Y0127089D02*
X0047939Y0127089D01*
X0047945Y0125890D02*
X0018800Y0125890D01*
X0018800Y0124692D02*
X0047951Y0124692D01*
X0047957Y0123493D02*
X0018800Y0123493D01*
X0018800Y0122295D02*
X0047963Y0122295D01*
X0047968Y0121096D02*
X0018800Y0121096D01*
X0018800Y0119898D02*
X0047974Y0119898D01*
X0046395Y0118699D02*
X0034551Y0118699D01*
X0034640Y0118648D02*
X0034275Y0118859D01*
X0033868Y0118968D01*
X0030990Y0118968D01*
X0030990Y0115882D01*
X0030418Y0115882D01*
X0030418Y0115310D01*
X0026152Y0115310D01*
X0026152Y0113614D01*
X0026261Y0113207D01*
X0026471Y0112842D01*
X0026769Y0112544D01*
X0027134Y0112333D01*
X0027541Y0112224D01*
X0030418Y0112224D01*
X0030418Y0115310D01*
X0030990Y0115310D01*
X0030990Y0112224D01*
X0033868Y0112224D01*
X0034275Y0112333D01*
X0034640Y0112544D01*
X0034937Y0112842D01*
X0035148Y0113207D01*
X0035257Y0113614D01*
X0035257Y0115310D01*
X0030990Y0115310D01*
X0030990Y0115882D01*
X0035257Y0115882D01*
X0035257Y0117578D01*
X0035148Y0117985D01*
X0034937Y0118350D01*
X0034640Y0118648D01*
X0035257Y0117501D02*
X0045643Y0117501D01*
X0045643Y0116302D02*
X0035257Y0116302D01*
X0035257Y0115104D02*
X0045643Y0115104D01*
X0045643Y0113905D02*
X0035257Y0113905D01*
X0034802Y0112707D02*
X0046181Y0112707D01*
X0049996Y0115596D02*
X0049602Y0195350D01*
X0058600Y0195404D02*
X0132609Y0195404D01*
X0133807Y0194205D02*
X0058600Y0194205D01*
X0058600Y0193007D02*
X0135006Y0193007D01*
X0136205Y0191808D02*
X0058600Y0191808D01*
X0058600Y0190610D02*
X0137403Y0190610D01*
X0137801Y0189411D02*
X0058600Y0189411D01*
X0058600Y0188213D02*
X0137837Y0188213D01*
X0137874Y0187014D02*
X0058600Y0187014D01*
X0058600Y0185816D02*
X0137910Y0185816D01*
X0137947Y0184617D02*
X0058600Y0184617D01*
X0058600Y0183419D02*
X0137983Y0183419D01*
X0138019Y0182220D02*
X0058600Y0182220D01*
X0058600Y0181022D02*
X0065593Y0181022D01*
X0065102Y0179823D02*
X0058600Y0179823D01*
X0058600Y0178625D02*
X0065102Y0178625D01*
X0065102Y0177426D02*
X0058600Y0177426D01*
X0058600Y0176228D02*
X0065102Y0176228D01*
X0060742Y0169037D02*
X0096401Y0169037D01*
X0096401Y0167838D02*
X0092916Y0167838D01*
X0096503Y0170235D02*
X0059543Y0170235D01*
X0058600Y0171434D02*
X0111970Y0171434D01*
X0111853Y0170235D02*
X0113132Y0170235D01*
X0111999Y0169037D02*
X0114294Y0169037D01*
X0115456Y0167838D02*
X0111999Y0167838D01*
X0111999Y0165441D02*
X0116402Y0165441D01*
X0116402Y0164243D02*
X0111999Y0164243D01*
X0108440Y0166640D02*
X0116402Y0166640D01*
X0119587Y0169037D02*
X0141206Y0169037D01*
X0142365Y0170235D02*
X0118425Y0170235D01*
X0117263Y0171434D02*
X0143524Y0171434D01*
X0144683Y0172632D02*
X0116101Y0172632D01*
X0120468Y0175029D02*
X0121040Y0175029D01*
X0121040Y0176228D02*
X0120468Y0176228D01*
X0120468Y0177426D02*
X0121040Y0177426D01*
X0121040Y0178382D02*
X0125307Y0178382D01*
X0125307Y0180078D01*
X0125198Y0180485D01*
X0124987Y0180850D01*
X0124690Y0181148D01*
X0124325Y0181359D01*
X0123918Y0181468D01*
X0121040Y0181468D01*
X0121040Y0178382D01*
X0121040Y0178625D02*
X0120468Y0178625D01*
X0120468Y0179823D02*
X0121040Y0179823D01*
X0121040Y0181022D02*
X0120468Y0181022D01*
X0124816Y0181022D02*
X0136267Y0181022D01*
X0135693Y0179823D02*
X0125307Y0179823D01*
X0125307Y0178625D02*
X0135693Y0178625D01*
X0135693Y0177426D02*
X0125307Y0177426D01*
X0125307Y0176228D02*
X0135693Y0176228D01*
X0136408Y0175029D02*
X0124664Y0175029D01*
X0124724Y0167838D02*
X0136076Y0167838D01*
X0135693Y0163044D02*
X0128535Y0163044D01*
X0127337Y0161846D02*
X0163151Y0161846D01*
X0163151Y0163044D02*
X0160644Y0163044D01*
X0160749Y0164243D02*
X0163151Y0164243D01*
X0163151Y0165441D02*
X0160749Y0165441D01*
X0160749Y0167200D02*
X0157190Y0167200D01*
X0157190Y0171153D01*
X0159360Y0171153D01*
X0159767Y0171044D01*
X0160132Y0170833D01*
X0160430Y0170535D01*
X0160640Y0170170D01*
X0160749Y0169763D01*
X0160749Y0167200D01*
X0160749Y0167838D02*
X0163151Y0167838D01*
X0163151Y0166640D02*
X0157190Y0166640D01*
X0157190Y0167838D02*
X0155990Y0167838D01*
X0155990Y0169037D02*
X0157190Y0169037D01*
X0157190Y0170235D02*
X0155990Y0170235D01*
X0152287Y0175029D02*
X0163151Y0175029D01*
X0163151Y0173831D02*
X0151128Y0173831D01*
X0149969Y0172632D02*
X0163151Y0172632D01*
X0163151Y0171434D02*
X0148810Y0171434D01*
X0153463Y0176228D02*
X0163151Y0176228D01*
X0163151Y0177426D02*
X0153500Y0177426D01*
X0153500Y0178625D02*
X0163151Y0178625D01*
X0163151Y0179823D02*
X0153500Y0179823D01*
X0153500Y0181022D02*
X0163151Y0181022D01*
X0163151Y0182220D02*
X0153500Y0182220D01*
X0153500Y0183419D02*
X0163151Y0183419D01*
X0163151Y0184617D02*
X0153500Y0184617D01*
X0153500Y0185816D02*
X0163151Y0185816D01*
X0163151Y0187014D02*
X0153500Y0187014D01*
X0153500Y0188213D02*
X0163151Y0188213D01*
X0163151Y0189411D02*
X0153500Y0189411D01*
X0153500Y0190610D02*
X0163151Y0190610D01*
X0163151Y0191808D02*
X0153500Y0191808D01*
X0153500Y0193007D02*
X0163151Y0193007D01*
X0163151Y0194205D02*
X0153500Y0194205D01*
X0153500Y0195404D02*
X0163151Y0195404D01*
X0163151Y0196603D02*
X0153500Y0196603D01*
X0153500Y0197801D02*
X0163151Y0197801D01*
X0163151Y0199000D02*
X0153500Y0199000D01*
X0153500Y0200198D02*
X0163151Y0200198D01*
X0163151Y0201397D02*
X0153500Y0201397D01*
X0153500Y0202595D02*
X0163151Y0202595D01*
X0163151Y0203794D02*
X0153500Y0203794D01*
X0153500Y0204992D02*
X0163151Y0204992D01*
X0163151Y0206191D02*
X0153500Y0206191D01*
X0153500Y0207389D02*
X0163151Y0207389D01*
X0163151Y0208588D02*
X0153500Y0208588D01*
X0153500Y0209786D02*
X0163151Y0209786D01*
X0163151Y0210985D02*
X0153500Y0210985D01*
X0153500Y0212183D02*
X0163151Y0212183D01*
X0163151Y0213382D02*
X0153500Y0213382D01*
X0153500Y0214580D02*
X0163151Y0214580D01*
X0163151Y0215779D02*
X0153500Y0215779D01*
X0153500Y0216977D02*
X0163151Y0216977D01*
X0163151Y0218176D02*
X0152711Y0218176D01*
X0151513Y0219374D02*
X0163151Y0219374D01*
X0163151Y0220573D02*
X0150314Y0220573D01*
X0149116Y0221771D02*
X0163151Y0221771D01*
X0163151Y0222970D02*
X0147917Y0222970D01*
X0147882Y0224168D02*
X0163151Y0224168D01*
X0165151Y0227395D02*
X0165151Y0107907D01*
X0159454Y0102604D01*
X0160934Y0106714D02*
X0151740Y0106714D01*
X0152128Y0105516D02*
X0155662Y0105516D01*
X0155102Y0104317D02*
X0151101Y0104317D01*
X0148490Y0103119D02*
X0155102Y0103119D01*
X0155102Y0101920D02*
X0148490Y0101920D01*
X0148490Y0100722D02*
X0155102Y0100722D01*
X0155831Y0099523D02*
X0148490Y0099523D01*
X0148490Y0098325D02*
X0164401Y0098325D01*
X0164401Y0099523D02*
X0163078Y0099523D01*
X0163807Y0100722D02*
X0164401Y0100722D01*
X0164401Y0101920D02*
X0163807Y0101920D01*
X0163807Y0103119D02*
X0164392Y0103119D01*
X0164401Y0104317D02*
X0164230Y0104317D01*
X0166401Y0103645D02*
X0166401Y0088289D01*
X0124711Y0046600D01*
X0111600Y0046600D01*
X0110350Y0045350D01*
X0105104Y0040104D01*
X0095054Y0040104D01*
X0098669Y0043193D02*
X0105365Y0043193D01*
X0106563Y0044392D02*
X0018800Y0044392D01*
X0018800Y0045590D02*
X0107762Y0045590D01*
X0108706Y0047850D02*
X0054100Y0047850D01*
X0031098Y0070852D01*
X0030704Y0102604D01*
X0028757Y0098325D02*
X0018800Y0098325D01*
X0018800Y0099523D02*
X0027081Y0099523D01*
X0026352Y0100722D02*
X0018800Y0100722D01*
X0018800Y0101920D02*
X0026352Y0101920D01*
X0026352Y0103119D02*
X0018800Y0103119D01*
X0018800Y0104317D02*
X0026352Y0104317D01*
X0026912Y0105516D02*
X0018800Y0105516D01*
X0018800Y0106714D02*
X0055835Y0106714D01*
X0055420Y0105574D02*
X0055910Y0104523D01*
X0062549Y0102106D01*
X0063600Y0102596D01*
X0065209Y0107016D01*
X0064719Y0108067D01*
X0061000Y0109420D01*
X0061000Y0116283D01*
X0063336Y0115433D01*
X0064391Y0118332D01*
X0064929Y0118137D01*
X0065124Y0118674D01*
X0069134Y0117215D01*
X0069714Y0118809D01*
X0069751Y0119229D01*
X0069678Y0119643D01*
X0069499Y0120025D01*
X0069229Y0120348D01*
X0068884Y0120590D01*
X0066180Y0121574D01*
X0065124Y0118674D01*
X0064587Y0118870D01*
X0065642Y0121769D01*
X0062938Y0122754D01*
X0062519Y0122790D01*
X0062427Y0122774D01*
X0062681Y0123388D01*
X0062681Y0124812D01*
X0062136Y0126129D01*
X0061129Y0127136D01*
X0059812Y0127681D01*
X0058388Y0127681D01*
X0057071Y0127136D01*
X0056064Y0126129D01*
X0055519Y0124812D01*
X0055519Y0123388D01*
X0056064Y0122071D01*
X0057071Y0121064D01*
X0057200Y0121011D01*
X0057200Y0110073D01*
X0057028Y0109993D01*
X0055420Y0105574D01*
X0055447Y0105516D02*
X0053788Y0105516D01*
X0054348Y0104317D02*
X0056474Y0104317D01*
X0054348Y0103119D02*
X0059767Y0103119D01*
X0063790Y0103119D02*
X0075056Y0103119D01*
X0074619Y0101920D02*
X0054348Y0101920D01*
X0053049Y0097126D02*
X0076172Y0097126D01*
X0076172Y0095928D02*
X0053049Y0095928D01*
X0053049Y0094729D02*
X0076172Y0094729D01*
X0076172Y0093531D02*
X0073559Y0093531D01*
X0070960Y0093531D02*
X0069760Y0093531D01*
X0069760Y0092332D02*
X0070960Y0092332D01*
X0070960Y0091134D02*
X0069760Y0091134D01*
X0069760Y0089935D02*
X0070960Y0089935D01*
X0069760Y0088737D02*
X0051602Y0088737D01*
X0051602Y0087538D02*
X0066201Y0087538D01*
X0066201Y0088500D02*
X0066201Y0085937D01*
X0066310Y0085530D01*
X0066520Y0085165D01*
X0066818Y0084867D01*
X0067183Y0084656D01*
X0067590Y0084547D01*
X0069760Y0084547D01*
X0069760Y0088500D01*
X0066201Y0088500D01*
X0066201Y0089935D02*
X0052417Y0089935D01*
X0053049Y0091134D02*
X0066201Y0091134D01*
X0066219Y0092332D02*
X0053049Y0092332D01*
X0053049Y0093531D02*
X0067160Y0093531D01*
X0069760Y0087538D02*
X0070960Y0087538D01*
X0070960Y0086339D02*
X0069760Y0086339D01*
X0069760Y0085141D02*
X0070960Y0085141D01*
X0074175Y0085141D02*
X0074307Y0085141D01*
X0081373Y0085141D02*
X0104044Y0085141D01*
X0104020Y0085165D02*
X0104318Y0084867D01*
X0104683Y0084656D01*
X0105090Y0084547D01*
X0107260Y0084547D01*
X0107260Y0088500D01*
X0103701Y0088500D01*
X0103701Y0085937D01*
X0103810Y0085530D01*
X0104020Y0085165D01*
X0103701Y0086339D02*
X0081799Y0086339D01*
X0081799Y0087538D02*
X0103701Y0087538D01*
X0103701Y0089935D02*
X0081799Y0089935D01*
X0081799Y0088737D02*
X0107260Y0088737D01*
X0107260Y0089935D02*
X0108460Y0089935D01*
X0108460Y0091134D02*
X0107260Y0091134D01*
X0107260Y0092332D02*
X0108460Y0092332D01*
X0108460Y0093531D02*
X0107260Y0093531D01*
X0108789Y0094729D02*
X0112214Y0094729D01*
X0112175Y0093531D02*
X0111059Y0093531D01*
X0110033Y0095928D02*
X0112253Y0095928D01*
X0112292Y0097126D02*
X0111310Y0097126D01*
X0108311Y0099523D02*
X0098703Y0099523D01*
X0098612Y0099432D02*
X0099432Y0100252D01*
X0099432Y0101745D01*
X0099504Y0101817D01*
X0103259Y0105572D01*
X0103388Y0105519D01*
X0104812Y0105519D01*
X0106129Y0106064D01*
X0107136Y0107071D01*
X0107681Y0108388D01*
X0107681Y0109812D01*
X0107136Y0111129D01*
X0106129Y0112136D01*
X0104812Y0112681D01*
X0103388Y0112681D01*
X0102071Y0112136D01*
X0101064Y0111129D01*
X0100519Y0109812D01*
X0100519Y0108388D01*
X0100572Y0108259D01*
X0098089Y0105776D01*
X0091547Y0105776D01*
X0090727Y0104955D01*
X0090727Y0100252D01*
X0091547Y0099432D01*
X0098612Y0099432D01*
X0099432Y0100722D02*
X0109588Y0100722D01*
X0110018Y0101920D02*
X0099607Y0101920D01*
X0100806Y0103119D02*
X0110018Y0103119D01*
X0110018Y0104317D02*
X0102004Y0104317D01*
X0103203Y0105516D02*
X0110578Y0105516D01*
X0107484Y0107913D02*
X0117848Y0107913D01*
X0117850Y0109111D02*
X0107681Y0109111D01*
X0107475Y0110310D02*
X0116725Y0110310D01*
X0115601Y0111508D02*
X0106756Y0111508D01*
X0106779Y0106714D02*
X0117039Y0106714D01*
X0119687Y0112707D02*
X0119710Y0112707D01*
X0120440Y0113905D02*
X0118723Y0113905D01*
X0118723Y0115104D02*
X0123829Y0115104D01*
X0123805Y0115171D02*
X0124860Y0112272D01*
X0128870Y0113731D01*
X0128289Y0115325D01*
X0128048Y0115670D01*
X0127725Y0115941D01*
X0127343Y0116119D01*
X0126928Y0116192D01*
X0126509Y0116156D01*
X0123805Y0115171D01*
X0123657Y0113905D02*
X0124265Y0113905D01*
X0124093Y0112707D02*
X0124702Y0112707D01*
X0124530Y0111508D02*
X0125138Y0111508D01*
X0124966Y0110310D02*
X0125574Y0110310D01*
X0125402Y0109111D02*
X0126010Y0109111D01*
X0126871Y0109111D02*
X0132200Y0109111D01*
X0132200Y0107913D02*
X0123578Y0107913D01*
X0123661Y0106714D02*
X0132200Y0106714D01*
X0132200Y0105516D02*
X0123931Y0105516D01*
X0123798Y0104317D02*
X0131630Y0104317D01*
X0129261Y0103119D02*
X0123183Y0103119D01*
X0121427Y0101920D02*
X0125968Y0101920D01*
X0124380Y0100722D02*
X0118791Y0100722D01*
X0118723Y0101920D02*
X0119273Y0101920D01*
X0119934Y0099523D02*
X0124564Y0099523D01*
X0125000Y0098325D02*
X0121077Y0098325D01*
X0122220Y0097126D02*
X0125436Y0097126D01*
X0121541Y0092332D02*
X0119299Y0092332D01*
X0119299Y0091134D02*
X0134951Y0091134D01*
X0134969Y0092332D02*
X0131269Y0092332D01*
X0132468Y0093531D02*
X0135910Y0093531D01*
X0133666Y0094729D02*
X0144690Y0094729D01*
X0144690Y0093531D02*
X0142309Y0093531D01*
X0139710Y0093531D02*
X0138510Y0093531D01*
X0138510Y0092332D02*
X0139710Y0092332D01*
X0139710Y0091134D02*
X0138510Y0091134D01*
X0138510Y0089935D02*
X0139710Y0089935D01*
X0138510Y0088737D02*
X0119299Y0088737D01*
X0119299Y0089935D02*
X0134951Y0089935D01*
X0134951Y0088500D02*
X0134951Y0085937D01*
X0135060Y0085530D01*
X0135270Y0085165D01*
X0135568Y0084867D01*
X0135933Y0084656D01*
X0136340Y0084547D01*
X0138510Y0084547D01*
X0138510Y0088500D01*
X0134951Y0088500D01*
X0134951Y0087538D02*
X0119299Y0087538D01*
X0119299Y0086339D02*
X0134951Y0086339D01*
X0135294Y0085141D02*
X0118873Y0085141D01*
X0111807Y0085141D02*
X0111675Y0085141D01*
X0108460Y0085141D02*
X0107260Y0085141D01*
X0107260Y0086339D02*
X0108460Y0086339D01*
X0108460Y0087538D02*
X0107260Y0087538D01*
X0103701Y0091134D02*
X0081799Y0091134D01*
X0081799Y0092332D02*
X0103719Y0092332D01*
X0104660Y0093531D02*
X0079972Y0093531D01*
X0079972Y0094729D02*
X0089534Y0094729D01*
X0088335Y0095928D02*
X0081577Y0095928D01*
X0082139Y0097126D02*
X0087137Y0097126D01*
X0088930Y0100722D02*
X0090727Y0100722D01*
X0090727Y0101920D02*
X0081607Y0101920D01*
X0078314Y0103119D02*
X0090727Y0103119D01*
X0090727Y0104317D02*
X0064227Y0104317D01*
X0064663Y0105516D02*
X0091287Y0105516D01*
X0086501Y0109111D02*
X0100519Y0109111D01*
X0100725Y0110310D02*
X0086937Y0110310D01*
X0087373Y0111508D02*
X0101444Y0111508D01*
X0099177Y0112707D02*
X0110556Y0112707D01*
X0110018Y0113905D02*
X0099632Y0113905D01*
X0099632Y0115104D02*
X0110018Y0115104D01*
X0110018Y0116302D02*
X0099632Y0116302D01*
X0099632Y0115882D02*
X0099632Y0117578D01*
X0099523Y0117985D01*
X0099312Y0118350D01*
X0099015Y0118648D01*
X0098650Y0118859D01*
X0098243Y0118968D01*
X0095365Y0118968D01*
X0095365Y0115882D01*
X0099632Y0115882D01*
X0099632Y0117501D02*
X0110018Y0117501D01*
X0110770Y0118699D02*
X0098926Y0118699D01*
X0095365Y0118699D02*
X0094793Y0118699D01*
X0094793Y0117501D02*
X0095365Y0117501D01*
X0095365Y0116302D02*
X0094793Y0116302D01*
X0094793Y0115104D02*
X0095365Y0115104D01*
X0095365Y0113905D02*
X0094793Y0113905D01*
X0094793Y0112707D02*
X0095365Y0112707D01*
X0090982Y0112707D02*
X0087743Y0112707D01*
X0087435Y0113905D02*
X0090527Y0113905D01*
X0090527Y0115104D02*
X0088584Y0115104D01*
X0089733Y0116302D02*
X0090527Y0116302D01*
X0093180Y0119898D02*
X0125615Y0119898D01*
X0124417Y0121096D02*
X0094328Y0121096D01*
X0091362Y0123493D02*
X0062681Y0123493D01*
X0062681Y0124692D02*
X0092511Y0124692D01*
X0093660Y0125890D02*
X0062235Y0125890D01*
X0061176Y0127089D02*
X0140917Y0127089D01*
X0140917Y0128287D02*
X0051933Y0128287D01*
X0051939Y0127089D02*
X0057024Y0127089D01*
X0055965Y0125890D02*
X0051945Y0125890D01*
X0051951Y0124692D02*
X0055519Y0124692D01*
X0055519Y0123493D02*
X0051957Y0123493D01*
X0051963Y0122295D02*
X0055972Y0122295D01*
X0057039Y0121096D02*
X0051969Y0121096D01*
X0051974Y0119898D02*
X0057200Y0119898D01*
X0057200Y0118699D02*
X0053597Y0118699D01*
X0054348Y0117501D02*
X0057200Y0117501D01*
X0057200Y0116302D02*
X0054348Y0116302D01*
X0054348Y0115104D02*
X0057200Y0115104D01*
X0057200Y0113905D02*
X0054348Y0113905D01*
X0053811Y0112707D02*
X0057200Y0112707D01*
X0057200Y0111508D02*
X0018800Y0111508D01*
X0018800Y0110310D02*
X0057200Y0110310D01*
X0056707Y0109111D02*
X0018800Y0109111D01*
X0018800Y0107913D02*
X0056271Y0107913D01*
X0061000Y0110310D02*
X0078399Y0110310D01*
X0078109Y0111508D02*
X0061000Y0111508D01*
X0061000Y0112707D02*
X0078545Y0112707D01*
X0078982Y0113905D02*
X0061000Y0113905D01*
X0061000Y0115104D02*
X0064240Y0115104D01*
X0063873Y0115237D02*
X0066577Y0114253D01*
X0066997Y0114216D01*
X0067412Y0114289D01*
X0067794Y0114468D01*
X0068116Y0114738D01*
X0068358Y0115083D01*
X0068938Y0116678D01*
X0064929Y0118137D01*
X0063873Y0115237D01*
X0063652Y0116302D02*
X0064261Y0116302D01*
X0064089Y0117501D02*
X0064697Y0117501D01*
X0065055Y0118699D02*
X0065133Y0118699D01*
X0064961Y0119898D02*
X0065570Y0119898D01*
X0065397Y0121096D02*
X0066006Y0121096D01*
X0067492Y0121096D02*
X0089064Y0121096D01*
X0087916Y0119898D02*
X0069559Y0119898D01*
X0069674Y0118699D02*
X0086767Y0118699D01*
X0085618Y0117501D02*
X0069238Y0117501D01*
X0068348Y0117501D02*
X0066676Y0117501D01*
X0068802Y0116302D02*
X0084469Y0116302D01*
X0079418Y0115104D02*
X0068365Y0115104D01*
X0064791Y0107913D02*
X0084582Y0107913D01*
X0085541Y0107913D02*
X0100226Y0107913D01*
X0099027Y0106714D02*
X0065099Y0106714D01*
X0061849Y0109111D02*
X0081289Y0109111D01*
X0090114Y0099523D02*
X0091456Y0099523D01*
X0090213Y0122295D02*
X0064199Y0122295D01*
X0051927Y0129486D02*
X0140917Y0129486D01*
X0140917Y0130684D02*
X0051921Y0130684D01*
X0051915Y0131883D02*
X0140917Y0131883D01*
X0140917Y0133081D02*
X0051909Y0133081D01*
X0051903Y0134280D02*
X0140917Y0134280D01*
X0140917Y0135478D02*
X0051898Y0135478D01*
X0051892Y0136677D02*
X0140209Y0136677D01*
X0139814Y0137071D02*
X0140821Y0136064D01*
X0140917Y0136024D01*
X0140917Y0121187D01*
X0138413Y0120275D01*
X0137923Y0119224D01*
X0139531Y0114805D01*
X0140582Y0114315D01*
X0147222Y0116731D01*
X0147712Y0117782D01*
X0146103Y0122202D01*
X0145052Y0122692D01*
X0144717Y0122570D01*
X0144717Y0135997D01*
X0144879Y0136064D01*
X0145886Y0137071D01*
X0146431Y0138388D01*
X0146431Y0139812D01*
X0145886Y0141129D01*
X0144879Y0142136D01*
X0143562Y0142681D01*
X0142138Y0142681D01*
X0140821Y0142136D01*
X0139814Y0141129D01*
X0139269Y0139812D01*
X0139269Y0138388D01*
X0139814Y0137071D01*
X0139481Y0137875D02*
X0051886Y0137875D01*
X0051880Y0139074D02*
X0139269Y0139074D01*
X0139460Y0140272D02*
X0051874Y0140272D01*
X0051868Y0141471D02*
X0140157Y0141471D01*
X0142110Y0142670D02*
X0051862Y0142670D01*
X0051856Y0143868D02*
X0163151Y0143868D01*
X0163151Y0142670D02*
X0143590Y0142670D01*
X0145543Y0141471D02*
X0163151Y0141471D01*
X0163151Y0140272D02*
X0146240Y0140272D01*
X0146431Y0139074D02*
X0163151Y0139074D01*
X0163151Y0137875D02*
X0146219Y0137875D01*
X0145491Y0136677D02*
X0163151Y0136677D01*
X0163151Y0135478D02*
X0144717Y0135478D01*
X0144717Y0134280D02*
X0163151Y0134280D01*
X0163151Y0133081D02*
X0144717Y0133081D01*
X0144717Y0131883D02*
X0163151Y0131883D01*
X0163151Y0130684D02*
X0144717Y0130684D01*
X0144717Y0129486D02*
X0163151Y0129486D01*
X0163151Y0128287D02*
X0144717Y0128287D01*
X0144717Y0127089D02*
X0163151Y0127089D01*
X0163151Y0125890D02*
X0144717Y0125890D01*
X0144717Y0124692D02*
X0163151Y0124692D01*
X0163151Y0123493D02*
X0144717Y0123493D01*
X0145904Y0122295D02*
X0163151Y0122295D01*
X0163151Y0121096D02*
X0146505Y0121096D01*
X0146942Y0119898D02*
X0163151Y0119898D01*
X0167151Y0119898D02*
X0182421Y0119898D01*
X0182278Y0118768D02*
X0182421Y0118625D01*
X0182421Y0122841D01*
X0182257Y0168010D01*
X0182195Y0167861D01*
X0180339Y0166005D01*
X0177913Y0165000D01*
X0175287Y0165000D01*
X0172861Y0166005D01*
X0171005Y0167861D01*
X0170000Y0170287D01*
X0170000Y0172913D01*
X0171005Y0175339D01*
X0172861Y0177195D01*
X0175287Y0178200D01*
X0177913Y0178200D01*
X0180339Y0177195D01*
X0182195Y0175339D01*
X0182231Y0175253D01*
X0182103Y0210440D01*
X0179208Y0213497D01*
X0174701Y0213497D01*
X0174230Y0213968D01*
X0174199Y0213915D01*
X0173901Y0213617D01*
X0173536Y0213406D01*
X0173130Y0213297D01*
X0170960Y0213297D01*
X0170960Y0217250D01*
X0169760Y0217250D01*
X0169760Y0213297D01*
X0167590Y0213297D01*
X0167183Y0213406D01*
X0167151Y0213425D01*
X0167151Y0108694D01*
X0167179Y0108663D01*
X0167151Y0107871D01*
X0167151Y0107155D01*
X0174393Y0114166D01*
X0174393Y0117948D01*
X0175213Y0118768D01*
X0182278Y0118768D01*
X0182347Y0118699D02*
X0182421Y0118699D01*
X0182421Y0121096D02*
X0167151Y0121096D01*
X0167151Y0122295D02*
X0182421Y0122295D01*
X0182418Y0123493D02*
X0167151Y0123493D01*
X0167151Y0124692D02*
X0182414Y0124692D01*
X0182410Y0125890D02*
X0167151Y0125890D01*
X0167151Y0127089D02*
X0182405Y0127089D01*
X0182401Y0128287D02*
X0167151Y0128287D01*
X0167151Y0129486D02*
X0182397Y0129486D01*
X0182392Y0130684D02*
X0167151Y0130684D01*
X0167151Y0131883D02*
X0182388Y0131883D01*
X0182384Y0133081D02*
X0167151Y0133081D01*
X0167151Y0134280D02*
X0182379Y0134280D01*
X0182375Y0135478D02*
X0167151Y0135478D01*
X0167151Y0136677D02*
X0182371Y0136677D01*
X0182366Y0137875D02*
X0167151Y0137875D01*
X0167151Y0139074D02*
X0182362Y0139074D01*
X0182358Y0140272D02*
X0167151Y0140272D01*
X0167151Y0141471D02*
X0182353Y0141471D01*
X0182349Y0142670D02*
X0167151Y0142670D01*
X0167151Y0143868D02*
X0182344Y0143868D01*
X0182340Y0145067D02*
X0167151Y0145067D01*
X0167151Y0146265D02*
X0182336Y0146265D01*
X0182331Y0147464D02*
X0167151Y0147464D01*
X0167151Y0148662D02*
X0182327Y0148662D01*
X0182323Y0149861D02*
X0167151Y0149861D01*
X0167151Y0151059D02*
X0182318Y0151059D01*
X0182314Y0152258D02*
X0167151Y0152258D01*
X0167151Y0153456D02*
X0182310Y0153456D01*
X0182305Y0154655D02*
X0167151Y0154655D01*
X0167151Y0155853D02*
X0182301Y0155853D01*
X0182297Y0157052D02*
X0167151Y0157052D01*
X0167151Y0158250D02*
X0182292Y0158250D01*
X0182288Y0159449D02*
X0167151Y0159449D01*
X0167151Y0160647D02*
X0182284Y0160647D01*
X0182279Y0161846D02*
X0167151Y0161846D01*
X0167151Y0163044D02*
X0182275Y0163044D01*
X0182271Y0164243D02*
X0167151Y0164243D01*
X0167151Y0165441D02*
X0174222Y0165441D01*
X0172226Y0166640D02*
X0167151Y0166640D01*
X0167151Y0167838D02*
X0171028Y0167838D01*
X0170518Y0169037D02*
X0167151Y0169037D01*
X0167151Y0170235D02*
X0170021Y0170235D01*
X0170000Y0171434D02*
X0167151Y0171434D01*
X0167151Y0172632D02*
X0170000Y0172632D01*
X0170380Y0173831D02*
X0167151Y0173831D01*
X0167151Y0175029D02*
X0170877Y0175029D01*
X0171894Y0176228D02*
X0167151Y0176228D01*
X0167151Y0177426D02*
X0173419Y0177426D01*
X0179781Y0177426D02*
X0182223Y0177426D01*
X0182227Y0176228D02*
X0181306Y0176228D01*
X0182218Y0178625D02*
X0167151Y0178625D01*
X0167151Y0179823D02*
X0182214Y0179823D01*
X0182210Y0181022D02*
X0167151Y0181022D01*
X0167151Y0182220D02*
X0182205Y0182220D01*
X0182201Y0183419D02*
X0167151Y0183419D01*
X0167151Y0184617D02*
X0182197Y0184617D01*
X0182192Y0185816D02*
X0167151Y0185816D01*
X0167151Y0187014D02*
X0182188Y0187014D01*
X0182184Y0188213D02*
X0167151Y0188213D01*
X0167151Y0189411D02*
X0182179Y0189411D01*
X0182175Y0190610D02*
X0167151Y0190610D01*
X0167151Y0191808D02*
X0182170Y0191808D01*
X0182166Y0193007D02*
X0167151Y0193007D01*
X0167151Y0194205D02*
X0182162Y0194205D01*
X0182157Y0195404D02*
X0167151Y0195404D01*
X0167151Y0196603D02*
X0182153Y0196603D01*
X0182149Y0197801D02*
X0167151Y0197801D01*
X0167151Y0199000D02*
X0182144Y0199000D01*
X0182140Y0200198D02*
X0167151Y0200198D01*
X0167151Y0201397D02*
X0182136Y0201397D01*
X0182131Y0202595D02*
X0167151Y0202595D01*
X0167151Y0203794D02*
X0182127Y0203794D01*
X0182123Y0204992D02*
X0167151Y0204992D01*
X0167151Y0206191D02*
X0182118Y0206191D01*
X0182114Y0207389D02*
X0167151Y0207389D01*
X0167151Y0208588D02*
X0182110Y0208588D01*
X0182105Y0209786D02*
X0167151Y0209786D01*
X0167151Y0210985D02*
X0181587Y0210985D01*
X0180452Y0212183D02*
X0167151Y0212183D01*
X0167151Y0213382D02*
X0167275Y0213382D01*
X0169760Y0213382D02*
X0170960Y0213382D01*
X0170960Y0214580D02*
X0169760Y0214580D01*
X0169760Y0215779D02*
X0170960Y0215779D01*
X0170960Y0216977D02*
X0169760Y0216977D01*
X0169760Y0218450D02*
X0169760Y0222403D01*
X0167590Y0222403D01*
X0167183Y0222294D01*
X0167151Y0222275D01*
X0167151Y0226549D01*
X0178350Y0237424D01*
X0182100Y0237424D01*
X0182100Y0234139D01*
X0178967Y0230776D01*
X0175213Y0230776D01*
X0174393Y0229955D01*
X0174393Y0225252D01*
X0175213Y0224432D01*
X0176609Y0224432D01*
X0176514Y0222203D01*
X0174701Y0222203D01*
X0174230Y0221732D01*
X0174199Y0221785D01*
X0173901Y0222083D01*
X0173536Y0222294D01*
X0173130Y0222403D01*
X0170960Y0222403D01*
X0170960Y0218450D01*
X0169760Y0218450D01*
X0169760Y0219374D02*
X0170960Y0219374D01*
X0170960Y0220573D02*
X0169760Y0220573D01*
X0169760Y0221771D02*
X0170960Y0221771D01*
X0174207Y0221771D02*
X0174270Y0221771D01*
X0176546Y0222970D02*
X0167151Y0222970D01*
X0167151Y0224168D02*
X0176598Y0224168D01*
X0174393Y0225367D02*
X0167151Y0225367D01*
X0167167Y0226565D02*
X0174393Y0226565D01*
X0174393Y0227764D02*
X0168402Y0227764D01*
X0169636Y0228962D02*
X0174393Y0228962D01*
X0174598Y0230161D02*
X0170870Y0230161D01*
X0172104Y0231359D02*
X0179511Y0231359D01*
X0180627Y0232558D02*
X0173339Y0232558D01*
X0174573Y0233756D02*
X0181743Y0233756D01*
X0182100Y0234955D02*
X0175807Y0234955D01*
X0177041Y0236153D02*
X0182100Y0236153D01*
X0182100Y0237352D02*
X0178276Y0237352D01*
X0178746Y0240596D02*
X0165151Y0227395D01*
X0161031Y0231359D02*
X0138500Y0231359D01*
X0139698Y0230161D02*
X0155307Y0230161D01*
X0155102Y0228962D02*
X0140897Y0228962D01*
X0144289Y0227764D02*
X0155102Y0227764D01*
X0155102Y0226565D02*
X0147581Y0226565D01*
X0148318Y0225367D02*
X0155102Y0225367D01*
X0159454Y0227604D02*
X0160104Y0227604D01*
X0169100Y0236600D01*
X0169100Y0286600D01*
X0152604Y0303096D01*
X0114346Y0303096D01*
X0109993Y0303270D02*
X0095340Y0303270D01*
X0095340Y0303382D02*
X0099607Y0303382D01*
X0099607Y0305078D01*
X0099498Y0305485D01*
X0099287Y0305850D01*
X0098990Y0306148D01*
X0098625Y0306359D01*
X0098218Y0306468D01*
X0095340Y0306468D01*
X0095340Y0303382D01*
X0094768Y0303382D01*
X0094768Y0302810D01*
X0090502Y0302810D01*
X0090502Y0301114D01*
X0090611Y0300707D01*
X0090821Y0300342D01*
X0091119Y0300044D01*
X0091484Y0299833D01*
X0091891Y0299724D01*
X0094768Y0299724D01*
X0094768Y0302810D01*
X0095340Y0302810D01*
X0095340Y0299724D01*
X0098218Y0299724D01*
X0098625Y0299833D01*
X0098990Y0300044D01*
X0099287Y0300342D01*
X0099498Y0300707D01*
X0099607Y0301114D01*
X0099607Y0302810D01*
X0095340Y0302810D01*
X0095340Y0303382D01*
X0094768Y0303382D02*
X0094768Y0306468D01*
X0091891Y0306468D01*
X0091484Y0306359D01*
X0091119Y0306148D01*
X0090821Y0305850D01*
X0090611Y0305485D01*
X0090502Y0305078D01*
X0090502Y0303382D01*
X0094768Y0303382D01*
X0094768Y0303270D02*
X0040842Y0303270D01*
X0040384Y0304469D02*
X0090502Y0304469D01*
X0090716Y0305667D02*
X0041857Y0305667D01*
X0042610Y0306866D02*
X0170590Y0306866D01*
X0170198Y0308064D02*
X0043002Y0308064D01*
X0043087Y0309600D02*
X0042969Y0310341D01*
X0042712Y0311134D01*
X0042333Y0311878D01*
X0041843Y0312553D01*
X0041253Y0313143D01*
X0040578Y0313633D01*
X0039834Y0314012D01*
X0039041Y0314269D01*
X0038217Y0314400D01*
X0034600Y0314400D01*
X0034600Y0309600D01*
X0043087Y0309600D01*
X0042930Y0310461D02*
X0170270Y0310461D01*
X0170756Y0311660D02*
X0042444Y0311660D01*
X0041537Y0312858D02*
X0171663Y0312858D01*
X0173504Y0314057D02*
X0039696Y0314057D01*
X0034600Y0314057D02*
X0033600Y0314057D01*
X0033600Y0312858D02*
X0034600Y0312858D01*
X0034600Y0311660D02*
X0033600Y0311660D01*
X0033600Y0310461D02*
X0034600Y0310461D01*
X0034600Y0309263D02*
X0178600Y0309263D01*
X0179600Y0309263D02*
X0190826Y0309263D01*
X0189628Y0310461D02*
X0187930Y0310461D01*
X0187969Y0310341D02*
X0187712Y0311134D01*
X0187333Y0311878D01*
X0186843Y0312553D01*
X0186253Y0313143D01*
X0185578Y0313633D01*
X0184834Y0314012D01*
X0184041Y0314269D01*
X0183217Y0314400D01*
X0179600Y0314400D01*
X0179600Y0309600D01*
X0188087Y0309600D01*
X0187969Y0310341D01*
X0188429Y0311660D02*
X0187444Y0311660D01*
X0187231Y0312858D02*
X0186537Y0312858D01*
X0186032Y0314057D02*
X0184696Y0314057D01*
X0188002Y0308064D02*
X0192025Y0308064D01*
X0193223Y0306866D02*
X0187610Y0306866D01*
X0186857Y0305667D02*
X0194400Y0305667D01*
X0194400Y0304469D02*
X0185384Y0304469D01*
X0185842Y0303270D02*
X0194400Y0303270D01*
X0194400Y0302072D02*
X0187041Y0302072D01*
X0187586Y0300873D02*
X0194400Y0300873D01*
X0194400Y0299674D02*
X0187900Y0299674D01*
X0187900Y0298476D02*
X0194400Y0298476D01*
X0194400Y0297277D02*
X0187565Y0297277D01*
X0186991Y0296079D02*
X0194400Y0296079D01*
X0194400Y0294880D02*
X0185793Y0294880D01*
X0185065Y0293682D02*
X0194400Y0293682D01*
X0194400Y0292483D02*
X0186629Y0292483D01*
X0187415Y0291285D02*
X0194400Y0291285D01*
X0194400Y0290086D02*
X0187900Y0290086D01*
X0187900Y0288888D02*
X0194400Y0288888D01*
X0194400Y0287689D02*
X0187736Y0287689D01*
X0187239Y0286491D02*
X0194400Y0286491D01*
X0194400Y0285292D02*
X0186205Y0285292D01*
X0186100Y0284094D02*
X0194400Y0284094D01*
X0194400Y0282895D02*
X0186100Y0282895D01*
X0186100Y0281697D02*
X0194400Y0281697D01*
X0194400Y0280498D02*
X0186100Y0280498D01*
X0186100Y0279300D02*
X0194400Y0279300D01*
X0194400Y0278101D02*
X0186100Y0278101D01*
X0186100Y0276903D02*
X0194400Y0276903D01*
X0194400Y0275704D02*
X0186100Y0275704D01*
X0186100Y0274506D02*
X0194400Y0274506D01*
X0194400Y0273307D02*
X0186100Y0273307D01*
X0186100Y0272109D02*
X0194400Y0272109D01*
X0194400Y0270910D02*
X0186100Y0270910D01*
X0186100Y0269712D02*
X0194400Y0269712D01*
X0194400Y0268513D02*
X0186100Y0268513D01*
X0186100Y0267315D02*
X0194400Y0267315D01*
X0194400Y0266116D02*
X0186100Y0266116D01*
X0186100Y0264918D02*
X0194400Y0264918D01*
X0194400Y0263719D02*
X0186100Y0263719D01*
X0186100Y0262521D02*
X0194400Y0262521D01*
X0194400Y0261322D02*
X0186100Y0261322D01*
X0186100Y0260124D02*
X0194400Y0260124D01*
X0194400Y0258925D02*
X0186100Y0258925D01*
X0186100Y0257727D02*
X0194400Y0257727D01*
X0194400Y0256528D02*
X0186100Y0256528D01*
X0186100Y0255330D02*
X0194400Y0255330D01*
X0194400Y0254131D02*
X0186100Y0254131D01*
X0186100Y0252933D02*
X0194400Y0252933D01*
X0194400Y0251734D02*
X0186100Y0251734D01*
X0186100Y0250536D02*
X0194400Y0250536D01*
X0194400Y0249337D02*
X0186100Y0249337D01*
X0186100Y0248139D02*
X0194400Y0248139D01*
X0194400Y0246940D02*
X0186100Y0246940D01*
X0186100Y0245741D02*
X0194400Y0245741D01*
X0194400Y0244543D02*
X0186100Y0244543D01*
X0186100Y0243344D02*
X0194400Y0243344D01*
X0194400Y0242146D02*
X0186100Y0242146D01*
X0186100Y0240947D02*
X0194400Y0240947D01*
X0194400Y0239749D02*
X0186100Y0239749D01*
X0186100Y0238550D02*
X0194400Y0238550D01*
X0194400Y0237352D02*
X0186100Y0237352D01*
X0186100Y0236153D02*
X0194400Y0236153D01*
X0194400Y0234955D02*
X0186100Y0234955D01*
X0186100Y0233756D02*
X0194400Y0233756D01*
X0194400Y0232558D02*
X0186100Y0232558D01*
X0184977Y0231359D02*
X0194400Y0231359D01*
X0194400Y0230161D02*
X0183861Y0230161D01*
X0183098Y0228962D02*
X0194400Y0228962D01*
X0194400Y0227764D02*
X0183098Y0227764D01*
X0183098Y0226565D02*
X0194400Y0226565D01*
X0194400Y0225367D02*
X0183098Y0225367D01*
X0180601Y0224168D02*
X0194400Y0224168D01*
X0194400Y0222970D02*
X0180550Y0222970D01*
X0181411Y0221771D02*
X0194400Y0221771D01*
X0194400Y0220573D02*
X0181799Y0220573D01*
X0181799Y0219374D02*
X0194400Y0219374D01*
X0194400Y0218176D02*
X0181799Y0218176D01*
X0181799Y0216977D02*
X0194400Y0216977D01*
X0194400Y0215779D02*
X0182556Y0215779D01*
X0183691Y0214580D02*
X0194400Y0214580D01*
X0194400Y0213382D02*
X0184826Y0213382D01*
X0185989Y0212183D02*
X0194400Y0212183D01*
X0194400Y0210985D02*
X0186101Y0210985D01*
X0186105Y0209786D02*
X0194400Y0209786D01*
X0194400Y0208588D02*
X0186110Y0208588D01*
X0186114Y0207389D02*
X0194400Y0207389D01*
X0194400Y0206191D02*
X0186118Y0206191D01*
X0186123Y0204992D02*
X0194400Y0204992D01*
X0194400Y0203794D02*
X0186127Y0203794D01*
X0186131Y0202595D02*
X0194400Y0202595D01*
X0194400Y0201397D02*
X0186136Y0201397D01*
X0186140Y0200198D02*
X0194400Y0200198D01*
X0194400Y0199000D02*
X0186144Y0199000D01*
X0186149Y0197801D02*
X0194400Y0197801D01*
X0194400Y0196603D02*
X0186153Y0196603D01*
X0186157Y0195404D02*
X0194400Y0195404D01*
X0194400Y0194205D02*
X0186162Y0194205D01*
X0186166Y0193007D02*
X0194400Y0193007D01*
X0194400Y0191808D02*
X0186171Y0191808D01*
X0186175Y0190610D02*
X0194400Y0190610D01*
X0194400Y0189411D02*
X0186179Y0189411D01*
X0186184Y0188213D02*
X0194400Y0188213D01*
X0194400Y0187014D02*
X0186188Y0187014D01*
X0186192Y0185816D02*
X0194400Y0185816D01*
X0194400Y0184617D02*
X0186197Y0184617D01*
X0186201Y0183419D02*
X0194400Y0183419D01*
X0194109Y0182220D02*
X0186205Y0182220D01*
X0186210Y0181022D02*
X0192911Y0181022D01*
X0191712Y0179823D02*
X0186214Y0179823D01*
X0186218Y0178625D02*
X0190514Y0178625D01*
X0189315Y0177426D02*
X0186223Y0177426D01*
X0186227Y0176228D02*
X0188117Y0176228D01*
X0186918Y0175029D02*
X0186231Y0175029D01*
X0186257Y0167838D02*
X0187250Y0167838D01*
X0186262Y0166640D02*
X0188449Y0166640D01*
X0189647Y0165441D02*
X0186266Y0165441D01*
X0186271Y0164243D02*
X0190846Y0164243D01*
X0192045Y0163044D02*
X0186275Y0163044D01*
X0186279Y0161846D02*
X0193243Y0161846D01*
X0194400Y0160647D02*
X0186284Y0160647D01*
X0186288Y0159449D02*
X0194400Y0159449D01*
X0194400Y0158250D02*
X0186292Y0158250D01*
X0186297Y0157052D02*
X0194400Y0157052D01*
X0194400Y0155853D02*
X0186301Y0155853D01*
X0186305Y0154655D02*
X0194400Y0154655D01*
X0194400Y0153456D02*
X0186310Y0153456D01*
X0186314Y0152258D02*
X0194400Y0152258D01*
X0194400Y0151059D02*
X0186318Y0151059D01*
X0186323Y0149861D02*
X0194400Y0149861D01*
X0194400Y0148662D02*
X0186327Y0148662D01*
X0186331Y0147464D02*
X0194400Y0147464D01*
X0194400Y0146265D02*
X0186336Y0146265D01*
X0186340Y0145067D02*
X0194400Y0145067D01*
X0194400Y0143868D02*
X0186344Y0143868D01*
X0186349Y0142670D02*
X0194400Y0142670D01*
X0194400Y0141471D02*
X0186353Y0141471D01*
X0186358Y0140272D02*
X0194400Y0140272D01*
X0194400Y0139074D02*
X0186362Y0139074D01*
X0186366Y0137875D02*
X0194400Y0137875D01*
X0194400Y0136677D02*
X0186371Y0136677D01*
X0186375Y0135478D02*
X0194400Y0135478D01*
X0194400Y0134280D02*
X0186379Y0134280D01*
X0186384Y0133081D02*
X0194400Y0133081D01*
X0194400Y0131883D02*
X0186388Y0131883D01*
X0186392Y0130684D02*
X0194400Y0130684D01*
X0194400Y0129486D02*
X0186397Y0129486D01*
X0186401Y0128287D02*
X0194400Y0128287D01*
X0194400Y0127089D02*
X0186405Y0127089D01*
X0186410Y0125890D02*
X0194400Y0125890D01*
X0194400Y0124692D02*
X0186414Y0124692D01*
X0186421Y0123493D02*
X0194400Y0123493D01*
X0194400Y0122295D02*
X0186423Y0122295D01*
X0186421Y0121096D02*
X0194400Y0121096D01*
X0194400Y0119898D02*
X0186421Y0119898D01*
X0186421Y0118699D02*
X0194400Y0118699D01*
X0194400Y0117501D02*
X0186421Y0117501D01*
X0186421Y0116302D02*
X0194400Y0116302D01*
X0194400Y0115104D02*
X0186421Y0115104D01*
X0186421Y0113905D02*
X0194400Y0113905D01*
X0194400Y0112707D02*
X0186421Y0112707D01*
X0186421Y0111508D02*
X0194400Y0111508D01*
X0194400Y0110310D02*
X0186421Y0110310D01*
X0186421Y0109111D02*
X0194400Y0109111D01*
X0194400Y0107913D02*
X0186421Y0107913D01*
X0185684Y0106714D02*
X0194400Y0106714D01*
X0194400Y0105516D02*
X0184486Y0105516D01*
X0183287Y0104317D02*
X0194400Y0104317D01*
X0194400Y0103119D02*
X0183098Y0103119D01*
X0183098Y0101920D02*
X0194400Y0101920D01*
X0194400Y0100722D02*
X0183098Y0100722D01*
X0182369Y0099523D02*
X0194400Y0099523D01*
X0194400Y0098325D02*
X0181107Y0098325D01*
X0181799Y0097126D02*
X0194400Y0097126D01*
X0194400Y0095928D02*
X0181799Y0095928D01*
X0181799Y0094729D02*
X0194400Y0094729D01*
X0194400Y0093531D02*
X0181799Y0093531D01*
X0181799Y0092332D02*
X0194400Y0092332D01*
X0194400Y0091134D02*
X0181799Y0091134D01*
X0181167Y0089935D02*
X0194400Y0089935D01*
X0194400Y0088737D02*
X0181100Y0088737D01*
X0181100Y0087538D02*
X0194400Y0087538D01*
X0194400Y0086339D02*
X0181100Y0086339D01*
X0181100Y0085141D02*
X0194400Y0085141D01*
X0194400Y0083942D02*
X0181100Y0083942D01*
X0181100Y0082744D02*
X0194400Y0082744D01*
X0194400Y0081545D02*
X0181100Y0081545D01*
X0181100Y0080347D02*
X0194400Y0080347D01*
X0194400Y0079148D02*
X0181100Y0079148D01*
X0181100Y0077950D02*
X0194400Y0077950D01*
X0194400Y0076751D02*
X0181100Y0076751D01*
X0181100Y0075553D02*
X0194400Y0075553D01*
X0194400Y0074354D02*
X0181100Y0074354D01*
X0181100Y0073156D02*
X0194400Y0073156D01*
X0194400Y0071957D02*
X0181100Y0071957D01*
X0181100Y0070759D02*
X0194400Y0070759D01*
X0194400Y0069560D02*
X0181100Y0069560D01*
X0181100Y0068362D02*
X0194400Y0068362D01*
X0194400Y0067163D02*
X0190805Y0067163D01*
X0191073Y0067052D02*
X0189793Y0067583D01*
X0188407Y0067583D01*
X0187127Y0067052D01*
X0186148Y0066073D01*
X0185617Y0064793D01*
X0185617Y0063407D01*
X0186148Y0062127D01*
X0187100Y0061175D01*
X0187100Y0056858D01*
X0185292Y0056858D01*
X0184472Y0056038D01*
X0184472Y0050941D01*
X0185292Y0050121D01*
X0189798Y0050121D01*
X0190618Y0050941D01*
X0190618Y0053735D01*
X0191100Y0054216D01*
X0191100Y0061175D01*
X0192052Y0062127D01*
X0192583Y0063407D01*
X0192583Y0064793D01*
X0192052Y0066073D01*
X0191073Y0067052D01*
X0192097Y0065965D02*
X0194400Y0065965D01*
X0194400Y0064766D02*
X0192583Y0064766D01*
X0192583Y0063568D02*
X0194400Y0063568D01*
X0194400Y0062369D02*
X0192153Y0062369D01*
X0191100Y0061171D02*
X0194400Y0061171D01*
X0194400Y0059972D02*
X0191100Y0059972D01*
X0191100Y0058774D02*
X0194400Y0058774D01*
X0194400Y0057575D02*
X0191100Y0057575D01*
X0191100Y0056377D02*
X0194400Y0056377D01*
X0194400Y0055178D02*
X0191100Y0055178D01*
X0190863Y0053980D02*
X0194400Y0053980D01*
X0194400Y0052781D02*
X0190618Y0052781D01*
X0190618Y0051583D02*
X0194400Y0051583D01*
X0194400Y0050384D02*
X0190061Y0050384D01*
X0187545Y0053490D02*
X0189100Y0055045D01*
X0189100Y0064100D01*
X0187395Y0067163D02*
X0181100Y0067163D01*
X0182204Y0065965D02*
X0186103Y0065965D01*
X0185617Y0064766D02*
X0182681Y0064766D01*
X0182681Y0063568D02*
X0185617Y0063568D01*
X0186047Y0062369D02*
X0182259Y0062369D01*
X0181235Y0061171D02*
X0187100Y0061171D01*
X0187100Y0059972D02*
X0177801Y0059972D01*
X0176602Y0058774D02*
X0187100Y0058774D01*
X0187100Y0057575D02*
X0175404Y0057575D01*
X0174205Y0056377D02*
X0177665Y0056377D01*
X0177702Y0056441D02*
X0177491Y0056076D01*
X0177382Y0055669D01*
X0177382Y0053726D01*
X0180418Y0053726D01*
X0180418Y0053253D01*
X0177382Y0053253D01*
X0177382Y0051311D01*
X0177491Y0050904D01*
X0177702Y0050539D01*
X0177999Y0050241D01*
X0178364Y0050030D01*
X0178771Y0049921D01*
X0180418Y0049921D01*
X0180418Y0053253D01*
X0180892Y0053253D01*
X0180892Y0053726D01*
X0183928Y0053726D01*
X0183928Y0055669D01*
X0183819Y0056076D01*
X0183609Y0056441D01*
X0183311Y0056739D01*
X0182946Y0056949D01*
X0182539Y0057058D01*
X0180892Y0057058D01*
X0180892Y0053726D01*
X0180418Y0053726D01*
X0180418Y0057058D01*
X0178771Y0057058D01*
X0178364Y0056949D01*
X0177999Y0056739D01*
X0177702Y0056441D01*
X0177382Y0055178D02*
X0173007Y0055178D01*
X0171808Y0053980D02*
X0177382Y0053980D01*
X0177382Y0052781D02*
X0170610Y0052781D01*
X0169411Y0051583D02*
X0177382Y0051583D01*
X0177856Y0050384D02*
X0168213Y0050384D01*
X0167014Y0049186D02*
X0194400Y0049186D01*
X0194400Y0047987D02*
X0165816Y0047987D01*
X0164617Y0046789D02*
X0194400Y0046789D01*
X0194400Y0045590D02*
X0163419Y0045590D01*
X0162220Y0044392D02*
X0194400Y0044392D01*
X0194400Y0043193D02*
X0166321Y0043193D01*
X0161879Y0043193D02*
X0161021Y0043193D01*
X0160905Y0041995D02*
X0159823Y0041995D01*
X0160519Y0040796D02*
X0158624Y0040796D01*
X0157426Y0039598D02*
X0160536Y0039598D01*
X0161032Y0038399D02*
X0156227Y0038399D01*
X0152968Y0040796D02*
X0132190Y0040796D01*
X0132190Y0040950D02*
X0135749Y0040950D01*
X0135749Y0043513D01*
X0135640Y0043920D01*
X0135430Y0044285D01*
X0135132Y0044583D01*
X0134767Y0044794D01*
X0134360Y0044903D01*
X0132190Y0044903D01*
X0132190Y0040950D01*
X0130990Y0040950D01*
X0130990Y0044903D01*
X0128820Y0044903D01*
X0128414Y0044794D01*
X0128049Y0044583D01*
X0127751Y0044285D01*
X0127720Y0044232D01*
X0127249Y0044703D01*
X0125642Y0044703D01*
X0168401Y0087461D01*
X0168401Y0089118D01*
X0168401Y0089547D01*
X0169760Y0089547D01*
X0169760Y0093500D01*
X0170960Y0093500D01*
X0170960Y0089547D01*
X0173130Y0089547D01*
X0173536Y0089656D01*
X0173901Y0089867D01*
X0174199Y0090165D01*
X0174230Y0090218D01*
X0174701Y0089747D01*
X0177100Y0089747D01*
X0177100Y0067148D01*
X0177071Y0067136D01*
X0176064Y0066129D01*
X0175519Y0064812D01*
X0175519Y0063388D01*
X0175531Y0063359D01*
X0149522Y0037350D01*
X0135749Y0037350D01*
X0135749Y0039750D01*
X0132190Y0039750D01*
X0132190Y0040950D01*
X0132190Y0041995D02*
X0130990Y0041995D01*
X0130990Y0043193D02*
X0132190Y0043193D01*
X0132190Y0044392D02*
X0130990Y0044392D01*
X0128927Y0047987D02*
X0160159Y0047987D01*
X0161357Y0049186D02*
X0130125Y0049186D01*
X0131324Y0050384D02*
X0162556Y0050384D01*
X0163754Y0051583D02*
X0132522Y0051583D01*
X0133721Y0052781D02*
X0164953Y0052781D01*
X0166151Y0053980D02*
X0134919Y0053980D01*
X0136118Y0055178D02*
X0167350Y0055178D01*
X0168548Y0056377D02*
X0137316Y0056377D01*
X0138515Y0057575D02*
X0169747Y0057575D01*
X0170945Y0058774D02*
X0139713Y0058774D01*
X0140912Y0059972D02*
X0172144Y0059972D01*
X0173342Y0061171D02*
X0142110Y0061171D01*
X0143309Y0062369D02*
X0174541Y0062369D01*
X0175519Y0063568D02*
X0144507Y0063568D01*
X0145706Y0064766D02*
X0175519Y0064766D01*
X0175996Y0065965D02*
X0146904Y0065965D01*
X0148103Y0067163D02*
X0177100Y0067163D01*
X0177100Y0068362D02*
X0149302Y0068362D01*
X0150500Y0069560D02*
X0177100Y0069560D01*
X0177100Y0070759D02*
X0151699Y0070759D01*
X0152897Y0071957D02*
X0177100Y0071957D01*
X0177100Y0073156D02*
X0154096Y0073156D01*
X0155294Y0074354D02*
X0177100Y0074354D01*
X0177100Y0075553D02*
X0156493Y0075553D01*
X0157691Y0076751D02*
X0177100Y0076751D01*
X0177100Y0077950D02*
X0158890Y0077950D01*
X0160088Y0079148D02*
X0177100Y0079148D01*
X0177100Y0080347D02*
X0161287Y0080347D01*
X0162485Y0081545D02*
X0177100Y0081545D01*
X0177100Y0082744D02*
X0163684Y0082744D01*
X0164882Y0083942D02*
X0177100Y0083942D01*
X0177100Y0085141D02*
X0166081Y0085141D01*
X0167279Y0086339D02*
X0177100Y0086339D01*
X0177100Y0087538D02*
X0168401Y0087538D01*
X0168401Y0088737D02*
X0177100Y0088737D01*
X0174513Y0089935D02*
X0173969Y0089935D01*
X0170960Y0089935D02*
X0169760Y0089935D01*
X0169760Y0091134D02*
X0170960Y0091134D01*
X0170960Y0092332D02*
X0169760Y0092332D01*
X0169760Y0094700D02*
X0169760Y0098653D01*
X0168401Y0098653D01*
X0168401Y0102797D01*
X0178345Y0112424D01*
X0182278Y0112424D01*
X0182421Y0112567D01*
X0182421Y0109107D01*
X0179089Y0105776D01*
X0175213Y0105776D01*
X0174393Y0104955D01*
X0174393Y0100252D01*
X0175213Y0099432D01*
X0176587Y0099432D01*
X0176539Y0098453D01*
X0174701Y0098453D01*
X0174230Y0097982D01*
X0174199Y0098035D01*
X0173901Y0098333D01*
X0173536Y0098544D01*
X0173130Y0098653D01*
X0170960Y0098653D01*
X0170960Y0094700D01*
X0169760Y0094700D01*
X0169760Y0094729D02*
X0170960Y0094729D01*
X0170960Y0095928D02*
X0169760Y0095928D01*
X0169760Y0097126D02*
X0170960Y0097126D01*
X0170960Y0098325D02*
X0169760Y0098325D01*
X0168401Y0099523D02*
X0175122Y0099523D01*
X0174573Y0098325D02*
X0173910Y0098325D01*
X0174393Y0100722D02*
X0168401Y0100722D01*
X0168401Y0101920D02*
X0174393Y0101920D01*
X0174393Y0103119D02*
X0168733Y0103119D01*
X0169971Y0104317D02*
X0174393Y0104317D01*
X0174953Y0105516D02*
X0171209Y0105516D01*
X0172447Y0106714D02*
X0180027Y0106714D01*
X0181226Y0107913D02*
X0173685Y0107913D01*
X0174923Y0109111D02*
X0182421Y0109111D01*
X0182421Y0110310D02*
X0176161Y0110310D01*
X0177399Y0111508D02*
X0182421Y0111508D01*
X0178746Y0115596D02*
X0166401Y0103645D01*
X0167152Y0107913D02*
X0167934Y0107913D01*
X0167151Y0109111D02*
X0169172Y0109111D01*
X0170410Y0110310D02*
X0167151Y0110310D01*
X0167151Y0111508D02*
X0171648Y0111508D01*
X0172886Y0112707D02*
X0167151Y0112707D01*
X0167151Y0113905D02*
X0174124Y0113905D01*
X0174393Y0115104D02*
X0167151Y0115104D01*
X0167151Y0116302D02*
X0174393Y0116302D01*
X0174393Y0117501D02*
X0167151Y0117501D01*
X0167151Y0118699D02*
X0175145Y0118699D01*
X0163151Y0111508D02*
X0136000Y0111508D01*
X0136000Y0110310D02*
X0149019Y0110310D01*
X0149868Y0110310D02*
X0163151Y0110310D01*
X0163151Y0109111D02*
X0150868Y0109111D01*
X0151304Y0107913D02*
X0162222Y0107913D01*
X0159740Y0112707D02*
X0159168Y0112707D01*
X0159168Y0113905D02*
X0159740Y0113905D01*
X0159740Y0115104D02*
X0159168Y0115104D01*
X0159168Y0115882D02*
X0154902Y0115882D01*
X0154902Y0117578D01*
X0155011Y0117985D01*
X0155221Y0118350D01*
X0155519Y0118648D01*
X0155884Y0118859D01*
X0156291Y0118968D01*
X0159168Y0118968D01*
X0159168Y0115882D01*
X0159168Y0116302D02*
X0159740Y0116302D01*
X0159740Y0117501D02*
X0159168Y0117501D01*
X0159168Y0118699D02*
X0159740Y0118699D01*
X0155608Y0118699D02*
X0147378Y0118699D01*
X0147580Y0117501D02*
X0154902Y0117501D01*
X0154902Y0116302D02*
X0146043Y0116302D01*
X0142750Y0115104D02*
X0154902Y0115104D01*
X0154902Y0113905D02*
X0136000Y0113905D01*
X0136000Y0112707D02*
X0155357Y0112707D01*
X0148490Y0097126D02*
X0164401Y0097126D01*
X0164401Y0095928D02*
X0148490Y0095928D01*
X0148490Y0094729D02*
X0164401Y0094729D01*
X0164401Y0093531D02*
X0148490Y0093531D01*
X0150549Y0092332D02*
X0164401Y0092332D01*
X0164401Y0091134D02*
X0150549Y0091134D01*
X0150549Y0089935D02*
X0164401Y0089935D01*
X0164019Y0088737D02*
X0150549Y0088737D01*
X0150549Y0087538D02*
X0162821Y0087538D01*
X0161622Y0086339D02*
X0150549Y0086339D01*
X0150123Y0085141D02*
X0160424Y0085141D01*
X0159225Y0083942D02*
X0051602Y0083942D01*
X0051602Y0082744D02*
X0158027Y0082744D01*
X0156828Y0081545D02*
X0051602Y0081545D01*
X0051602Y0080347D02*
X0155630Y0080347D01*
X0154431Y0079148D02*
X0051602Y0079148D01*
X0051602Y0077950D02*
X0153233Y0077950D01*
X0152034Y0076751D02*
X0051602Y0076751D01*
X0051602Y0075553D02*
X0150836Y0075553D01*
X0149637Y0074354D02*
X0051602Y0074354D01*
X0051602Y0073156D02*
X0148439Y0073156D01*
X0147240Y0071957D02*
X0051602Y0071957D01*
X0051602Y0070759D02*
X0146042Y0070759D01*
X0144843Y0069560D02*
X0051602Y0069560D01*
X0051602Y0068362D02*
X0143645Y0068362D01*
X0142446Y0067163D02*
X0051602Y0067163D01*
X0051602Y0065965D02*
X0141248Y0065965D01*
X0140049Y0064766D02*
X0051602Y0064766D01*
X0051602Y0063568D02*
X0138851Y0063568D01*
X0137652Y0062369D02*
X0051602Y0062369D01*
X0052456Y0061171D02*
X0136454Y0061171D01*
X0135255Y0059972D02*
X0053010Y0059972D01*
X0053085Y0058774D02*
X0134057Y0058774D01*
X0132858Y0057575D02*
X0052740Y0057575D01*
X0051804Y0056377D02*
X0091551Y0056377D01*
X0091484Y0056359D02*
X0091119Y0056148D01*
X0090821Y0055850D01*
X0090611Y0055485D01*
X0090502Y0055078D01*
X0090502Y0053382D01*
X0094768Y0053382D01*
X0094768Y0056468D01*
X0091891Y0056468D01*
X0091484Y0056359D01*
X0090528Y0055178D02*
X0049600Y0055178D01*
X0050799Y0053980D02*
X0090502Y0053980D01*
X0090502Y0052781D02*
X0051997Y0052781D01*
X0053196Y0051583D02*
X0090502Y0051583D01*
X0090797Y0050384D02*
X0054394Y0050384D01*
X0052333Y0046789D02*
X0018800Y0046789D01*
X0018800Y0047987D02*
X0051134Y0047987D01*
X0049936Y0049186D02*
X0018800Y0049186D01*
X0018800Y0050384D02*
X0048737Y0050384D01*
X0047539Y0051583D02*
X0018800Y0051583D01*
X0018800Y0052781D02*
X0046340Y0052781D01*
X0045142Y0053980D02*
X0018800Y0053980D01*
X0018800Y0055178D02*
X0043943Y0055178D01*
X0042745Y0056377D02*
X0018800Y0056377D01*
X0018800Y0057575D02*
X0041546Y0057575D01*
X0040348Y0058774D02*
X0018800Y0058774D01*
X0018800Y0059972D02*
X0039149Y0059972D01*
X0037951Y0061171D02*
X0032485Y0061171D01*
X0033509Y0062369D02*
X0036752Y0062369D01*
X0035554Y0063568D02*
X0033931Y0063568D01*
X0033931Y0064766D02*
X0034355Y0064766D01*
X0037615Y0067163D02*
X0047602Y0067163D01*
X0047602Y0065965D02*
X0038814Y0065965D01*
X0040012Y0064766D02*
X0047602Y0064766D01*
X0047602Y0063568D02*
X0041211Y0063568D01*
X0042409Y0062369D02*
X0047602Y0062369D01*
X0046747Y0061171D02*
X0043608Y0061171D01*
X0044806Y0059972D02*
X0046194Y0059972D01*
X0046119Y0058774D02*
X0046005Y0058774D01*
X0049602Y0059100D02*
X0049602Y0093588D01*
X0049090Y0094100D01*
X0049602Y0094612D01*
X0049996Y0102604D01*
X0045643Y0103119D02*
X0035057Y0103119D01*
X0035057Y0104317D02*
X0045643Y0104317D01*
X0046203Y0105516D02*
X0034497Y0105516D01*
X0035057Y0101920D02*
X0045643Y0101920D01*
X0045643Y0100722D02*
X0035057Y0100722D01*
X0034328Y0099523D02*
X0046372Y0099523D01*
X0045823Y0098325D02*
X0045160Y0098325D01*
X0042210Y0098325D02*
X0041010Y0098325D01*
X0041010Y0097126D02*
X0042210Y0097126D01*
X0042210Y0095928D02*
X0041010Y0095928D01*
X0041010Y0094729D02*
X0042210Y0094729D01*
X0041010Y0093531D02*
X0032817Y0093531D01*
X0032802Y0094729D02*
X0037451Y0094729D01*
X0037451Y0095928D02*
X0032787Y0095928D01*
X0032772Y0097126D02*
X0037451Y0097126D01*
X0038060Y0098325D02*
X0032758Y0098325D01*
X0028772Y0097126D02*
X0018800Y0097126D01*
X0018800Y0095928D02*
X0028787Y0095928D01*
X0028802Y0094729D02*
X0018800Y0094729D01*
X0018800Y0093531D02*
X0028817Y0093531D01*
X0028832Y0092332D02*
X0018800Y0092332D01*
X0018800Y0091134D02*
X0028846Y0091134D01*
X0028861Y0089935D02*
X0018800Y0089935D01*
X0018800Y0088737D02*
X0028876Y0088737D01*
X0028891Y0087538D02*
X0018800Y0087538D01*
X0018800Y0086339D02*
X0028906Y0086339D01*
X0028921Y0085141D02*
X0018800Y0085141D01*
X0018800Y0083942D02*
X0028936Y0083942D01*
X0028950Y0082744D02*
X0018800Y0082744D01*
X0018800Y0081545D02*
X0028965Y0081545D01*
X0028980Y0080347D02*
X0018800Y0080347D01*
X0018800Y0079148D02*
X0028995Y0079148D01*
X0029010Y0077950D02*
X0018800Y0077950D01*
X0018800Y0076751D02*
X0029025Y0076751D01*
X0029040Y0075553D02*
X0018800Y0075553D01*
X0018800Y0074354D02*
X0029054Y0074354D01*
X0029069Y0073156D02*
X0018800Y0073156D01*
X0018800Y0071957D02*
X0029084Y0071957D01*
X0029098Y0070759D02*
X0018800Y0070759D01*
X0018800Y0069560D02*
X0029558Y0069560D01*
X0030760Y0068362D02*
X0018800Y0068362D01*
X0018800Y0067163D02*
X0028388Y0067163D01*
X0027246Y0065965D02*
X0018800Y0065965D01*
X0018800Y0064766D02*
X0026769Y0064766D01*
X0026769Y0063568D02*
X0018800Y0063568D01*
X0018800Y0062369D02*
X0027191Y0062369D01*
X0028215Y0061171D02*
X0018800Y0061171D01*
X0033084Y0071957D02*
X0047602Y0071957D01*
X0047602Y0070759D02*
X0034020Y0070759D01*
X0035218Y0069560D02*
X0047602Y0069560D01*
X0047602Y0068362D02*
X0036417Y0068362D01*
X0033070Y0073156D02*
X0047602Y0073156D01*
X0047602Y0074354D02*
X0033055Y0074354D01*
X0033040Y0075553D02*
X0047602Y0075553D01*
X0047602Y0076751D02*
X0033025Y0076751D01*
X0033010Y0077950D02*
X0047602Y0077950D01*
X0047602Y0079148D02*
X0032995Y0079148D01*
X0032980Y0080347D02*
X0047602Y0080347D01*
X0047602Y0081545D02*
X0032966Y0081545D01*
X0032951Y0082744D02*
X0047602Y0082744D01*
X0047602Y0083942D02*
X0032936Y0083942D01*
X0032921Y0085141D02*
X0047602Y0085141D01*
X0047602Y0086339D02*
X0032906Y0086339D01*
X0032891Y0087538D02*
X0047602Y0087538D01*
X0047602Y0088737D02*
X0032876Y0088737D01*
X0032862Y0089935D02*
X0038000Y0089935D01*
X0038068Y0089867D02*
X0038433Y0089656D01*
X0038840Y0089547D01*
X0041010Y0089547D01*
X0041010Y0093500D01*
X0037451Y0093500D01*
X0037451Y0090937D01*
X0037560Y0090530D01*
X0037770Y0090165D01*
X0038068Y0089867D01*
X0037451Y0091134D02*
X0032847Y0091134D01*
X0032832Y0092332D02*
X0037451Y0092332D01*
X0041010Y0092332D02*
X0042210Y0092332D01*
X0042210Y0091134D02*
X0041010Y0091134D01*
X0041010Y0089935D02*
X0042210Y0089935D01*
X0045219Y0089935D02*
X0045763Y0089935D01*
X0051602Y0086339D02*
X0066201Y0086339D01*
X0066544Y0085141D02*
X0051602Y0085141D01*
X0030990Y0112707D02*
X0030418Y0112707D01*
X0030418Y0113905D02*
X0030990Y0113905D01*
X0030990Y0115104D02*
X0030418Y0115104D01*
X0030418Y0115882D02*
X0026152Y0115882D01*
X0026152Y0117578D01*
X0026261Y0117985D01*
X0026471Y0118350D01*
X0026769Y0118648D01*
X0027134Y0118859D01*
X0027541Y0118968D01*
X0030418Y0118968D01*
X0030418Y0115882D01*
X0030418Y0116302D02*
X0030990Y0116302D01*
X0030990Y0117501D02*
X0030418Y0117501D01*
X0030418Y0118699D02*
X0030990Y0118699D01*
X0026858Y0118699D02*
X0018800Y0118699D01*
X0018800Y0117501D02*
X0026152Y0117501D01*
X0026152Y0116302D02*
X0018800Y0116302D01*
X0018800Y0115104D02*
X0026152Y0115104D01*
X0026152Y0113905D02*
X0018800Y0113905D01*
X0018800Y0112707D02*
X0026607Y0112707D01*
X0051850Y0145067D02*
X0163151Y0145067D01*
X0163151Y0146265D02*
X0051844Y0146265D01*
X0051838Y0147464D02*
X0163151Y0147464D01*
X0163151Y0148662D02*
X0051832Y0148662D01*
X0051827Y0149861D02*
X0163151Y0149861D01*
X0163151Y0151059D02*
X0051821Y0151059D01*
X0051815Y0152258D02*
X0163151Y0152258D01*
X0163151Y0153456D02*
X0051809Y0153456D01*
X0051803Y0154655D02*
X0163151Y0154655D01*
X0163151Y0155853D02*
X0051797Y0155853D01*
X0051791Y0157052D02*
X0163151Y0157052D01*
X0163151Y0158250D02*
X0051785Y0158250D01*
X0051779Y0159449D02*
X0056844Y0159449D01*
X0055646Y0160647D02*
X0051773Y0160647D01*
X0051767Y0161846D02*
X0054447Y0161846D01*
X0053249Y0163044D02*
X0051761Y0163044D01*
X0051756Y0164243D02*
X0052050Y0164243D01*
X0053350Y0165772D02*
X0057780Y0161342D01*
X0084837Y0161342D01*
X0088299Y0164804D01*
X0088946Y0165104D01*
X0098564Y0164804D01*
X0100360Y0166600D01*
X0102557Y0161846D02*
X0088169Y0161846D01*
X0086971Y0160647D02*
X0103756Y0160647D01*
X0107240Y0167838D02*
X0108440Y0167838D01*
X0108440Y0169037D02*
X0107240Y0169037D01*
X0107240Y0170235D02*
X0108440Y0170235D01*
X0110807Y0172632D02*
X0058600Y0172632D01*
X0061940Y0167838D02*
X0065684Y0167838D01*
X0053350Y0165772D02*
X0053350Y0213590D01*
X0049090Y0217850D01*
X0049090Y0227092D01*
X0049996Y0227604D01*
X0042353Y0234853D01*
X0041600Y0235606D01*
X0041600Y0280350D01*
X0041600Y0281600D01*
X0039100Y0284100D01*
X0108096Y0284100D01*
X0114100Y0290104D01*
X0114346Y0290104D01*
X0121706Y0290104D01*
X0122579Y0285292D02*
X0112117Y0285292D01*
X0110918Y0284094D02*
X0123778Y0284094D01*
X0124976Y0282895D02*
X0109720Y0282895D01*
X0107659Y0286491D02*
X0052723Y0286491D01*
X0053453Y0287689D02*
X0090765Y0287689D01*
X0090730Y0292483D02*
X0053453Y0292483D01*
X0049100Y0290360D02*
X0095192Y0290360D01*
X0095054Y0290104D01*
X0099407Y0290086D02*
X0109993Y0290086D01*
X0109993Y0288888D02*
X0099407Y0288888D01*
X0099344Y0287689D02*
X0108857Y0287689D01*
X0109993Y0291285D02*
X0099407Y0291285D01*
X0099379Y0292483D02*
X0110021Y0292483D01*
X0113315Y0286491D02*
X0118101Y0286491D01*
X0126175Y0281697D02*
X0043600Y0281697D01*
X0042239Y0286491D02*
X0045477Y0286491D01*
X0044747Y0287689D02*
X0042736Y0287689D01*
X0042900Y0288888D02*
X0044747Y0288888D01*
X0044747Y0290086D02*
X0042900Y0290086D01*
X0042415Y0291285D02*
X0044747Y0291285D01*
X0044747Y0292483D02*
X0041629Y0292483D01*
X0040065Y0293682D02*
X0044930Y0293682D01*
X0044747Y0294880D02*
X0040793Y0294880D01*
X0042586Y0300873D02*
X0044747Y0300873D01*
X0042041Y0302072D02*
X0090502Y0302072D01*
X0090566Y0300873D02*
X0053453Y0300873D01*
X0049100Y0297840D02*
X0035360Y0297840D01*
X0034100Y0299100D01*
X0028135Y0293682D02*
X0018800Y0293682D01*
X0018800Y0294880D02*
X0027407Y0294880D01*
X0026209Y0296079D02*
X0018800Y0296079D01*
X0018800Y0297277D02*
X0025635Y0297277D01*
X0025300Y0298476D02*
X0018800Y0298476D01*
X0018800Y0299674D02*
X0025300Y0299674D01*
X0025614Y0300873D02*
X0018800Y0300873D01*
X0018800Y0302072D02*
X0026159Y0302072D01*
X0027358Y0303270D02*
X0018800Y0303270D01*
X0018800Y0304469D02*
X0027815Y0304469D01*
X0026343Y0305667D02*
X0018800Y0305667D01*
X0019977Y0306866D02*
X0025590Y0306866D01*
X0025198Y0308064D02*
X0021175Y0308064D01*
X0022374Y0309263D02*
X0033600Y0309263D01*
X0028504Y0314057D02*
X0027168Y0314057D01*
X0026663Y0312858D02*
X0025969Y0312858D01*
X0025756Y0311660D02*
X0024771Y0311660D01*
X0025270Y0310461D02*
X0023572Y0310461D01*
X0026571Y0292483D02*
X0018800Y0292483D01*
X0018800Y0291285D02*
X0025785Y0291285D01*
X0025300Y0290086D02*
X0018800Y0290086D01*
X0018800Y0288888D02*
X0025300Y0288888D01*
X0025464Y0287689D02*
X0018800Y0287689D01*
X0018800Y0286491D02*
X0025961Y0286491D01*
X0026995Y0285292D02*
X0018800Y0285292D01*
X0018800Y0284094D02*
X0029159Y0284094D01*
X0034100Y0289100D02*
X0039100Y0284100D01*
X0037476Y0282895D02*
X0018800Y0282895D01*
X0018800Y0281697D02*
X0038675Y0281697D01*
X0038272Y0282100D02*
X0038272Y0282100D01*
X0039600Y0280498D02*
X0018800Y0280498D01*
X0018800Y0279300D02*
X0039600Y0279300D01*
X0039600Y0278101D02*
X0018800Y0278101D01*
X0018800Y0276903D02*
X0039600Y0276903D01*
X0039600Y0275704D02*
X0018800Y0275704D01*
X0018800Y0274506D02*
X0039600Y0274506D01*
X0039600Y0273307D02*
X0018800Y0273307D01*
X0018800Y0272109D02*
X0039600Y0272109D01*
X0039600Y0270910D02*
X0018800Y0270910D01*
X0018800Y0269712D02*
X0039600Y0269712D01*
X0039600Y0268513D02*
X0018800Y0268513D01*
X0018800Y0267315D02*
X0039600Y0267315D01*
X0039600Y0266116D02*
X0018800Y0266116D01*
X0018800Y0264918D02*
X0039600Y0264918D01*
X0039600Y0263719D02*
X0018800Y0263719D01*
X0018800Y0262521D02*
X0039600Y0262521D01*
X0039600Y0261322D02*
X0018800Y0261322D01*
X0018800Y0260124D02*
X0039600Y0260124D01*
X0039600Y0258925D02*
X0018800Y0258925D01*
X0018800Y0257727D02*
X0039600Y0257727D01*
X0039600Y0256528D02*
X0018800Y0256528D01*
X0018800Y0255330D02*
X0039600Y0255330D01*
X0039600Y0254131D02*
X0018800Y0254131D01*
X0018800Y0252933D02*
X0039600Y0252933D01*
X0039600Y0243344D02*
X0034941Y0243344D01*
X0034937Y0243350D02*
X0034640Y0243648D01*
X0034275Y0243859D01*
X0033868Y0243968D01*
X0030990Y0243968D01*
X0030990Y0240882D01*
X0035257Y0240882D01*
X0035257Y0242578D01*
X0035148Y0242985D01*
X0034937Y0243350D01*
X0035257Y0242146D02*
X0039600Y0242146D01*
X0039600Y0240947D02*
X0035257Y0240947D01*
X0035257Y0239749D02*
X0039600Y0239749D01*
X0039600Y0238550D02*
X0035240Y0238550D01*
X0034307Y0237352D02*
X0039600Y0237352D01*
X0041600Y0235606D02*
X0042353Y0234853D01*
X0043888Y0236153D02*
X0051618Y0236153D01*
X0050417Y0237352D02*
X0043600Y0237352D01*
X0043600Y0238550D02*
X0045643Y0238550D01*
X0045643Y0239749D02*
X0043600Y0239749D01*
X0043600Y0240947D02*
X0045643Y0240947D01*
X0045643Y0242146D02*
X0043600Y0242146D01*
X0043600Y0243344D02*
X0046040Y0243344D01*
X0049996Y0240596D02*
X0056600Y0234010D01*
X0057283Y0236153D02*
X0057618Y0236153D01*
X0057221Y0237352D02*
X0056081Y0237352D01*
X0054879Y0238550D02*
X0057551Y0238550D01*
X0054022Y0233756D02*
X0046415Y0233756D01*
X0047679Y0232558D02*
X0054600Y0232558D01*
X0054600Y0231359D02*
X0048943Y0231359D01*
X0045152Y0234955D02*
X0052820Y0234955D01*
X0054143Y0230161D02*
X0054600Y0230161D01*
X0054600Y0228962D02*
X0054348Y0228962D01*
X0054348Y0227764D02*
X0054600Y0227764D01*
X0054600Y0226565D02*
X0054348Y0226565D01*
X0054348Y0225367D02*
X0054600Y0225367D01*
X0054600Y0224168D02*
X0051090Y0224168D01*
X0051090Y0222970D02*
X0054600Y0222970D01*
X0054600Y0221771D02*
X0052661Y0221771D01*
X0053049Y0220573D02*
X0054600Y0220573D01*
X0054600Y0219374D02*
X0053049Y0219374D01*
X0053049Y0218176D02*
X0054600Y0218176D01*
X0054600Y0216977D02*
X0053049Y0216977D01*
X0053990Y0215779D02*
X0054600Y0215779D01*
X0050730Y0213382D02*
X0044695Y0213382D01*
X0042210Y0213382D02*
X0041010Y0213382D01*
X0041010Y0214580D02*
X0042210Y0214580D01*
X0042210Y0215779D02*
X0041010Y0215779D01*
X0041010Y0216977D02*
X0042210Y0216977D01*
X0041010Y0218176D02*
X0032975Y0218176D01*
X0026352Y0225367D02*
X0018800Y0225367D01*
X0018800Y0226565D02*
X0026352Y0226565D01*
X0026352Y0227764D02*
X0018800Y0227764D01*
X0018800Y0228962D02*
X0026352Y0228962D01*
X0026557Y0230161D02*
X0018800Y0230161D01*
X0030418Y0237352D02*
X0030990Y0237352D01*
X0030990Y0238550D02*
X0030418Y0238550D01*
X0030418Y0239749D02*
X0030990Y0239749D01*
X0030990Y0240947D02*
X0030418Y0240947D01*
X0030418Y0242146D02*
X0030990Y0242146D01*
X0030990Y0243344D02*
X0030418Y0243344D01*
X0041010Y0221771D02*
X0042210Y0221771D01*
X0042210Y0220573D02*
X0041010Y0220573D01*
X0041010Y0219374D02*
X0042210Y0219374D01*
X0045457Y0221771D02*
X0045520Y0221771D01*
X0058600Y0204992D02*
X0123450Y0204992D01*
X0124219Y0203794D02*
X0058600Y0203794D01*
X0058600Y0202595D02*
X0125418Y0202595D01*
X0126616Y0201397D02*
X0058600Y0201397D01*
X0058600Y0200198D02*
X0127815Y0200198D01*
X0129013Y0199000D02*
X0058600Y0199000D01*
X0058600Y0197801D02*
X0130212Y0197801D01*
X0131410Y0196603D02*
X0058600Y0196603D01*
X0047690Y0177426D02*
X0039781Y0177426D01*
X0041306Y0176228D02*
X0047696Y0176228D01*
X0047702Y0175029D02*
X0042323Y0175029D01*
X0042820Y0173831D02*
X0047708Y0173831D01*
X0047714Y0172632D02*
X0043200Y0172632D01*
X0043200Y0171434D02*
X0047720Y0171434D01*
X0047726Y0170235D02*
X0043178Y0170235D01*
X0042682Y0169037D02*
X0047732Y0169037D01*
X0047738Y0167838D02*
X0042172Y0167838D01*
X0040974Y0166640D02*
X0047744Y0166640D01*
X0077260Y0216977D02*
X0078460Y0216977D01*
X0078460Y0218176D02*
X0077260Y0218176D01*
X0077260Y0219374D02*
X0078460Y0219374D01*
X0081610Y0219374D02*
X0081873Y0219374D01*
X0087240Y0225367D02*
X0090727Y0225367D01*
X0090727Y0226565D02*
X0087240Y0226565D01*
X0087240Y0227764D02*
X0090727Y0227764D01*
X0090727Y0228962D02*
X0087626Y0228962D01*
X0089463Y0230161D02*
X0090932Y0230161D01*
X0089369Y0231359D02*
X0107535Y0231359D01*
X0092952Y0248139D02*
X0074576Y0248139D01*
X0073377Y0246940D02*
X0080486Y0246940D01*
X0083698Y0246940D02*
X0091753Y0246940D01*
X0090555Y0245741D02*
X0084135Y0245741D01*
X0084571Y0244543D02*
X0089356Y0244543D01*
X0088157Y0243344D02*
X0085007Y0243344D01*
X0084915Y0242146D02*
X0087096Y0242146D01*
X0085989Y0240947D02*
X0082568Y0240947D01*
X0077193Y0245741D02*
X0072178Y0245741D01*
X0070980Y0244543D02*
X0075571Y0244543D01*
X0075743Y0243344D02*
X0069781Y0243344D01*
X0069207Y0221771D02*
X0067869Y0221771D01*
X0085772Y0159449D02*
X0163151Y0159449D01*
X0163151Y0160647D02*
X0126138Y0160647D01*
X0125558Y0165441D02*
X0125107Y0165441D01*
X0125107Y0166640D02*
X0126757Y0166640D01*
X0144398Y0163044D02*
X0145174Y0163044D01*
X0155990Y0163044D02*
X0157190Y0163044D01*
X0157190Y0164243D02*
X0155990Y0164243D01*
X0155990Y0165441D02*
X0157190Y0165441D01*
X0160749Y0169037D02*
X0163151Y0169037D01*
X0163151Y0170235D02*
X0160603Y0170235D01*
X0178978Y0165441D02*
X0182266Y0165441D01*
X0182262Y0166640D02*
X0180974Y0166640D01*
X0182172Y0167838D02*
X0182257Y0167838D01*
X0179317Y0213382D02*
X0173445Y0213382D01*
X0167023Y0237352D02*
X0163057Y0237352D01*
X0163990Y0238550D02*
X0167100Y0238550D01*
X0167100Y0239749D02*
X0164007Y0239749D01*
X0164007Y0240882D02*
X0164007Y0242578D01*
X0163898Y0242985D01*
X0163687Y0243350D01*
X0163390Y0243648D01*
X0163025Y0243859D01*
X0162618Y0243968D01*
X0159740Y0243968D01*
X0159740Y0240882D01*
X0164007Y0240882D01*
X0164007Y0240947D02*
X0167100Y0240947D01*
X0167100Y0242146D02*
X0164007Y0242146D01*
X0163691Y0243344D02*
X0167100Y0243344D01*
X0159740Y0243344D02*
X0159168Y0243344D01*
X0159168Y0242146D02*
X0159740Y0242146D01*
X0159740Y0240947D02*
X0159168Y0240947D01*
X0159168Y0239749D02*
X0159740Y0239749D01*
X0159740Y0238550D02*
X0159168Y0238550D01*
X0159168Y0237352D02*
X0159740Y0237352D01*
X0155852Y0237352D02*
X0152680Y0237352D01*
X0152349Y0238550D02*
X0154919Y0238550D01*
X0147337Y0218176D02*
X0146799Y0218176D01*
X0146799Y0216977D02*
X0148536Y0216977D01*
X0149700Y0215779D02*
X0146799Y0215779D01*
X0146799Y0214580D02*
X0149700Y0214580D01*
X0149700Y0213382D02*
X0146799Y0213382D01*
X0146799Y0212183D02*
X0149700Y0212183D01*
X0132047Y0210985D02*
X0127250Y0210985D01*
X0127250Y0212183D02*
X0131202Y0212183D01*
X0131201Y0213382D02*
X0127250Y0213382D01*
X0127250Y0214580D02*
X0131201Y0214580D01*
X0130140Y0285292D02*
X0128940Y0285292D01*
X0128940Y0286491D02*
X0130140Y0286491D01*
X0130140Y0287689D02*
X0128940Y0287689D01*
X0128940Y0288888D02*
X0130140Y0288888D01*
X0130140Y0290086D02*
X0158239Y0290086D01*
X0158117Y0288888D02*
X0133699Y0288888D01*
X0133699Y0287689D02*
X0157361Y0287689D01*
X0156162Y0286491D02*
X0133674Y0286491D01*
X0132665Y0285292D02*
X0154964Y0285292D01*
X0158860Y0291285D02*
X0133699Y0291285D01*
X0133699Y0290350D02*
X0133699Y0292913D01*
X0133590Y0293320D01*
X0133380Y0293685D01*
X0133082Y0293983D01*
X0132717Y0294194D01*
X0132310Y0294303D01*
X0130140Y0294303D01*
X0130140Y0290350D01*
X0133699Y0290350D01*
X0133699Y0292483D02*
X0160388Y0292483D01*
X0159190Y0293682D02*
X0133381Y0293682D01*
X0130140Y0293682D02*
X0128940Y0293682D01*
X0128940Y0292483D02*
X0130140Y0292483D01*
X0130140Y0291285D02*
X0128940Y0291285D01*
X0125699Y0293682D02*
X0125620Y0293682D01*
X0109993Y0300873D02*
X0099543Y0300873D01*
X0099607Y0302072D02*
X0109993Y0302072D01*
X0109993Y0304469D02*
X0099607Y0304469D01*
X0099393Y0305667D02*
X0110212Y0305667D01*
X0095340Y0305667D02*
X0094768Y0305667D01*
X0094768Y0304469D02*
X0095340Y0304469D01*
X0095340Y0302072D02*
X0094768Y0302072D01*
X0094768Y0300873D02*
X0095340Y0300873D01*
X0166045Y0292483D02*
X0171571Y0292483D01*
X0170785Y0291285D02*
X0167243Y0291285D01*
X0168442Y0290086D02*
X0170300Y0290086D01*
X0170300Y0288888D02*
X0169641Y0288888D01*
X0178600Y0310461D02*
X0179600Y0310461D01*
X0179600Y0311660D02*
X0178600Y0311660D01*
X0178600Y0312858D02*
X0179600Y0312858D01*
X0179600Y0314057D02*
X0178600Y0314057D01*
X0140917Y0125890D02*
X0124997Y0125890D01*
X0126195Y0124692D02*
X0140917Y0124692D01*
X0140917Y0123493D02*
X0127394Y0123493D01*
X0128592Y0122295D02*
X0140917Y0122295D01*
X0140668Y0121096D02*
X0129791Y0121096D01*
X0130989Y0119898D02*
X0138237Y0119898D01*
X0138114Y0118699D02*
X0132188Y0118699D01*
X0133386Y0117501D02*
X0138550Y0117501D01*
X0138986Y0116302D02*
X0134585Y0116302D01*
X0135783Y0115104D02*
X0139422Y0115104D01*
X0136000Y0109111D02*
X0145726Y0109111D01*
X0142784Y0107913D02*
X0136000Y0107913D01*
X0136000Y0106714D02*
X0140277Y0106714D01*
X0139079Y0105516D02*
X0136000Y0105516D01*
X0136000Y0104317D02*
X0137880Y0104317D01*
X0136682Y0103119D02*
X0135806Y0103119D01*
X0135483Y0101920D02*
X0134607Y0101920D01*
X0134887Y0102200D02*
X0134887Y0102200D01*
X0134285Y0100722D02*
X0133409Y0100722D01*
X0136063Y0097126D02*
X0144690Y0097126D01*
X0144690Y0095928D02*
X0134865Y0095928D01*
X0137262Y0098325D02*
X0144690Y0098325D01*
X0144690Y0099523D02*
X0138460Y0099523D01*
X0139659Y0100722D02*
X0144690Y0100722D01*
X0144690Y0101920D02*
X0140857Y0101920D01*
X0142056Y0103119D02*
X0143785Y0103119D01*
X0139710Y0087538D02*
X0138510Y0087538D01*
X0138510Y0086339D02*
X0139710Y0086339D01*
X0139710Y0085141D02*
X0138510Y0085141D01*
X0142925Y0085141D02*
X0143057Y0085141D01*
X0132200Y0110310D02*
X0129369Y0110310D01*
X0129653Y0111508D02*
X0132200Y0111508D01*
X0132200Y0112707D02*
X0129242Y0112707D01*
X0128806Y0113905D02*
X0131608Y0113905D01*
X0130409Y0115104D02*
X0128370Y0115104D01*
X0129211Y0116302D02*
X0118723Y0116302D01*
X0118723Y0117501D02*
X0128012Y0117501D01*
X0126814Y0118699D02*
X0117972Y0118699D01*
X0126055Y0112707D02*
X0127727Y0112707D01*
X0116969Y0097126D02*
X0116094Y0097126D01*
X0116055Y0095928D02*
X0118112Y0095928D01*
X0119255Y0094729D02*
X0116016Y0094729D01*
X0115977Y0093531D02*
X0120398Y0093531D01*
X0118698Y0055178D02*
X0130461Y0055178D01*
X0129263Y0053980D02*
X0118698Y0053980D01*
X0118698Y0052781D02*
X0128064Y0052781D01*
X0126866Y0051583D02*
X0118698Y0051583D01*
X0118338Y0050384D02*
X0125667Y0050384D01*
X0124469Y0049186D02*
X0113078Y0049186D01*
X0109782Y0051583D02*
X0099607Y0051583D01*
X0099607Y0052781D02*
X0109993Y0052781D01*
X0109993Y0053980D02*
X0099607Y0053980D01*
X0099607Y0053382D02*
X0099607Y0055078D01*
X0099498Y0055485D01*
X0099287Y0055850D01*
X0098990Y0056148D01*
X0098625Y0056359D01*
X0098218Y0056468D01*
X0095340Y0056468D01*
X0095340Y0053382D01*
X0099607Y0053382D01*
X0099580Y0055178D02*
X0109993Y0055178D01*
X0108494Y0050384D02*
X0099312Y0050384D01*
X0098557Y0056377D02*
X0131660Y0056377D01*
X0127728Y0046789D02*
X0158960Y0046789D01*
X0157762Y0045590D02*
X0126530Y0045590D01*
X0127560Y0044392D02*
X0127857Y0044392D01*
X0126817Y0034803D02*
X0111607Y0034803D01*
X0110326Y0033605D02*
X0128015Y0033605D01*
X0127098Y0034522D02*
X0127098Y0034522D01*
X0120966Y0036002D02*
X0112888Y0036002D01*
X0109595Y0038399D02*
X0106227Y0038399D01*
X0107426Y0039598D02*
X0109993Y0039598D01*
X0109993Y0040796D02*
X0108624Y0040796D01*
X0109823Y0041995D02*
X0109993Y0041995D01*
X0108314Y0037201D02*
X0098855Y0037201D01*
X0109083Y0032406D02*
X0194295Y0032406D01*
X0194400Y0033605D02*
X0184268Y0033605D01*
X0185467Y0034803D02*
X0194400Y0034803D01*
X0194400Y0036002D02*
X0186665Y0036002D01*
X0183185Y0035350D02*
X0187545Y0039710D01*
X0190618Y0039598D02*
X0194400Y0039598D01*
X0194400Y0040796D02*
X0190618Y0040796D01*
X0190618Y0041995D02*
X0194400Y0041995D01*
X0194400Y0038399D02*
X0190618Y0038399D01*
X0190618Y0037201D02*
X0194400Y0037201D01*
X0193097Y0031208D02*
X0051194Y0031208D01*
X0094768Y0053980D02*
X0095340Y0053980D01*
X0095340Y0055178D02*
X0094768Y0055178D01*
X0094768Y0056377D02*
X0095340Y0056377D01*
X0108706Y0047850D02*
X0114346Y0053096D01*
X0118147Y0037201D02*
X0120151Y0037201D01*
X0135749Y0038399D02*
X0150571Y0038399D01*
X0151769Y0039598D02*
X0135749Y0039598D01*
X0135749Y0041995D02*
X0154166Y0041995D01*
X0155365Y0043193D02*
X0135749Y0043193D01*
X0135323Y0044392D02*
X0156563Y0044392D01*
X0151600Y0035350D02*
X0183185Y0035350D01*
X0183728Y0039598D02*
X0184472Y0039598D01*
X0184472Y0040796D02*
X0183728Y0040796D01*
X0183728Y0041995D02*
X0184472Y0041995D01*
X0182539Y0049921D02*
X0180892Y0049921D01*
X0180892Y0053253D01*
X0183928Y0053253D01*
X0183928Y0051311D01*
X0183819Y0050904D01*
X0183609Y0050539D01*
X0183311Y0050241D01*
X0182946Y0050030D01*
X0182539Y0049921D01*
X0183454Y0050384D02*
X0185029Y0050384D01*
X0184472Y0051583D02*
X0183928Y0051583D01*
X0183928Y0052781D02*
X0184472Y0052781D01*
X0184472Y0053980D02*
X0183928Y0053980D01*
X0183928Y0055178D02*
X0184472Y0055178D01*
X0184810Y0056377D02*
X0183646Y0056377D01*
X0180892Y0056377D02*
X0180418Y0056377D01*
X0180418Y0055178D02*
X0180892Y0055178D01*
X0180892Y0053980D02*
X0180418Y0053980D01*
X0180418Y0052781D02*
X0180892Y0052781D01*
X0180892Y0051583D02*
X0180418Y0051583D01*
X0180418Y0050384D02*
X0180892Y0050384D01*
X0151600Y0035350D02*
X0150350Y0035350D01*
D18*
X0164100Y0040350D02*
X0180015Y0040350D01*
X0180655Y0039710D01*
X0146590Y0089100D02*
X0146590Y0105859D01*
X0142109Y0105859D01*
X0130350Y0094100D01*
X0122481Y0094100D01*
X0114371Y0102604D01*
X0107973Y0096600D01*
X0090350Y0096600D01*
X0087119Y0099831D01*
X0078442Y0099697D01*
X0078072Y0099100D01*
X0053106Y0099100D01*
X0049996Y0102604D01*
X0059100Y0107744D02*
X0060314Y0106295D01*
X0059100Y0107744D02*
X0059100Y0124100D01*
X0078072Y0099100D02*
X0078072Y0089332D01*
X0077840Y0089100D01*
X0082886Y0111905D02*
X0094576Y0124100D01*
X0124100Y0124100D01*
X0134100Y0114100D01*
X0134100Y0104100D01*
X0129831Y0099831D01*
X0129133Y0099697D01*
X0120350Y0105350D02*
X0120350Y0109223D01*
X0114371Y0115596D01*
X0114371Y0102604D02*
X0113977Y0090463D01*
X0115340Y0089100D01*
X0097604Y0102604D02*
X0104100Y0109100D01*
X0097604Y0102604D02*
X0095079Y0102604D01*
X0105648Y0161442D02*
X0124246Y0161442D01*
X0127908Y0165104D01*
X0140046Y0165104D01*
X0151600Y0177052D01*
X0151600Y0216600D01*
X0144100Y0224100D01*
X0143072Y0224100D01*
X0130572Y0236600D01*
X0122973Y0236600D01*
X0114371Y0227604D01*
X0114090Y0227491D01*
X0107481Y0234100D01*
X0089229Y0234100D01*
X0085340Y0230211D01*
X0084761Y0231295D01*
X0085340Y0230211D02*
X0085340Y0215350D01*
X0095350Y0209100D02*
X0095350Y0227481D01*
X0095079Y0227604D01*
X0089100Y0239100D02*
X0089100Y0241600D01*
X0094100Y0246600D01*
X0107973Y0246600D01*
X0114371Y0240596D01*
X0114090Y0227491D02*
X0114090Y0215350D01*
X0125350Y0205350D02*
X0125350Y0230826D01*
X0125314Y0231295D01*
X0139100Y0250350D02*
X0074100Y0250350D01*
X0067003Y0243253D01*
X0067003Y0236114D01*
X0067178Y0235634D01*
X0067003Y0235259D01*
X0066633Y0224697D01*
X0071600Y0223484D02*
X0071600Y0235021D01*
X0080317Y0243503D01*
X0071600Y0223484D02*
X0071621Y0223425D01*
X0071600Y0223380D01*
X0071600Y0219100D01*
X0088946Y0178096D02*
X0108156Y0178096D01*
X0120754Y0165104D01*
X0105648Y0161442D02*
X0101986Y0165104D01*
X0088946Y0165104D01*
X0125350Y0205350D02*
X0139652Y0191048D01*
X0140046Y0178096D01*
X0140046Y0165104D02*
X0147614Y0165104D01*
X0149110Y0166600D01*
X0142850Y0139100D02*
X0142817Y0139067D01*
X0142817Y0118503D01*
X0147261Y0106295D02*
X0146590Y0105859D01*
X0142840Y0215350D02*
X0143072Y0215582D01*
X0143072Y0224100D01*
X0143442Y0224697D01*
X0147886Y0236905D02*
X0147516Y0241934D01*
X0139100Y0250350D01*
M02*
