G75*
%MOIN*%
%OFA0B0*%
%FSLAX25Y25*%
%IPPOS*%
%LPD*%
%AMOC8*
5,1,8,0,0,1.08239X$1,22.5*
%
%ADD10C,0.00800*%
%ADD11C,0.00600*%
%ADD12C,0.00400*%
%ADD13C,0.01200*%
%ADD14C,0.00300*%
D10*
X0087800Y0170514D02*
X0086332Y0171982D01*
X0086332Y0179322D01*
X0090736Y0179322D01*
X0092204Y0177854D01*
X0092204Y0174918D01*
X0090736Y0173450D01*
X0086332Y0173450D01*
X0087800Y0170514D02*
X0089268Y0170514D01*
X0083364Y0173450D02*
X0083364Y0179322D01*
X0081897Y0179322D01*
X0080429Y0177854D01*
X0078961Y0179322D01*
X0077493Y0177854D01*
X0077493Y0173450D01*
X0080429Y0173450D02*
X0080429Y0177854D01*
X0074525Y0177854D02*
X0074525Y0174918D01*
X0073057Y0173450D01*
X0070121Y0173450D01*
X0068653Y0176386D02*
X0074525Y0176386D01*
X0074525Y0177854D02*
X0073057Y0179322D01*
X0070121Y0179322D01*
X0068653Y0177854D01*
X0068653Y0176386D01*
X0065685Y0173450D02*
X0065685Y0179322D01*
X0061282Y0179322D01*
X0059814Y0177854D01*
X0059814Y0173450D01*
X0056846Y0179322D02*
X0053910Y0179322D01*
X0055378Y0180790D02*
X0055378Y0174918D01*
X0053910Y0173450D01*
X0095172Y0176386D02*
X0101044Y0176386D01*
X0101044Y0174918D02*
X0101044Y0177854D01*
X0099576Y0179322D01*
X0096640Y0179322D01*
X0095172Y0177854D01*
X0095172Y0176386D01*
X0096640Y0173450D02*
X0099576Y0173450D01*
X0101044Y0174918D01*
X0104011Y0174918D02*
X0105479Y0173450D01*
X0108415Y0173450D01*
X0109883Y0174918D01*
X0108415Y0177854D02*
X0105479Y0177854D01*
X0104011Y0176386D01*
X0104011Y0174918D01*
X0108415Y0177854D02*
X0109883Y0179322D01*
X0109883Y0180790D01*
X0108415Y0182258D01*
X0105479Y0182258D01*
X0104011Y0180790D01*
X0112851Y0182258D02*
X0118723Y0173450D01*
X0121685Y0179322D02*
X0123153Y0179322D01*
X0126089Y0176386D01*
X0126089Y0173450D02*
X0126089Y0179322D01*
X0129057Y0177854D02*
X0129057Y0176386D01*
X0134929Y0176386D01*
X0134929Y0174918D02*
X0134929Y0177854D01*
X0133461Y0179322D01*
X0130525Y0179322D01*
X0129057Y0177854D01*
X0130525Y0173450D02*
X0133461Y0173450D01*
X0134929Y0174918D01*
X0137896Y0174918D02*
X0139364Y0176386D01*
X0142300Y0176386D01*
X0143768Y0177854D01*
X0142300Y0179322D01*
X0137896Y0179322D01*
X0137896Y0174918D02*
X0139364Y0173450D01*
X0143768Y0173450D01*
X0146736Y0173450D02*
X0146736Y0177854D01*
X0148204Y0179322D01*
X0151140Y0179322D01*
X0151140Y0176386D02*
X0146736Y0176386D01*
X0146736Y0173450D02*
X0151140Y0173450D01*
X0152608Y0174918D01*
X0151140Y0176386D01*
X0155576Y0173450D02*
X0161447Y0173450D01*
X0161447Y0182258D01*
X0148930Y0245000D02*
X0145994Y0245000D01*
X0144526Y0246468D01*
X0144526Y0253808D01*
X0141558Y0253808D02*
X0135687Y0245000D01*
X0135687Y0253808D01*
X0134213Y0259400D02*
X0140085Y0259400D01*
X0140085Y0268208D01*
X0134213Y0268208D01*
X0137149Y0263804D02*
X0140085Y0263804D01*
X0143053Y0268208D02*
X0148925Y0262336D01*
X0147457Y0263804D02*
X0143053Y0259400D01*
X0141558Y0253808D02*
X0141558Y0245000D01*
X0148930Y0245000D02*
X0150398Y0246468D01*
X0150398Y0253808D01*
X0148925Y0259400D02*
X0148925Y0268208D01*
X0151892Y0265272D02*
X0151892Y0259400D01*
X0151892Y0263804D02*
X0157764Y0263804D01*
X0157764Y0265272D02*
X0154828Y0268208D01*
X0151892Y0265272D01*
X0157764Y0265272D02*
X0157764Y0259400D01*
X0160732Y0259400D02*
X0160732Y0268208D01*
X0163668Y0265272D01*
X0166604Y0268208D01*
X0166604Y0259400D01*
X0132719Y0253808D02*
X0132719Y0245000D01*
X0126847Y0245000D01*
X0129783Y0249404D02*
X0132719Y0249404D01*
X0132719Y0253808D02*
X0126847Y0253808D01*
X0123879Y0253808D02*
X0118007Y0245000D01*
X0115040Y0245000D02*
X0115040Y0253808D01*
X0110636Y0253808D01*
X0109168Y0252340D01*
X0109168Y0249404D01*
X0110636Y0247936D01*
X0115040Y0247936D01*
X0118007Y0253808D02*
X0123879Y0245000D01*
X0120938Y0259400D02*
X0118002Y0259400D01*
X0116534Y0260868D01*
X0116534Y0262336D01*
X0118002Y0263804D01*
X0120938Y0263804D01*
X0122406Y0265272D01*
X0122406Y0266740D01*
X0120938Y0268208D01*
X0118002Y0268208D01*
X0116534Y0266740D01*
X0113566Y0266740D02*
X0113566Y0260868D01*
X0112098Y0259400D01*
X0109163Y0259400D01*
X0107695Y0260868D01*
X0107695Y0266740D01*
X0109163Y0268208D01*
X0112098Y0268208D01*
X0113566Y0266740D01*
X0104727Y0268208D02*
X0104727Y0259400D01*
X0106200Y0253808D02*
X0106200Y0245000D01*
X0100328Y0245000D01*
X0097360Y0246468D02*
X0095893Y0245000D01*
X0092957Y0245000D01*
X0091489Y0246468D01*
X0091489Y0252340D02*
X0092957Y0253808D01*
X0095893Y0253808D01*
X0097360Y0252340D01*
X0097360Y0246468D01*
X0103264Y0249404D02*
X0106200Y0249404D01*
X0106200Y0253808D02*
X0100328Y0253808D01*
X0098855Y0259400D02*
X0098855Y0268208D01*
X0101791Y0265272D01*
X0104727Y0268208D01*
X0095887Y0268208D02*
X0095887Y0259400D01*
X0090016Y0259400D01*
X0088521Y0253808D02*
X0082649Y0253808D01*
X0085585Y0253808D02*
X0085585Y0245000D01*
X0079681Y0245000D02*
X0073810Y0245000D01*
X0070842Y0245000D02*
X0066438Y0245000D01*
X0064970Y0246468D01*
X0064970Y0252340D01*
X0066438Y0253808D01*
X0070842Y0253808D01*
X0070842Y0245000D01*
X0076745Y0249404D02*
X0079681Y0249404D01*
X0079681Y0253808D02*
X0079681Y0245000D01*
X0079681Y0253808D02*
X0073810Y0253808D01*
X0072336Y0259400D02*
X0072336Y0268208D01*
X0069369Y0268208D02*
X0066433Y0268208D01*
X0067901Y0268208D02*
X0067901Y0259400D01*
X0069369Y0259400D02*
X0066433Y0259400D01*
X0063475Y0259400D02*
X0063475Y0268208D01*
X0057604Y0259400D01*
X0057604Y0268208D01*
X0054636Y0266740D02*
X0054636Y0260868D01*
X0053168Y0259400D01*
X0050232Y0259400D01*
X0048764Y0260868D01*
X0048764Y0263804D01*
X0051700Y0263804D01*
X0048764Y0266740D02*
X0050232Y0268208D01*
X0053168Y0268208D01*
X0054636Y0266740D01*
X0072336Y0263804D02*
X0078208Y0263804D01*
X0078208Y0259400D02*
X0078208Y0268208D01*
X0081176Y0268208D02*
X0087048Y0268208D01*
X0084112Y0268208D02*
X0084112Y0259400D01*
X0090016Y0268208D02*
X0095887Y0268208D01*
X0095887Y0263804D02*
X0092951Y0263804D01*
X0120938Y0259400D02*
X0122406Y0260868D01*
X0118723Y0182258D02*
X0112851Y0173450D01*
D11*
X0103641Y0157305D02*
X0103641Y0150900D01*
X0106844Y0150900D01*
X0107911Y0151968D01*
X0107911Y0154103D01*
X0106844Y0155170D01*
X0103641Y0155170D01*
X0101466Y0155170D02*
X0101466Y0150900D01*
X0099331Y0150900D02*
X0099331Y0154103D01*
X0098263Y0155170D01*
X0097196Y0154103D01*
X0097196Y0150900D01*
X0095020Y0151968D02*
X0093953Y0153035D01*
X0090750Y0153035D01*
X0090750Y0154103D02*
X0090750Y0150900D01*
X0093953Y0150900D01*
X0095020Y0151968D01*
X0093953Y0155170D02*
X0091818Y0155170D01*
X0090750Y0154103D01*
X0088575Y0153035D02*
X0085372Y0155170D01*
X0083204Y0154103D02*
X0083204Y0151968D01*
X0082136Y0150900D01*
X0080001Y0150900D01*
X0078933Y0153035D02*
X0078933Y0154103D01*
X0080001Y0155170D01*
X0082136Y0155170D01*
X0083204Y0154103D01*
X0083204Y0153035D02*
X0078933Y0153035D01*
X0076758Y0153035D02*
X0074623Y0155170D01*
X0073556Y0155170D01*
X0076758Y0155170D02*
X0076758Y0150900D01*
X0071387Y0150900D02*
X0070319Y0150900D01*
X0070319Y0151968D01*
X0071387Y0151968D01*
X0071387Y0150900D01*
X0068164Y0151968D02*
X0067097Y0150900D01*
X0063894Y0150900D01*
X0061719Y0151968D02*
X0061719Y0154103D01*
X0060651Y0155170D01*
X0058516Y0155170D01*
X0057448Y0154103D01*
X0057448Y0151968D01*
X0058516Y0150900D01*
X0060651Y0150900D01*
X0061719Y0151968D01*
X0063894Y0155170D02*
X0067097Y0155170D01*
X0068164Y0154103D01*
X0068164Y0151968D01*
X0055273Y0150900D02*
X0055273Y0155170D01*
X0054206Y0155170D01*
X0053138Y0154103D01*
X0052071Y0155170D01*
X0051003Y0154103D01*
X0051003Y0150900D01*
X0053138Y0150900D02*
X0053138Y0154103D01*
X0085372Y0150900D02*
X0088575Y0153035D01*
X0088575Y0150900D02*
X0088575Y0157305D01*
X0099331Y0154103D02*
X0100398Y0155170D01*
X0101466Y0155170D01*
X0110087Y0154103D02*
X0110087Y0153035D01*
X0114357Y0153035D01*
X0114357Y0151968D02*
X0114357Y0154103D01*
X0113289Y0155170D01*
X0111154Y0155170D01*
X0110087Y0154103D01*
X0111154Y0150900D02*
X0113289Y0150900D01*
X0114357Y0151968D01*
X0116519Y0150900D02*
X0117586Y0151968D01*
X0117586Y0156238D01*
X0116519Y0155170D02*
X0118654Y0155170D01*
X0120829Y0155170D02*
X0124032Y0155170D01*
X0125099Y0154103D01*
X0125099Y0151968D01*
X0124032Y0150900D01*
X0120829Y0150900D01*
X0127275Y0153035D02*
X0131545Y0153035D01*
X0131545Y0151968D02*
X0131545Y0154103D01*
X0130477Y0155170D01*
X0128342Y0155170D01*
X0127275Y0154103D01*
X0127275Y0153035D01*
X0128342Y0150900D02*
X0130477Y0150900D01*
X0131545Y0151968D01*
X0133720Y0151968D02*
X0133720Y0154103D01*
X0134788Y0155170D01*
X0137990Y0155170D01*
X0137990Y0148765D01*
X0137990Y0150900D02*
X0134788Y0150900D01*
X0133720Y0151968D01*
X0140166Y0150900D02*
X0144436Y0155170D01*
X0146611Y0154103D02*
X0146611Y0153035D01*
X0150881Y0153035D01*
X0150881Y0151968D02*
X0150881Y0154103D01*
X0149814Y0155170D01*
X0147679Y0155170D01*
X0146611Y0154103D01*
X0147679Y0150900D02*
X0149814Y0150900D01*
X0150881Y0151968D01*
X0153057Y0150900D02*
X0153057Y0154103D01*
X0154124Y0155170D01*
X0157327Y0155170D01*
X0157327Y0150900D01*
X0159502Y0150900D02*
X0159502Y0155170D01*
X0159502Y0150900D02*
X0162705Y0150900D01*
X0163772Y0151968D01*
X0163772Y0155170D01*
X0144436Y0150900D02*
X0140166Y0155170D01*
D12*
X0132182Y0161800D02*
X0132182Y0167004D01*
X0129580Y0167004D01*
X0128712Y0166137D01*
X0128712Y0164402D01*
X0129580Y0163535D01*
X0132182Y0163535D01*
X0130447Y0163535D02*
X0128712Y0161800D01*
X0127026Y0161800D02*
X0123556Y0161800D01*
X0121869Y0163535D02*
X0120134Y0161800D01*
X0118400Y0163535D01*
X0118400Y0167004D01*
X0121869Y0167004D02*
X0121869Y0163535D01*
X0123556Y0167004D02*
X0127026Y0167004D01*
X0127026Y0161800D01*
X0127026Y0164402D02*
X0125291Y0164402D01*
X0111556Y0166137D02*
X0110689Y0167004D01*
X0108954Y0167004D01*
X0108087Y0166137D01*
X0108087Y0165270D01*
X0111556Y0161800D01*
X0108087Y0161800D01*
X0106400Y0162667D02*
X0106400Y0166137D01*
X0105533Y0167004D01*
X0103798Y0167004D01*
X0102930Y0166137D01*
X0106400Y0162667D01*
X0105533Y0161800D01*
X0103798Y0161800D01*
X0102930Y0162667D01*
X0102930Y0166137D01*
X0101244Y0165270D02*
X0099509Y0167004D01*
X0099509Y0161800D01*
X0101244Y0161800D02*
X0097774Y0161800D01*
X0096087Y0162667D02*
X0096087Y0163535D01*
X0095220Y0164402D01*
X0093485Y0164402D01*
X0092618Y0163535D01*
X0092618Y0162667D01*
X0093485Y0161800D01*
X0095220Y0161800D01*
X0096087Y0162667D01*
X0095220Y0164402D02*
X0096087Y0165270D01*
X0096087Y0166137D01*
X0095220Y0167004D01*
X0093485Y0167004D01*
X0092618Y0166137D01*
X0092618Y0165270D01*
X0093485Y0164402D01*
X0090931Y0164402D02*
X0087461Y0164402D01*
X0085774Y0165270D02*
X0084040Y0167004D01*
X0084040Y0161800D01*
X0085774Y0161800D02*
X0082305Y0161800D01*
X0124254Y0053332D02*
X0124254Y0050263D01*
X0124254Y0051798D02*
X0119650Y0051798D01*
X0120417Y0048728D02*
X0119650Y0047961D01*
X0119650Y0046426D01*
X0120417Y0045659D01*
X0124254Y0045659D01*
X0123486Y0044124D02*
X0124254Y0043357D01*
X0124254Y0041822D01*
X0123486Y0041055D01*
X0120417Y0041055D01*
X0119650Y0041822D01*
X0119650Y0043357D01*
X0120417Y0044124D01*
X0123486Y0044124D01*
X0124254Y0048728D02*
X0120417Y0048728D01*
X0114454Y0047861D02*
X0114454Y0045559D01*
X0109850Y0045559D01*
X0109850Y0047861D01*
X0110617Y0048628D01*
X0113686Y0048628D01*
X0114454Y0047861D01*
X0114454Y0044024D02*
X0109850Y0044024D01*
X0114454Y0040955D01*
X0109850Y0040955D01*
X0110617Y0039420D02*
X0112152Y0039420D01*
X0112152Y0037886D01*
X0113686Y0039420D02*
X0114454Y0038653D01*
X0114454Y0037118D01*
X0113686Y0036351D01*
X0110617Y0036351D01*
X0109850Y0037118D01*
X0109850Y0038653D01*
X0110617Y0039420D01*
X0104454Y0039620D02*
X0101384Y0039620D01*
X0099850Y0038086D01*
X0101384Y0036551D01*
X0104454Y0036551D01*
X0104454Y0041155D02*
X0099850Y0041155D01*
X0099850Y0043457D01*
X0100617Y0044224D01*
X0103686Y0044224D01*
X0104454Y0043457D01*
X0104454Y0041155D01*
X0104454Y0045759D02*
X0104454Y0048061D01*
X0103686Y0048828D01*
X0100617Y0048828D01*
X0099850Y0048061D01*
X0099850Y0045759D01*
X0104454Y0045759D01*
X0094254Y0044224D02*
X0089650Y0047294D01*
X0094254Y0047294D01*
X0094254Y0044224D02*
X0089650Y0044224D01*
X0089650Y0042690D02*
X0089650Y0041155D01*
X0089650Y0041922D02*
X0094254Y0041922D01*
X0094254Y0041155D02*
X0094254Y0042690D01*
X0093486Y0039620D02*
X0090417Y0039620D01*
X0089650Y0038853D01*
X0089650Y0036551D01*
X0094254Y0036551D01*
X0094254Y0038853D01*
X0093486Y0039620D01*
X0119650Y0038753D02*
X0119650Y0036451D01*
X0124254Y0036451D01*
X0124254Y0038753D01*
X0123486Y0039520D01*
X0120417Y0039520D01*
X0119650Y0038753D01*
X0167165Y0286800D02*
X0165430Y0288535D01*
X0165430Y0292004D01*
X0168900Y0292004D02*
X0168900Y0288535D01*
X0167165Y0286800D01*
X0166298Y0296800D02*
X0165430Y0297667D01*
X0165430Y0301137D01*
X0166298Y0302004D01*
X0168900Y0302004D01*
X0168900Y0296800D01*
X0166298Y0296800D01*
X0160150Y0297667D02*
X0159283Y0296800D01*
X0157548Y0296800D01*
X0156680Y0297667D01*
X0156680Y0301137D01*
X0157548Y0302004D01*
X0159283Y0302004D01*
X0160150Y0301137D01*
X0160150Y0297667D01*
X0154994Y0297667D02*
X0154126Y0296800D01*
X0152391Y0296800D01*
X0151524Y0297667D01*
X0151524Y0302004D01*
X0149837Y0302004D02*
X0146368Y0302004D01*
X0148102Y0302004D02*
X0148102Y0296800D01*
X0154994Y0297667D02*
X0154994Y0302004D01*
X0165430Y0307667D02*
X0165430Y0309402D01*
X0167165Y0309402D01*
X0165430Y0307667D02*
X0166298Y0306800D01*
X0168033Y0306800D01*
X0168900Y0307667D01*
X0168900Y0311137D01*
X0168033Y0312004D01*
X0166298Y0312004D01*
X0165430Y0311137D01*
X0061244Y0302004D02*
X0059509Y0302004D01*
X0060377Y0302004D02*
X0060377Y0296800D01*
X0061244Y0296800D02*
X0059509Y0296800D01*
X0057806Y0296800D02*
X0057806Y0302004D01*
X0054337Y0296800D01*
X0054337Y0302004D01*
X0047806Y0302004D02*
X0047806Y0296800D01*
X0045204Y0296800D01*
X0044337Y0297667D01*
X0044337Y0301137D01*
X0045204Y0302004D01*
X0047806Y0302004D01*
X0046939Y0306800D02*
X0045204Y0306800D01*
X0044337Y0307667D01*
X0044337Y0309402D01*
X0046072Y0309402D01*
X0047806Y0307667D02*
X0046939Y0306800D01*
X0047806Y0307667D02*
X0047806Y0311137D01*
X0046939Y0312004D01*
X0045204Y0312004D01*
X0044337Y0311137D01*
X0044337Y0292004D02*
X0044337Y0288535D01*
X0046072Y0286800D01*
X0047806Y0288535D01*
X0047806Y0292004D01*
D13*
X0031600Y0041600D02*
X0022850Y0041600D01*
X0022850Y0051600D02*
X0031600Y0051600D01*
X0096600Y0034100D02*
X0096600Y0024100D01*
X0106600Y0024100D02*
X0106600Y0034100D01*
X0116600Y0034100D02*
X0116600Y0024100D01*
X0181600Y0041600D02*
X0190350Y0041600D01*
X0190350Y0051600D02*
X0181600Y0051600D01*
D14*
X0179699Y0048102D02*
X0178248Y0048102D01*
X0177764Y0047618D01*
X0177764Y0045683D01*
X0178248Y0045200D01*
X0179699Y0045200D01*
X0179699Y0048102D01*
X0176752Y0047618D02*
X0176752Y0045683D01*
X0176269Y0045200D01*
X0175301Y0045200D01*
X0174817Y0045683D01*
X0174817Y0047618D01*
X0175301Y0048102D01*
X0176269Y0048102D01*
X0176752Y0047618D01*
X0176269Y0055350D02*
X0175301Y0055350D01*
X0174817Y0055833D01*
X0174817Y0057768D01*
X0175301Y0058252D01*
X0176269Y0058252D01*
X0176752Y0057768D01*
X0176752Y0055833D01*
X0176269Y0055350D01*
X0177764Y0056317D02*
X0177764Y0058252D01*
X0179699Y0058252D02*
X0179699Y0056317D01*
X0178731Y0055350D01*
X0177764Y0056317D01*
X0178048Y0037852D02*
X0177564Y0037368D01*
X0178048Y0037852D02*
X0179015Y0037852D01*
X0179499Y0037368D01*
X0179499Y0035433D01*
X0179015Y0034950D01*
X0178048Y0034950D01*
X0177564Y0035433D01*
X0177564Y0036401D01*
X0178531Y0036401D01*
X0176552Y0037368D02*
X0176552Y0035433D01*
X0176069Y0034950D01*
X0175101Y0034950D01*
X0174617Y0035433D01*
X0174617Y0037368D01*
X0175101Y0037852D01*
X0176069Y0037852D01*
X0176552Y0037368D01*
X0037035Y0037368D02*
X0037035Y0035433D01*
X0036551Y0034950D01*
X0035583Y0034950D01*
X0035100Y0035433D01*
X0035100Y0036401D01*
X0036067Y0036401D01*
X0035100Y0037368D02*
X0035583Y0037852D01*
X0036551Y0037852D01*
X0037035Y0037368D01*
X0034088Y0037852D02*
X0033121Y0037852D01*
X0033604Y0037852D02*
X0033604Y0034950D01*
X0033121Y0034950D02*
X0034088Y0034950D01*
X0034088Y0045100D02*
X0033121Y0045100D01*
X0033604Y0045100D02*
X0033604Y0048002D01*
X0033121Y0048002D02*
X0034088Y0048002D01*
X0035100Y0047518D02*
X0035100Y0045583D01*
X0035583Y0045100D01*
X0037035Y0045100D01*
X0037035Y0048002D01*
X0035583Y0048002D01*
X0035100Y0047518D01*
X0034113Y0055300D02*
X0033146Y0055300D01*
X0033629Y0055300D02*
X0033629Y0058202D01*
X0033146Y0058202D02*
X0034113Y0058202D01*
X0035125Y0058202D02*
X0035125Y0056267D01*
X0036092Y0055300D01*
X0037060Y0056267D01*
X0037060Y0058202D01*
X0100540Y0293844D02*
X0098844Y0295540D01*
X0100861Y0298014D01*
X0100348Y0299011D01*
X0100007Y0300078D01*
X0096831Y0300400D01*
X0096831Y0302800D01*
X0100007Y0303122D01*
X0100348Y0304189D01*
X0100861Y0305186D01*
X0098844Y0307660D01*
X0100540Y0309356D01*
X0103014Y0307339D01*
X0104011Y0307852D01*
X0105078Y0308193D01*
X0105400Y0311369D01*
X0107800Y0311369D01*
X0108122Y0308193D01*
X0109189Y0307852D01*
X0110186Y0307339D01*
X0112660Y0309356D01*
X0114356Y0307660D01*
X0112339Y0305186D01*
X0112852Y0304189D01*
X0113193Y0303122D01*
X0116369Y0302800D01*
X0116369Y0300400D01*
X0113193Y0300078D01*
X0112852Y0299011D01*
X0112339Y0298014D01*
X0114356Y0295540D01*
X0112660Y0293844D01*
X0110186Y0295861D01*
X0109190Y0295348D01*
X0107777Y0298758D01*
X0108309Y0299042D01*
X0108775Y0299425D01*
X0109158Y0299891D01*
X0109442Y0300423D01*
X0109617Y0301000D01*
X0109676Y0301600D01*
X0109611Y0302228D01*
X0109419Y0302830D01*
X0109109Y0303380D01*
X0108692Y0303855D01*
X0108188Y0304235D01*
X0107616Y0304503D01*
X0107002Y0304650D01*
X0106370Y0304667D01*
X0105749Y0304556D01*
X0105163Y0304320D01*
X0104638Y0303969D01*
X0104195Y0303518D01*
X0103854Y0302986D01*
X0103629Y0302396D01*
X0103529Y0301773D01*
X0103558Y0301142D01*
X0103716Y0300530D01*
X0103996Y0299964D01*
X0104385Y0299466D01*
X0104867Y0299059D01*
X0105423Y0298758D01*
X0104010Y0295348D01*
X0103014Y0295861D01*
X0100540Y0293844D01*
X0100465Y0293919D02*
X0100632Y0293919D01*
X0100998Y0294217D02*
X0100167Y0294217D01*
X0099868Y0294516D02*
X0101364Y0294516D01*
X0101730Y0294814D02*
X0099570Y0294814D01*
X0099271Y0295113D02*
X0102096Y0295113D01*
X0102462Y0295411D02*
X0098973Y0295411D01*
X0098982Y0295710D02*
X0102828Y0295710D01*
X0103308Y0295710D02*
X0104160Y0295710D01*
X0104284Y0296008D02*
X0099226Y0296008D01*
X0099469Y0296307D02*
X0104407Y0296307D01*
X0104531Y0296605D02*
X0099713Y0296605D01*
X0099956Y0296904D02*
X0104655Y0296904D01*
X0104778Y0297202D02*
X0100200Y0297202D01*
X0100443Y0297501D02*
X0104902Y0297501D01*
X0105026Y0297799D02*
X0100686Y0297799D01*
X0100818Y0298098D02*
X0105149Y0298098D01*
X0105273Y0298396D02*
X0100665Y0298396D01*
X0100511Y0298695D02*
X0105397Y0298695D01*
X0104988Y0298994D02*
X0100357Y0298994D01*
X0100258Y0299292D02*
X0104591Y0299292D01*
X0104287Y0299591D02*
X0100163Y0299591D01*
X0100067Y0299889D02*
X0104054Y0299889D01*
X0103885Y0300188D02*
X0098927Y0300188D01*
X0096831Y0300486D02*
X0103738Y0300486D01*
X0103651Y0300785D02*
X0096831Y0300785D01*
X0096831Y0301083D02*
X0103574Y0301083D01*
X0103547Y0301382D02*
X0096831Y0301382D01*
X0096831Y0301680D02*
X0103533Y0301680D01*
X0103562Y0301979D02*
X0096831Y0301979D01*
X0096831Y0302277D02*
X0103610Y0302277D01*
X0103697Y0302576D02*
X0096831Y0302576D01*
X0097565Y0302874D02*
X0103811Y0302874D01*
X0103974Y0303173D02*
X0100023Y0303173D01*
X0100118Y0303471D02*
X0104165Y0303471D01*
X0104442Y0303770D02*
X0100214Y0303770D01*
X0100309Y0304068D02*
X0104787Y0304068D01*
X0105280Y0304367D02*
X0100440Y0304367D01*
X0100593Y0304665D02*
X0106359Y0304665D01*
X0106445Y0304665D02*
X0112607Y0304665D01*
X0112760Y0304367D02*
X0107907Y0304367D01*
X0108409Y0304068D02*
X0112890Y0304068D01*
X0112986Y0303770D02*
X0108767Y0303770D01*
X0109029Y0303471D02*
X0113082Y0303471D01*
X0113177Y0303173D02*
X0109226Y0303173D01*
X0109394Y0302874D02*
X0115635Y0302874D01*
X0116369Y0302576D02*
X0109500Y0302576D01*
X0109596Y0302277D02*
X0116369Y0302277D01*
X0116369Y0301979D02*
X0109637Y0301979D01*
X0109668Y0301680D02*
X0116369Y0301680D01*
X0116369Y0301382D02*
X0109654Y0301382D01*
X0109625Y0301083D02*
X0116369Y0301083D01*
X0116369Y0300785D02*
X0109552Y0300785D01*
X0109461Y0300486D02*
X0116369Y0300486D01*
X0114273Y0300188D02*
X0109316Y0300188D01*
X0109156Y0299889D02*
X0113133Y0299889D01*
X0113037Y0299591D02*
X0108911Y0299591D01*
X0108613Y0299292D02*
X0112942Y0299292D01*
X0112843Y0298994D02*
X0108217Y0298994D01*
X0107803Y0298695D02*
X0112689Y0298695D01*
X0112535Y0298396D02*
X0107927Y0298396D01*
X0108051Y0298098D02*
X0112382Y0298098D01*
X0112514Y0297799D02*
X0108174Y0297799D01*
X0108298Y0297501D02*
X0112757Y0297501D01*
X0113000Y0297202D02*
X0108422Y0297202D01*
X0108545Y0296904D02*
X0113244Y0296904D01*
X0113487Y0296605D02*
X0108669Y0296605D01*
X0108793Y0296307D02*
X0113731Y0296307D01*
X0113974Y0296008D02*
X0108916Y0296008D01*
X0109040Y0295710D02*
X0109892Y0295710D01*
X0110372Y0295710D02*
X0114217Y0295710D01*
X0114227Y0295411D02*
X0110738Y0295411D01*
X0111104Y0295113D02*
X0113929Y0295113D01*
X0113630Y0294814D02*
X0111470Y0294814D01*
X0111836Y0294516D02*
X0113332Y0294516D01*
X0113033Y0294217D02*
X0112202Y0294217D01*
X0112568Y0293919D02*
X0112735Y0293919D01*
X0109313Y0295411D02*
X0109164Y0295411D01*
X0104036Y0295411D02*
X0103887Y0295411D01*
X0100747Y0304964D02*
X0112453Y0304964D01*
X0112401Y0305262D02*
X0100799Y0305262D01*
X0100556Y0305561D02*
X0112644Y0305561D01*
X0112888Y0305859D02*
X0100312Y0305859D01*
X0100069Y0306158D02*
X0113131Y0306158D01*
X0113375Y0306456D02*
X0099825Y0306456D01*
X0099582Y0306755D02*
X0113618Y0306755D01*
X0113861Y0307053D02*
X0099339Y0307053D01*
X0099095Y0307352D02*
X0102998Y0307352D01*
X0103040Y0307352D02*
X0110160Y0307352D01*
X0110202Y0307352D02*
X0114105Y0307352D01*
X0114348Y0307650D02*
X0110568Y0307650D01*
X0110934Y0307949D02*
X0114067Y0307949D01*
X0113768Y0308247D02*
X0111300Y0308247D01*
X0111666Y0308546D02*
X0113470Y0308546D01*
X0113171Y0308844D02*
X0112033Y0308844D01*
X0112399Y0309143D02*
X0112873Y0309143D01*
X0109580Y0307650D02*
X0103620Y0307650D01*
X0104314Y0307949D02*
X0108886Y0307949D01*
X0108117Y0308247D02*
X0105083Y0308247D01*
X0105114Y0308546D02*
X0108086Y0308546D01*
X0108056Y0308844D02*
X0105144Y0308844D01*
X0105174Y0309143D02*
X0108026Y0309143D01*
X0107995Y0309441D02*
X0105205Y0309441D01*
X0105235Y0309740D02*
X0107965Y0309740D01*
X0107935Y0310038D02*
X0105265Y0310038D01*
X0105296Y0310337D02*
X0107904Y0310337D01*
X0107874Y0310635D02*
X0105326Y0310635D01*
X0105356Y0310934D02*
X0107844Y0310934D01*
X0107813Y0311232D02*
X0105387Y0311232D01*
X0102632Y0307650D02*
X0098852Y0307650D01*
X0099133Y0307949D02*
X0102266Y0307949D01*
X0101900Y0308247D02*
X0099432Y0308247D01*
X0099730Y0308546D02*
X0101534Y0308546D01*
X0101167Y0308844D02*
X0100029Y0308844D01*
X0100327Y0309143D02*
X0100801Y0309143D01*
M02*
