G75*
%MOIN*%
%OFA0B0*%
%FSLAX25Y25*%
%IPPOS*%
%LPD*%
%AMOC8*
5,1,8,0,0,1.08239X$1,22.5*
%
%ADD10C,0.10800*%
%ADD11R,0.06706X0.04343*%
%ADD12R,0.05918X0.06706*%
%ADD13R,0.06706X0.05918*%
%ADD14R,0.04146X0.04737*%
%ADD15C,0.08200*%
D10*
X0036600Y0171600D03*
X0176600Y0171600D03*
D11*
G36*
X0141034Y0227883D02*
X0147335Y0225590D01*
X0145850Y0221511D01*
X0139549Y0223804D01*
X0141034Y0227883D01*
G37*
G36*
X0145478Y0240091D02*
X0151779Y0237798D01*
X0150294Y0233719D01*
X0143993Y0236012D01*
X0145478Y0240091D01*
G37*
X0159454Y0240596D03*
X0159454Y0227604D03*
X0178746Y0227604D03*
X0178746Y0240596D03*
X0140046Y0178096D03*
X0140046Y0165104D03*
X0120754Y0165104D03*
X0120754Y0178096D03*
X0088946Y0178096D03*
X0088946Y0165104D03*
X0069654Y0165104D03*
X0069654Y0178096D03*
G36*
X0062740Y0225590D02*
X0069041Y0227883D01*
X0070526Y0223804D01*
X0064225Y0221511D01*
X0062740Y0225590D01*
G37*
G36*
X0058296Y0237798D02*
X0064597Y0240091D01*
X0066082Y0236012D01*
X0059781Y0233719D01*
X0058296Y0237798D01*
G37*
X0049996Y0240596D03*
X0049996Y0227604D03*
X0030704Y0227604D03*
X0030704Y0240596D03*
G36*
X0076424Y0244396D02*
X0082725Y0246689D01*
X0084210Y0242610D01*
X0077909Y0240317D01*
X0076424Y0244396D01*
G37*
G36*
X0080868Y0232188D02*
X0087169Y0234481D01*
X0088654Y0230402D01*
X0082353Y0228109D01*
X0080868Y0232188D01*
G37*
X0095079Y0227604D03*
X0095079Y0240596D03*
X0114371Y0240596D03*
X0114371Y0227604D03*
G36*
X0122906Y0234481D02*
X0129207Y0232188D01*
X0127722Y0228109D01*
X0121421Y0230402D01*
X0122906Y0234481D01*
G37*
G36*
X0127350Y0246689D02*
X0133651Y0244396D01*
X0132166Y0240317D01*
X0125865Y0242610D01*
X0127350Y0246689D01*
G37*
X0114346Y0290104D03*
X0114346Y0303096D03*
X0095054Y0303096D03*
X0095054Y0290104D03*
G36*
X0062350Y0121689D02*
X0068651Y0119396D01*
X0067166Y0115317D01*
X0060865Y0117610D01*
X0062350Y0121689D01*
G37*
G36*
X0057906Y0109481D02*
X0064207Y0107188D01*
X0062722Y0103109D01*
X0056421Y0105402D01*
X0057906Y0109481D01*
G37*
X0049996Y0115596D03*
X0049996Y0102604D03*
X0030704Y0102604D03*
X0030704Y0115596D03*
G36*
X0076034Y0102883D02*
X0082335Y0100590D01*
X0080850Y0096511D01*
X0074549Y0098804D01*
X0076034Y0102883D01*
G37*
G36*
X0080478Y0115091D02*
X0086779Y0112798D01*
X0085294Y0108719D01*
X0078993Y0111012D01*
X0080478Y0115091D01*
G37*
X0095079Y0115596D03*
X0095079Y0102604D03*
X0114371Y0102604D03*
X0114371Y0115596D03*
G36*
X0120796Y0112798D02*
X0127097Y0115091D01*
X0128582Y0111012D01*
X0122281Y0108719D01*
X0120796Y0112798D01*
G37*
G36*
X0125240Y0100590D02*
X0131541Y0102883D01*
X0133026Y0098804D01*
X0126725Y0096511D01*
X0125240Y0100590D01*
G37*
G36*
X0138924Y0119396D02*
X0145225Y0121689D01*
X0146710Y0117610D01*
X0140409Y0115317D01*
X0138924Y0119396D01*
G37*
G36*
X0143368Y0107188D02*
X0149669Y0109481D01*
X0151154Y0105402D01*
X0144853Y0103109D01*
X0143368Y0107188D01*
G37*
X0159454Y0102604D03*
X0159454Y0115596D03*
X0178746Y0115596D03*
X0178746Y0102604D03*
X0114346Y0053096D03*
X0114346Y0040104D03*
X0095054Y0040104D03*
X0095054Y0053096D03*
D12*
X0041610Y0094100D03*
X0049090Y0094100D03*
X0070360Y0089100D03*
X0077840Y0089100D03*
X0107860Y0089100D03*
X0115340Y0089100D03*
X0139110Y0089100D03*
X0146590Y0089100D03*
X0170360Y0094100D03*
X0177840Y0094100D03*
X0131590Y0040350D03*
X0124110Y0040350D03*
X0107840Y0166600D03*
X0100360Y0166600D03*
X0106610Y0215350D03*
X0114090Y0215350D03*
X0135360Y0215350D03*
X0142840Y0215350D03*
X0170360Y0217850D03*
X0177840Y0217850D03*
X0156590Y0166600D03*
X0149110Y0166600D03*
X0085340Y0215350D03*
X0077860Y0215350D03*
X0049090Y0217850D03*
X0041610Y0217850D03*
X0122060Y0289750D03*
X0129540Y0289750D03*
D13*
X0049100Y0290360D03*
X0049100Y0297840D03*
D14*
X0180655Y0053490D03*
X0187545Y0053490D03*
X0187545Y0039710D03*
X0180655Y0039710D03*
D15*
X0182800Y0289100D02*
X0175400Y0289100D01*
X0175400Y0299100D02*
X0182800Y0299100D01*
X0182800Y0309100D02*
X0175400Y0309100D01*
X0037800Y0309100D02*
X0030400Y0309100D01*
X0030400Y0299100D02*
X0037800Y0299100D01*
X0037800Y0289100D02*
X0030400Y0289100D01*
M02*
